{"glyphs":{"0":{"ha":864,"x_min":0,"x_max":0,"o":"m 210 367 b 224 375 214 368 222 372 b 226 385 226 378 226 382 b 221 390 225 386 221 389 l 222 392 l 224 392 b 483 456 256 400 442 435 b 496 461 489 457 493 460 l 501 467 b 499 467 503 468 501 468 b 233 403 451 447 265 414 b 224 397 228 401 226 399 l 215 390 b 217 381 213 386 213 383 b 215 372 219 376 218 374 b 210 368 214 372 211 369 b 210 367 210 368 208 367 z m 15 0 l 17 0 l 83 86 l 15 86 z m 78 0 l 158 0 l 224 86 l 144 86 z m 44 142 l 58 142 l 58 190 l 75 142 l 90 142 l 90 210 l 79 210 l 78 164 l 63 210 l 46 210 z m 101 142 l 117 142 l 118 157 l 136 157 l 140 142 l 154 142 l 138 210 l 121 210 z m 218 0 l 299 0 l 364 86 l 286 86 z m 121 168 l 128 199 l 135 168 z m 167 142 l 178 142 l 179 197 l 192 142 l 201 142 l 214 197 l 213 142 l 226 142 l 226 210 l 207 210 l 196 161 l 188 210 l 167 210 z m 243 142 l 282 142 l 281 153 l 256 153 l 256 172 l 279 172 l 281 183 l 257 183 l 256 199 l 279 199 l 281 210 l 243 210 z m 360 0 l 439 0 l 506 86 l 425 86 z m 294 142 l 333 142 l 333 153 l 308 153 l 308 210 l 296 210 z m 342 142 l 354 142 l 358 157 l 376 157 l 379 142 l 393 142 l 376 210 l 358 210 z m 361 168 l 365 199 l 368 199 l 374 168 z m 199 335 l 199 269 b 211 272 199 269 208 269 b 215 281 215 275 215 281 l 215 335 b 222 343 217 339 219 342 b 235 347 226 344 231 347 b 249 340 242 347 244 344 b 253 322 251 336 253 331 l 253 281 b 254 272 253 281 254 275 b 269 269 258 268 269 269 l 268 325 b 240 360 268 349 258 360 b 215 347 229 360 219 356 b 201 340 211 343 208 344 b 199 335 199 339 199 335 z m 500 0 l 581 0 l 646 86 l 565 86 z m 411 142 l 425 142 l 424 199 l 439 199 l 440 210 l 397 210 l 396 199 l 411 199 z m 308 281 b 292 294 299 281 292 285 b 300 308 292 300 294 306 b 321 315 306 314 313 315 b 331 314 322 315 325 315 l 329 292 b 308 281 322 285 317 281 z m 301 268 b 329 278 314 268 322 272 b 338 283 332 281 335 281 b 344 292 342 285 346 289 l 344 324 b 336 351 346 335 342 344 b 314 360 331 357 324 358 b 286 342 308 360 292 347 b 288 339 283 336 288 339 b 310 344 293 343 300 344 b 329 325 324 344 329 339 b 318 326 325 325 322 326 b 288 317 307 326 296 324 b 276 294 279 311 276 303 b 285 275 276 286 281 281 b 301 268 290 269 296 268 z m 465 142 l 478 142 l 478 168 l 497 210 l 482 210 l 472 183 l 464 210 l 449 210 l 465 168 z m 279 356 b 292 378 281 356 293 376 b 279 393 285 381 279 386 b 276 393 278 394 276 393 b 274 386 275 392 274 390 l 267 374 b 279 356 265 365 274 358 z m 508 142 l 521 142 l 522 169 l 531 169 b 551 190 542 169 551 176 b 532 210 551 200 547 210 l 508 210 z m 51 540 l 58 540 l 58 560 l 74 560 l 72 565 l 58 565 l 58 576 l 75 576 l 74 583 l 51 583 z m 528 181 l 521 181 l 521 200 l 528 200 b 538 190 535 200 538 197 b 528 181 538 183 533 181 z m 640 0 l 719 0 l 786 86 l 707 86 z m 93 540 b 107 561 103 540 107 547 b 93 583 107 576 103 583 b 78 561 82 583 79 576 b 93 540 78 547 83 540 z m 93 544 b 86 561 88 544 86 547 b 93 578 88 576 88 578 b 100 561 96 578 100 576 b 93 544 100 547 96 544 z m 356 269 b 367 272 356 269 364 269 b 369 281 371 275 369 281 l 371 335 b 378 343 371 339 374 340 b 389 347 382 344 385 347 b 400 343 393 347 396 344 b 404 332 403 340 404 336 l 406 269 b 417 272 406 269 414 269 b 422 281 421 276 422 281 l 422 335 b 428 343 421 339 425 340 b 439 347 432 344 435 347 b 457 325 450 347 457 340 l 457 281 b 458 274 457 281 457 275 b 472 269 463 269 472 269 l 472 328 b 465 351 471 339 471 347 b 443 360 460 357 451 360 b 428 357 439 360 433 358 b 418 349 424 353 419 351 b 392 360 413 356 406 360 b 369 349 383 360 374 356 b 357 339 367 343 360 342 l 356 333 z m 565 142 l 603 142 l 603 153 l 578 153 l 578 172 l 599 172 l 600 183 l 579 183 l 578 199 l 601 199 l 601 210 l 565 210 z m 617 142 l 629 142 l 631 157 l 617 157 z m 113 540 l 121 540 l 121 558 l 126 558 b 132 551 131 558 133 557 b 133 543 133 549 133 547 l 133 540 l 142 540 b 140 543 142 542 140 542 l 140 553 b 133 561 139 558 136 561 b 139 572 139 561 140 567 b 128 583 140 581 135 583 l 113 583 z m 125 564 l 121 564 l 121 578 l 126 578 b 133 572 131 578 133 575 b 125 564 133 567 129 564 z m 175 540 b 189 556 185 540 188 547 l 182 556 b 174 544 181 551 179 544 b 168 561 169 544 168 549 b 175 578 168 575 169 578 b 182 569 179 578 182 575 l 189 569 b 174 583 189 575 186 583 b 160 561 163 583 161 576 b 175 540 160 547 163 540 z m 42 625 l 54 625 l 60 649 l 67 649 b 89 667 76 649 86 653 b 76 683 89 675 88 683 l 54 683 z m 782 0 l 850 0 l 850 86 l 847 86 z m 67 657 l 61 657 l 64 675 l 69 675 b 76 667 76 675 78 672 b 67 657 75 660 71 657 z m 668 142 b 690 168 685 142 689 153 l 675 168 b 667 151 675 153 672 151 b 658 175 663 151 658 156 b 667 201 658 194 660 201 b 675 186 674 201 675 197 l 688 186 b 668 211 689 197 686 211 b 644 176 646 211 646 197 b 668 142 644 156 646 142 z m 206 540 b 222 561 217 540 221 547 b 206 583 222 576 215 583 b 193 561 196 583 194 576 b 206 540 193 547 196 540 z m 206 544 b 200 561 203 544 200 547 b 206 578 200 576 203 578 b 214 561 210 578 214 576 b 206 544 213 547 210 544 z m 513 269 b 542 282 518 268 532 276 b 542 285 544 283 547 289 b 524 282 535 283 531 282 b 506 289 517 282 510 283 b 496 311 499 293 497 301 l 560 311 b 561 322 560 315 561 318 b 549 349 561 333 557 342 b 522 360 543 357 533 360 b 493 349 510 360 501 356 b 481 314 485 339 481 326 b 493 281 479 299 483 289 b 513 269 499 275 504 269 z m 90 625 l 124 625 l 126 635 l 104 635 l 106 650 l 126 650 l 131 660 l 110 660 l 113 674 l 133 674 l 135 683 l 101 683 z m 544 324 l 496 324 b 506 340 496 331 500 335 b 522 347 508 344 515 347 b 540 340 531 347 535 343 b 544 324 544 335 544 331 z m 228 540 l 233 540 l 233 576 l 243 540 l 247 540 l 257 576 l 256 540 l 263 540 l 263 583 l 253 583 l 246 551 l 244 551 l 238 583 l 228 583 z m 725 142 b 749 176 746 142 749 156 b 724 211 749 197 746 211 b 701 176 704 211 701 197 b 725 142 701 156 704 142 z m 725 151 b 717 176 717 151 717 158 b 725 201 717 194 717 201 b 735 176 733 201 735 194 b 725 151 735 158 733 151 z m 133 625 l 146 625 l 151 650 l 158 650 b 164 642 163 650 164 647 l 161 631 b 161 625 160 628 160 626 l 175 625 b 174 635 172 626 172 631 b 168 653 176 649 176 653 b 182 668 174 656 181 660 b 168 683 183 678 178 683 l 146 683 z m 158 658 l 153 658 l 156 675 l 161 675 b 168 667 168 675 169 672 b 158 658 168 660 163 658 z m 271 540 l 278 540 l 279 576 l 286 540 l 292 540 l 303 576 l 301 540 l 308 540 l 307 583 l 296 583 l 289 551 l 281 583 l 271 583 z m 626 281 b 610 294 615 281 610 285 b 618 308 610 300 613 306 b 638 315 624 314 629 315 b 647 314 639 315 643 315 l 646 292 b 626 281 642 285 635 281 z m 201 624 b 225 642 213 624 224 628 b 217 657 226 649 225 653 l 208 661 b 204 669 204 664 203 665 b 213 676 206 674 206 676 b 218 667 217 676 218 674 l 228 667 l 231 668 b 215 685 232 681 225 685 b 192 668 203 685 196 681 b 203 650 190 658 193 653 b 211 640 211 647 213 644 b 203 632 213 635 207 632 b 199 642 196 632 197 635 l 197 643 l 186 643 l 185 640 b 201 624 182 631 186 624 z m 763 142 l 776 142 l 776 197 l 788 142 l 799 142 l 813 197 l 811 142 l 824 142 l 824 210 l 804 210 l 793 161 l 783 210 l 764 210 z m 14 747 l 15 747 l 83 833 l 14 833 z m 314 540 l 338 540 l 338 547 l 321 547 l 321 560 l 338 560 l 338 565 l 321 565 l 322 576 l 339 576 l 338 583 l 314 583 z m 621 268 b 646 278 632 268 642 272 b 656 283 650 281 653 281 b 663 292 660 285 664 289 l 663 324 b 654 351 664 335 660 344 b 632 360 650 357 642 358 b 604 342 626 360 608 347 b 604 339 601 336 604 339 b 628 344 611 343 618 344 b 646 325 642 344 646 339 b 636 326 643 325 640 326 b 606 317 624 326 613 324 b 596 294 599 311 594 303 b 601 275 594 286 597 281 b 621 268 607 269 614 268 z m 600 268 b 597 272 600 268 603 272 b 585 297 590 274 585 285 l 585 482 b 572 478 585 482 575 481 b 569 468 569 475 569 468 l 571 294 b 600 268 569 276 581 268 z m 344 540 l 351 540 l 351 558 l 356 558 b 363 551 361 558 364 557 b 364 543 364 549 363 547 b 364 540 364 542 365 542 l 372 540 b 371 543 372 542 369 542 b 369 553 369 547 371 550 b 364 561 369 558 368 561 b 369 572 368 561 369 567 b 360 583 369 581 365 583 l 344 583 z m 356 564 l 350 564 l 351 578 l 356 578 b 363 572 361 578 364 575 b 356 564 363 567 361 564 z m 249 624 b 278 656 268 624 272 636 b 263 685 282 672 282 685 b 236 656 246 685 242 672 b 249 624 232 636 232 624 z m 253 632 b 247 656 244 632 244 639 b 261 676 251 669 254 676 b 264 656 268 676 268 669 b 253 632 261 639 260 632 z m 389 540 b 403 556 401 540 403 547 l 397 556 b 389 544 396 551 396 544 b 383 561 385 544 383 549 b 389 578 383 575 385 578 b 397 569 394 578 397 575 l 404 569 b 390 583 403 575 403 583 b 376 561 379 583 378 576 b 389 540 376 547 379 540 z m 408 540 l 417 540 l 415 583 l 407 583 z m 282 625 l 293 625 l 301 667 l 308 625 l 321 625 l 335 683 l 322 683 l 314 643 l 308 683 l 294 683 z m 78 747 l 157 747 l 222 833 l 143 833 z m 419 540 l 426 540 l 429 550 l 442 550 l 444 540 l 451 540 l 439 583 l 431 583 z m 431 557 l 436 576 l 440 557 z m 597 406 l 594 403 b 649 425 615 411 628 415 b 657 433 651 425 654 431 b 664 439 660 433 665 439 l 611 418 b 601 410 608 417 604 414 b 597 406 600 410 594 406 z m 483 535 l 482 532 b 489 540 488 532 490 535 l 490 549 l 483 549 l 483 540 l 485 540 b 483 535 485 536 485 535 z m 454 540 l 478 540 l 478 547 l 461 547 l 461 583 l 454 583 z m 329 625 l 343 625 l 347 636 l 363 636 l 363 625 l 376 625 l 372 683 l 358 683 z m 351 647 l 364 674 l 364 647 z m 385 625 l 418 625 l 421 635 l 399 635 l 410 683 l 397 683 z m 510 540 l 517 540 l 517 558 l 522 558 b 535 569 531 558 533 564 b 522 583 535 578 531 583 l 510 583 z m 521 564 l 515 564 l 517 578 l 521 578 b 529 569 526 578 528 575 b 521 564 528 565 524 564 z m 539 540 l 563 540 l 563 547 l 546 547 l 546 583 l 539 583 z m 218 747 l 297 747 l 363 833 l 285 833 z m 568 540 l 592 540 l 592 547 l 575 547 l 575 560 l 590 560 l 589 565 l 575 565 l 575 576 l 592 576 l 590 583 l 568 583 z m 469 624 b 493 642 479 624 490 626 l 501 683 l 489 683 l 482 642 b 471 632 479 636 476 632 b 467 642 467 632 464 636 l 475 683 l 463 683 l 456 642 b 469 624 451 626 460 624 z m 593 540 l 600 540 l 604 550 l 615 550 l 618 540 l 625 540 l 614 583 l 604 583 z m 606 557 l 611 576 l 615 557 z m 515 624 b 542 642 529 624 539 628 b 533 657 543 649 542 653 l 525 661 b 521 669 519 664 519 665 b 529 676 522 674 522 676 b 533 667 533 676 535 674 l 544 667 l 546 668 b 529 685 549 681 542 685 b 508 668 519 685 513 681 b 519 650 507 658 510 653 b 528 640 528 647 529 644 b 519 632 529 635 524 632 b 514 642 513 632 514 635 l 514 643 l 501 643 l 501 640 b 515 624 499 631 503 624 z m 639 540 b 654 551 650 540 656 543 b 646 564 654 558 651 561 l 642 565 b 635 574 636 567 635 568 b 639 578 636 576 638 578 b 646 574 644 578 647 576 l 646 572 l 653 572 l 653 574 b 640 583 654 576 651 583 b 628 572 632 583 628 581 b 636 560 628 565 632 561 l 642 558 b 649 550 646 557 649 556 b 640 544 649 549 644 544 b 635 551 636 544 635 547 l 635 553 l 628 553 b 639 540 628 547 629 540 z m 661 540 l 685 540 l 685 547 l 668 547 l 668 560 l 683 560 l 683 565 l 668 565 l 669 576 l 683 576 l 682 583 l 661 583 z m 549 625 l 582 625 l 585 635 l 563 635 l 564 650 l 585 650 l 589 660 l 568 660 l 572 674 l 592 674 l 594 683 l 561 683 z m 360 747 l 438 747 l 504 833 l 425 833 z m 710 540 l 718 540 l 728 583 l 721 583 l 714 549 l 706 583 l 699 583 z m 731 540 l 738 540 l 738 583 l 731 583 z m 635 624 b 661 656 653 624 657 636 b 649 685 667 672 667 685 b 621 656 629 685 625 672 b 635 624 618 636 615 624 z m 636 632 b 632 656 629 632 629 639 b 646 676 636 669 639 676 b 649 656 653 676 653 669 b 636 632 646 639 644 632 z m 758 540 b 771 551 767 540 772 543 b 763 564 771 558 769 561 l 758 565 b 751 574 754 567 751 568 b 758 578 753 576 754 578 b 763 574 761 578 764 576 l 763 572 l 771 572 l 771 574 b 757 583 772 576 769 583 b 744 572 749 583 744 581 b 754 560 744 565 749 561 l 758 558 b 765 550 764 557 765 556 b 757 544 765 549 763 544 b 751 551 753 544 751 547 l 751 553 l 744 553 b 758 540 744 547 746 540 z m 778 540 l 785 540 l 785 583 l 778 583 z m 797 540 l 806 540 l 807 576 l 817 576 l 815 583 l 788 583 l 789 576 l 799 576 z m 667 625 l 678 625 l 686 667 l 693 625 l 707 625 l 719 683 l 708 683 l 700 643 l 693 683 l 679 683 z m 719 625 l 751 625 l 756 635 l 733 635 l 743 683 l 731 683 z m 499 747 l 579 747 l 644 833 l 564 833 z m 804 625 l 815 625 l 818 635 l 807 635 z m 765 625 l 778 625 l 783 649 l 806 683 l 793 683 l 781 661 l 776 683 l 763 683 l 771 649 z m 810 642 l 818 642 l 825 665 l 828 683 l 817 683 l 813 665 z m 639 747 l 719 747 l 785 833 l 706 833 z m 781 747 l 849 747 l 850 833 l 846 833 z "},"1":{"ha":864,"x_min":0,"x_max":0,"o":"m 210 367 b 224 375 214 368 222 372 b 226 385 226 378 226 382 b 221 390 225 386 221 389 l 222 392 l 224 392 b 483 456 256 400 442 435 b 496 461 489 457 493 460 l 501 467 b 499 467 503 468 501 468 b 233 403 451 447 265 414 b 224 397 228 401 226 399 l 215 390 b 217 381 213 386 213 383 b 215 372 219 376 218 374 b 210 368 214 372 211 369 b 210 367 210 368 208 367 z m 15 0 l 17 0 l 83 86 l 15 86 z m 78 0 l 158 0 l 224 86 l 144 86 z m 44 142 l 58 142 l 58 190 l 75 142 l 90 142 l 90 210 l 79 210 l 78 164 l 63 210 l 46 210 z m 101 142 l 117 142 l 118 157 l 136 157 l 140 142 l 154 142 l 138 210 l 121 210 z m 218 0 l 299 0 l 364 86 l 286 86 z m 121 168 l 128 199 l 135 168 z m 167 142 l 178 142 l 179 197 l 192 142 l 201 142 l 214 197 l 213 142 l 226 142 l 226 210 l 207 210 l 196 161 l 188 210 l 167 210 z m 243 142 l 282 142 l 281 153 l 256 153 l 256 172 l 279 172 l 281 183 l 257 183 l 256 199 l 279 199 l 281 210 l 243 210 z m 360 0 l 439 0 l 506 86 l 425 86 z m 294 142 l 333 142 l 333 153 l 308 153 l 308 210 l 296 210 z m 342 142 l 354 142 l 358 157 l 376 157 l 379 142 l 393 142 l 376 210 l 358 210 z m 361 168 l 365 199 l 368 199 l 374 168 z m 199 335 l 199 269 b 211 272 199 269 208 269 b 215 281 215 275 215 281 l 215 335 b 222 343 217 339 219 342 b 235 347 226 344 231 347 b 249 340 242 347 244 344 b 253 322 251 336 253 331 l 253 281 b 254 272 253 281 254 275 b 269 269 258 268 269 269 l 268 325 b 240 360 268 349 258 360 b 215 347 229 360 219 356 b 201 340 211 343 208 344 b 199 335 199 339 199 335 z m 500 0 l 581 0 l 646 86 l 565 86 z m 411 142 l 425 142 l 424 199 l 439 199 l 440 210 l 397 210 l 396 199 l 411 199 z m 308 281 b 292 294 299 281 292 285 b 300 308 292 300 294 306 b 321 315 306 314 313 315 b 331 314 322 315 325 315 l 329 292 b 308 281 322 285 317 281 z m 301 268 b 329 278 314 268 322 272 b 338 283 332 281 335 281 b 344 292 342 285 346 289 l 344 324 b 336 351 346 335 342 344 b 314 360 331 357 324 358 b 286 342 308 360 292 347 b 288 339 283 336 288 339 b 310 344 293 343 300 344 b 329 325 324 344 329 339 b 318 326 325 325 322 326 b 288 317 307 326 296 324 b 276 294 279 311 276 303 b 285 275 276 286 281 281 b 301 268 290 269 296 268 z m 465 142 l 478 142 l 478 168 l 497 210 l 482 210 l 472 183 l 464 210 l 449 210 l 465 168 z m 279 356 b 292 378 281 356 293 376 b 279 393 285 381 279 386 b 276 393 278 394 276 393 b 274 386 275 392 274 390 l 267 374 b 279 356 265 365 274 358 z m 508 142 l 521 142 l 522 169 l 531 169 b 551 190 542 169 551 176 b 532 210 551 200 547 210 l 508 210 z m 51 540 l 58 540 l 58 560 l 74 560 l 72 565 l 58 565 l 58 576 l 75 576 l 74 583 l 51 583 z m 528 181 l 521 181 l 521 200 l 528 200 b 538 190 535 200 538 197 b 528 181 538 183 533 181 z m 640 0 l 719 0 l 786 86 l 707 86 z m 93 540 b 107 561 103 540 107 547 b 93 583 107 576 103 583 b 78 561 82 583 79 576 b 93 540 78 547 83 540 z m 93 544 b 86 561 88 544 86 547 b 93 578 88 576 88 578 b 100 561 96 578 100 576 b 93 544 100 547 96 544 z m 356 269 b 367 272 356 269 364 269 b 369 281 371 275 369 281 l 371 335 b 378 343 371 339 374 340 b 389 347 382 344 385 347 b 400 343 393 347 396 344 b 404 332 403 340 404 336 l 406 269 b 417 272 406 269 414 269 b 422 281 421 276 422 281 l 422 335 b 428 343 421 339 425 340 b 439 347 432 344 435 347 b 457 325 450 347 457 340 l 457 281 b 458 274 457 281 457 275 b 472 269 463 269 472 269 l 472 328 b 465 351 471 339 471 347 b 443 360 460 357 451 360 b 428 357 439 360 433 358 b 418 349 424 353 419 351 b 392 360 413 356 406 360 b 369 349 383 360 374 356 b 357 339 367 343 360 342 l 356 333 z m 565 142 l 603 142 l 603 153 l 578 153 l 578 172 l 599 172 l 600 183 l 579 183 l 578 199 l 601 199 l 601 210 l 565 210 z m 617 142 l 629 142 l 631 157 l 617 157 z m 113 540 l 121 540 l 121 558 l 126 558 b 132 551 131 558 133 557 b 133 543 133 549 133 547 l 133 540 l 142 540 b 140 543 142 542 140 542 l 140 553 b 133 561 139 558 136 561 b 139 572 139 561 140 567 b 128 583 140 581 135 583 l 113 583 z m 125 564 l 121 564 l 121 578 l 126 578 b 133 572 131 578 133 575 b 125 564 133 567 129 564 z m 175 540 b 189 556 185 540 188 547 l 182 556 b 174 544 181 551 179 544 b 168 561 169 544 168 549 b 175 578 168 575 169 578 b 182 569 179 578 182 575 l 189 569 b 174 583 189 575 186 583 b 160 561 163 583 161 576 b 175 540 160 547 163 540 z m 42 625 l 54 625 l 60 649 l 67 649 b 89 667 76 649 86 653 b 76 683 89 675 88 683 l 54 683 z m 782 0 l 850 0 l 850 86 l 847 86 z m 67 657 l 61 657 l 64 675 l 69 675 b 76 667 76 675 78 672 b 67 657 75 660 71 657 z m 668 142 b 690 168 685 142 689 153 l 675 168 b 667 151 675 153 672 151 b 658 175 663 151 658 156 b 667 201 658 194 660 201 b 675 186 674 201 675 197 l 688 186 b 668 211 689 197 686 211 b 644 176 646 211 646 197 b 668 142 644 156 646 142 z m 206 540 b 222 561 217 540 221 547 b 206 583 222 576 215 583 b 193 561 196 583 194 576 b 206 540 193 547 196 540 z m 206 544 b 200 561 203 544 200 547 b 206 578 200 576 203 578 b 214 561 210 578 214 576 b 206 544 213 547 210 544 z m 513 269 b 542 282 518 268 532 276 b 542 285 544 283 547 289 b 524 282 535 283 531 282 b 506 289 517 282 510 283 b 496 311 499 293 497 301 l 560 311 b 561 322 560 315 561 318 b 549 349 561 333 557 342 b 522 360 543 357 533 360 b 493 349 510 360 501 356 b 481 314 485 339 481 326 b 493 281 479 299 483 289 b 513 269 499 275 504 269 z m 90 625 l 124 625 l 126 635 l 104 635 l 106 650 l 126 650 l 131 660 l 110 660 l 113 674 l 133 674 l 135 683 l 101 683 z m 544 324 l 496 324 b 506 340 496 331 500 335 b 522 347 508 344 515 347 b 540 340 531 347 535 343 b 544 324 544 335 544 331 z m 228 540 l 233 540 l 233 576 l 243 540 l 247 540 l 257 576 l 256 540 l 263 540 l 263 583 l 253 583 l 246 551 l 244 551 l 238 583 l 228 583 z m 725 142 b 749 176 746 142 749 156 b 724 211 749 197 746 211 b 701 176 704 211 701 197 b 725 142 701 156 704 142 z m 725 151 b 717 176 717 151 717 158 b 725 201 717 194 717 201 b 735 176 733 201 735 194 b 725 151 735 158 733 151 z m 133 625 l 146 625 l 151 650 l 158 650 b 164 642 163 650 164 647 l 161 631 b 161 625 160 628 160 626 l 175 625 b 174 635 172 626 172 631 b 168 653 176 649 176 653 b 182 668 174 656 181 660 b 168 683 183 678 178 683 l 146 683 z m 158 658 l 153 658 l 156 675 l 161 675 b 168 667 168 675 169 672 b 158 658 168 660 163 658 z m 271 540 l 278 540 l 279 576 l 286 540 l 292 540 l 303 576 l 301 540 l 308 540 l 307 583 l 296 583 l 289 551 l 281 583 l 271 583 z m 626 281 b 610 294 615 281 610 285 b 618 308 610 300 613 306 b 638 315 624 314 629 315 b 647 314 639 315 643 315 l 646 292 b 626 281 642 285 635 281 z m 201 624 b 225 642 213 624 224 628 b 217 657 226 649 225 653 l 208 661 b 204 669 204 664 203 665 b 213 676 206 674 206 676 b 218 667 217 676 218 674 l 228 667 l 231 668 b 215 685 232 681 225 685 b 192 668 203 685 196 681 b 203 650 190 658 193 653 b 211 640 211 647 213 644 b 203 632 213 635 207 632 b 199 642 196 632 197 635 l 197 643 l 186 643 l 185 640 b 201 624 182 631 186 624 z m 763 142 l 776 142 l 776 197 l 788 142 l 799 142 l 813 197 l 811 142 l 824 142 l 824 210 l 804 210 l 793 161 l 783 210 l 764 210 z m 14 747 l 15 747 l 83 833 l 14 833 z m 314 540 l 338 540 l 338 547 l 321 547 l 321 560 l 338 560 l 338 565 l 321 565 l 322 576 l 339 576 l 338 583 l 314 583 z m 621 268 b 646 278 632 268 642 272 b 656 283 650 281 653 281 b 663 292 660 285 664 289 l 663 324 b 654 351 664 335 660 344 b 632 360 650 357 642 358 b 604 342 626 360 608 347 b 604 339 601 336 604 339 b 628 344 611 343 618 344 b 646 325 642 344 646 339 b 636 326 643 325 640 326 b 606 317 624 326 613 324 b 596 294 599 311 594 303 b 601 275 594 286 597 281 b 621 268 607 269 614 268 z m 600 268 b 597 272 600 268 603 272 b 585 297 590 274 585 285 l 585 482 b 572 478 585 482 575 481 b 569 468 569 475 569 468 l 571 294 b 600 268 569 276 581 268 z m 344 540 l 351 540 l 351 558 l 356 558 b 363 551 361 558 364 557 b 364 543 364 549 363 547 b 364 540 364 542 365 542 l 372 540 b 371 543 372 542 369 542 b 369 553 369 547 371 550 b 364 561 369 558 368 561 b 369 572 368 561 369 567 b 360 583 369 581 365 583 l 344 583 z m 356 564 l 350 564 l 351 578 l 356 578 b 363 572 361 578 364 575 b 356 564 363 567 361 564 z m 249 624 b 278 656 268 624 272 636 b 263 685 282 672 282 685 b 236 656 246 685 242 672 b 249 624 232 636 232 624 z m 253 632 b 247 656 244 632 244 639 b 261 676 251 669 254 676 b 264 656 268 676 268 669 b 253 632 261 639 260 632 z m 389 540 b 403 556 401 540 403 547 l 397 556 b 389 544 396 551 396 544 b 383 561 385 544 383 549 b 389 578 383 575 385 578 b 397 569 394 578 397 575 l 404 569 b 390 583 403 575 403 583 b 376 561 379 583 378 576 b 389 540 376 547 379 540 z m 408 540 l 417 540 l 415 583 l 407 583 z m 282 625 l 293 625 l 301 667 l 308 625 l 321 625 l 335 683 l 322 683 l 314 643 l 308 683 l 294 683 z m 78 747 l 157 747 l 222 833 l 143 833 z m 419 540 l 426 540 l 429 550 l 442 550 l 444 540 l 451 540 l 439 583 l 431 583 z m 431 557 l 436 576 l 440 557 z m 597 406 l 594 403 b 649 425 615 411 628 415 b 657 433 651 425 654 431 b 664 439 660 433 665 439 l 611 418 b 601 410 608 417 604 414 b 597 406 600 410 594 406 z m 483 535 l 482 532 b 489 540 488 532 490 535 l 490 549 l 483 549 l 483 540 l 485 540 b 483 535 485 536 485 535 z m 454 540 l 478 540 l 478 547 l 461 547 l 461 583 l 454 583 z m 329 625 l 343 625 l 347 636 l 363 636 l 363 625 l 376 625 l 372 683 l 358 683 z m 351 647 l 364 674 l 364 647 z m 385 625 l 418 625 l 421 635 l 399 635 l 410 683 l 397 683 z m 510 540 l 517 540 l 517 558 l 522 558 b 535 569 531 558 533 564 b 522 583 535 578 531 583 l 510 583 z m 521 564 l 515 564 l 517 578 l 521 578 b 529 569 526 578 528 575 b 521 564 528 565 524 564 z m 539 540 l 563 540 l 563 547 l 546 547 l 546 583 l 539 583 z m 218 747 l 297 747 l 363 833 l 285 833 z m 568 540 l 592 540 l 592 547 l 575 547 l 575 560 l 590 560 l 589 565 l 575 565 l 575 576 l 592 576 l 590 583 l 568 583 z m 469 624 b 493 642 479 624 490 626 l 501 683 l 489 683 l 482 642 b 471 632 479 636 476 632 b 467 642 467 632 464 636 l 475 683 l 463 683 l 456 642 b 469 624 451 626 460 624 z m 593 540 l 600 540 l 604 550 l 615 550 l 618 540 l 625 540 l 614 583 l 604 583 z m 606 557 l 611 576 l 615 557 z m 515 624 b 542 642 529 624 539 628 b 533 657 543 649 542 653 l 525 661 b 521 669 519 664 519 665 b 529 676 522 674 522 676 b 533 667 533 676 535 674 l 544 667 l 546 668 b 529 685 549 681 542 685 b 508 668 519 685 513 681 b 519 650 507 658 510 653 b 528 640 528 647 529 644 b 519 632 529 635 524 632 b 514 642 513 632 514 635 l 514 643 l 501 643 l 501 640 b 515 624 499 631 503 624 z m 639 540 b 654 551 650 540 656 543 b 646 564 654 558 651 561 l 642 565 b 635 574 636 567 635 568 b 639 578 636 576 638 578 b 646 574 644 578 647 576 l 646 572 l 653 572 l 653 574 b 640 583 654 576 651 583 b 628 572 632 583 628 581 b 636 560 628 565 632 561 l 642 558 b 649 550 646 557 649 556 b 640 544 649 549 644 544 b 635 551 636 544 635 547 l 635 553 l 628 553 b 639 540 628 547 629 540 z m 661 540 l 685 540 l 685 547 l 668 547 l 668 560 l 683 560 l 683 565 l 668 565 l 669 576 l 683 576 l 682 583 l 661 583 z m 549 625 l 582 625 l 585 635 l 563 635 l 564 650 l 585 650 l 589 660 l 568 660 l 572 674 l 592 674 l 594 683 l 561 683 z m 360 747 l 438 747 l 504 833 l 425 833 z m 710 540 l 718 540 l 728 583 l 721 583 l 714 549 l 706 583 l 699 583 z m 731 540 l 738 540 l 738 583 l 731 583 z m 635 624 b 661 656 653 624 657 636 b 649 685 667 672 667 685 b 621 656 629 685 625 672 b 635 624 618 636 615 624 z m 636 632 b 632 656 629 632 629 639 b 646 676 636 669 639 676 b 649 656 653 676 653 669 b 636 632 646 639 644 632 z m 758 540 b 771 551 767 540 772 543 b 763 564 771 558 769 561 l 758 565 b 751 574 754 567 751 568 b 758 578 753 576 754 578 b 763 574 761 578 764 576 l 763 572 l 771 572 l 771 574 b 757 583 772 576 769 583 b 744 572 749 583 744 581 b 754 560 744 565 749 561 l 758 558 b 765 550 764 557 765 556 b 757 544 765 549 763 544 b 751 551 753 544 751 547 l 751 553 l 744 553 b 758 540 744 547 746 540 z m 778 540 l 785 540 l 785 583 l 778 583 z m 797 540 l 806 540 l 807 576 l 817 576 l 815 583 l 788 583 l 789 576 l 799 576 z m 667 625 l 678 625 l 686 667 l 693 625 l 707 625 l 719 683 l 708 683 l 700 643 l 693 683 l 679 683 z m 719 625 l 751 625 l 756 635 l 733 635 l 743 683 l 731 683 z m 499 747 l 579 747 l 644 833 l 564 833 z m 804 625 l 815 625 l 818 635 l 807 635 z m 765 625 l 778 625 l 783 649 l 806 683 l 793 683 l 781 661 l 776 683 l 763 683 l 771 649 z m 810 642 l 818 642 l 825 665 l 828 683 l 817 683 l 813 665 z m 639 747 l 719 747 l 785 833 l 706 833 z m 781 747 l 849 747 l 850 833 l 846 833 z "},"2":{"ha":864,"x_min":0,"x_max":0,"o":"m 210 367 b 224 375 214 368 222 372 b 226 385 226 378 226 382 b 221 390 225 386 221 389 l 222 392 l 224 392 b 483 456 256 400 442 435 b 496 461 489 457 493 460 l 501 467 b 499 467 503 468 501 468 b 233 403 451 447 265 414 b 224 397 228 401 226 399 l 215 390 b 217 381 213 386 213 383 b 215 372 219 376 218 374 b 210 368 214 372 211 369 b 210 367 210 368 208 367 z m 15 0 l 17 0 l 83 86 l 15 86 z m 78 0 l 158 0 l 224 86 l 144 86 z m 44 142 l 58 142 l 58 190 l 75 142 l 90 142 l 90 210 l 79 210 l 78 164 l 63 210 l 46 210 z m 101 142 l 117 142 l 118 157 l 136 157 l 140 142 l 154 142 l 138 210 l 121 210 z m 218 0 l 299 0 l 364 86 l 286 86 z m 121 168 l 128 199 l 135 168 z m 167 142 l 178 142 l 179 197 l 192 142 l 201 142 l 214 197 l 213 142 l 226 142 l 226 210 l 207 210 l 196 161 l 188 210 l 167 210 z m 243 142 l 282 142 l 281 153 l 256 153 l 256 172 l 279 172 l 281 183 l 257 183 l 256 199 l 279 199 l 281 210 l 243 210 z m 360 0 l 439 0 l 506 86 l 425 86 z m 294 142 l 333 142 l 333 153 l 308 153 l 308 210 l 296 210 z m 342 142 l 354 142 l 358 157 l 376 157 l 379 142 l 393 142 l 376 210 l 358 210 z m 361 168 l 365 199 l 368 199 l 374 168 z m 199 335 l 199 269 b 211 272 199 269 208 269 b 215 281 215 275 215 281 l 215 335 b 222 343 217 339 219 342 b 235 347 226 344 231 347 b 249 340 242 347 244 344 b 253 322 251 336 253 331 l 253 281 b 254 272 253 281 254 275 b 269 269 258 268 269 269 l 268 325 b 240 360 268 349 258 360 b 215 347 229 360 219 356 b 201 340 211 343 208 344 b 199 335 199 339 199 335 z m 500 0 l 581 0 l 646 86 l 565 86 z m 411 142 l 425 142 l 424 199 l 439 199 l 440 210 l 397 210 l 396 199 l 411 199 z m 308 281 b 292 294 299 281 292 285 b 300 308 292 300 294 306 b 321 315 306 314 313 315 b 331 314 322 315 325 315 l 329 292 b 308 281 322 285 317 281 z m 301 268 b 329 278 314 268 322 272 b 338 283 332 281 335 281 b 344 292 342 285 346 289 l 344 324 b 336 351 346 335 342 344 b 314 360 331 357 324 358 b 286 342 308 360 292 347 b 288 339 283 336 288 339 b 310 344 293 343 300 344 b 329 325 324 344 329 339 b 318 326 325 325 322 326 b 288 317 307 326 296 324 b 276 294 279 311 276 303 b 285 275 276 286 281 281 b 301 268 290 269 296 268 z m 465 142 l 478 142 l 478 168 l 497 210 l 482 210 l 472 183 l 464 210 l 449 210 l 465 168 z m 279 356 b 292 378 281 356 293 376 b 279 393 285 381 279 386 b 276 393 278 394 276 393 b 274 386 275 392 274 390 l 267 374 b 279 356 265 365 274 358 z m 508 142 l 521 142 l 522 169 l 531 169 b 551 190 542 169 551 176 b 532 210 551 200 547 210 l 508 210 z m 51 540 l 58 540 l 58 560 l 74 560 l 72 565 l 58 565 l 58 576 l 75 576 l 74 583 l 51 583 z m 528 181 l 521 181 l 521 200 l 528 200 b 538 190 535 200 538 197 b 528 181 538 183 533 181 z m 640 0 l 719 0 l 786 86 l 707 86 z m 93 540 b 107 561 103 540 107 547 b 93 583 107 576 103 583 b 78 561 82 583 79 576 b 93 540 78 547 83 540 z m 93 544 b 86 561 88 544 86 547 b 93 578 88 576 88 578 b 100 561 96 578 100 576 b 93 544 100 547 96 544 z m 356 269 b 367 272 356 269 364 269 b 369 281 371 275 369 281 l 371 335 b 378 343 371 339 374 340 b 389 347 382 344 385 347 b 400 343 393 347 396 344 b 404 332 403 340 404 336 l 406 269 b 417 272 406 269 414 269 b 422 281 421 276 422 281 l 422 335 b 428 343 421 339 425 340 b 439 347 432 344 435 347 b 457 325 450 347 457 340 l 457 281 b 458 274 457 281 457 275 b 472 269 463 269 472 269 l 472 328 b 465 351 471 339 471 347 b 443 360 460 357 451 360 b 428 357 439 360 433 358 b 418 349 424 353 419 351 b 392 360 413 356 406 360 b 369 349 383 360 374 356 b 357 339 367 343 360 342 l 356 333 z m 565 142 l 603 142 l 603 153 l 578 153 l 578 172 l 599 172 l 600 183 l 579 183 l 578 199 l 601 199 l 601 210 l 565 210 z m 617 142 l 629 142 l 631 157 l 617 157 z m 113 540 l 121 540 l 121 558 l 126 558 b 132 551 131 558 133 557 b 133 543 133 549 133 547 l 133 540 l 142 540 b 140 543 142 542 140 542 l 140 553 b 133 561 139 558 136 561 b 139 572 139 561 140 567 b 128 583 140 581 135 583 l 113 583 z m 125 564 l 121 564 l 121 578 l 126 578 b 133 572 131 578 133 575 b 125 564 133 567 129 564 z m 175 540 b 189 556 185 540 188 547 l 182 556 b 174 544 181 551 179 544 b 168 561 169 544 168 549 b 175 578 168 575 169 578 b 182 569 179 578 182 575 l 189 569 b 174 583 189 575 186 583 b 160 561 163 583 161 576 b 175 540 160 547 163 540 z m 42 625 l 54 625 l 60 649 l 67 649 b 89 667 76 649 86 653 b 76 683 89 675 88 683 l 54 683 z m 782 0 l 850 0 l 850 86 l 847 86 z m 67 657 l 61 657 l 64 675 l 69 675 b 76 667 76 675 78 672 b 67 657 75 660 71 657 z m 668 142 b 690 168 685 142 689 153 l 675 168 b 667 151 675 153 672 151 b 658 175 663 151 658 156 b 667 201 658 194 660 201 b 675 186 674 201 675 197 l 688 186 b 668 211 689 197 686 211 b 644 176 646 211 646 197 b 668 142 644 156 646 142 z m 206 540 b 222 561 217 540 221 547 b 206 583 222 576 215 583 b 193 561 196 583 194 576 b 206 540 193 547 196 540 z m 206 544 b 200 561 203 544 200 547 b 206 578 200 576 203 578 b 214 561 210 578 214 576 b 206 544 213 547 210 544 z m 513 269 b 542 282 518 268 532 276 b 542 285 544 283 547 289 b 524 282 535 283 531 282 b 506 289 517 282 510 283 b 496 311 499 293 497 301 l 560 311 b 561 322 560 315 561 318 b 549 349 561 333 557 342 b 522 360 543 357 533 360 b 493 349 510 360 501 356 b 481 314 485 339 481 326 b 493 281 479 299 483 289 b 513 269 499 275 504 269 z m 90 625 l 124 625 l 126 635 l 104 635 l 106 650 l 126 650 l 131 660 l 110 660 l 113 674 l 133 674 l 135 683 l 101 683 z m 544 324 l 496 324 b 506 340 496 331 500 335 b 522 347 508 344 515 347 b 540 340 531 347 535 343 b 544 324 544 335 544 331 z m 228 540 l 233 540 l 233 576 l 243 540 l 247 540 l 257 576 l 256 540 l 263 540 l 263 583 l 253 583 l 246 551 l 244 551 l 238 583 l 228 583 z m 725 142 b 749 176 746 142 749 156 b 724 211 749 197 746 211 b 701 176 704 211 701 197 b 725 142 701 156 704 142 z m 725 151 b 717 176 717 151 717 158 b 725 201 717 194 717 201 b 735 176 733 201 735 194 b 725 151 735 158 733 151 z m 133 625 l 146 625 l 151 650 l 158 650 b 164 642 163 650 164 647 l 161 631 b 161 625 160 628 160 626 l 175 625 b 174 635 172 626 172 631 b 168 653 176 649 176 653 b 182 668 174 656 181 660 b 168 683 183 678 178 683 l 146 683 z m 158 658 l 153 658 l 156 675 l 161 675 b 168 667 168 675 169 672 b 158 658 168 660 163 658 z m 271 540 l 278 540 l 279 576 l 286 540 l 292 540 l 303 576 l 301 540 l 308 540 l 307 583 l 296 583 l 289 551 l 281 583 l 271 583 z m 626 281 b 610 294 615 281 610 285 b 618 308 610 300 613 306 b 638 315 624 314 629 315 b 647 314 639 315 643 315 l 646 292 b 626 281 642 285 635 281 z m 201 624 b 225 642 213 624 224 628 b 217 657 226 649 225 653 l 208 661 b 204 669 204 664 203 665 b 213 676 206 674 206 676 b 218 667 217 676 218 674 l 228 667 l 231 668 b 215 685 232 681 225 685 b 192 668 203 685 196 681 b 203 650 190 658 193 653 b 211 640 211 647 213 644 b 203 632 213 635 207 632 b 199 642 196 632 197 635 l 197 643 l 186 643 l 185 640 b 201 624 182 631 186 624 z m 763 142 l 776 142 l 776 197 l 788 142 l 799 142 l 813 197 l 811 142 l 824 142 l 824 210 l 804 210 l 793 161 l 783 210 l 764 210 z m 14 747 l 15 747 l 83 833 l 14 833 z m 314 540 l 338 540 l 338 547 l 321 547 l 321 560 l 338 560 l 338 565 l 321 565 l 322 576 l 339 576 l 338 583 l 314 583 z m 621 268 b 646 278 632 268 642 272 b 656 283 650 281 653 281 b 663 292 660 285 664 289 l 663 324 b 654 351 664 335 660 344 b 632 360 650 357 642 358 b 604 342 626 360 608 347 b 604 339 601 336 604 339 b 628 344 611 343 618 344 b 646 325 642 344 646 339 b 636 326 643 325 640 326 b 606 317 624 326 613 324 b 596 294 599 311 594 303 b 601 275 594 286 597 281 b 621 268 607 269 614 268 z m 600 268 b 597 272 600 268 603 272 b 585 297 590 274 585 285 l 585 482 b 572 478 585 482 575 481 b 569 468 569 475 569 468 l 571 294 b 600 268 569 276 581 268 z m 344 540 l 351 540 l 351 558 l 356 558 b 363 551 361 558 364 557 b 364 543 364 549 363 547 b 364 540 364 542 365 542 l 372 540 b 371 543 372 542 369 542 b 369 553 369 547 371 550 b 364 561 369 558 368 561 b 369 572 368 561 369 567 b 360 583 369 581 365 583 l 344 583 z m 356 564 l 350 564 l 351 578 l 356 578 b 363 572 361 578 364 575 b 356 564 363 567 361 564 z m 249 624 b 278 656 268 624 272 636 b 263 685 282 672 282 685 b 236 656 246 685 242 672 b 249 624 232 636 232 624 z m 253 632 b 247 656 244 632 244 639 b 261 676 251 669 254 676 b 264 656 268 676 268 669 b 253 632 261 639 260 632 z m 389 540 b 403 556 401 540 403 547 l 397 556 b 389 544 396 551 396 544 b 383 561 385 544 383 549 b 389 578 383 575 385 578 b 397 569 394 578 397 575 l 404 569 b 390 583 403 575 403 583 b 376 561 379 583 378 576 b 389 540 376 547 379 540 z m 408 540 l 417 540 l 415 583 l 407 583 z m 282 625 l 293 625 l 301 667 l 308 625 l 321 625 l 335 683 l 322 683 l 314 643 l 308 683 l 294 683 z m 78 747 l 157 747 l 222 833 l 143 833 z m 419 540 l 426 540 l 429 550 l 442 550 l 444 540 l 451 540 l 439 583 l 431 583 z m 431 557 l 436 576 l 440 557 z m 597 406 l 594 403 b 649 425 615 411 628 415 b 657 433 651 425 654 431 b 664 439 660 433 665 439 l 611 418 b 601 410 608 417 604 414 b 597 406 600 410 594 406 z m 483 535 l 482 532 b 489 540 488 532 490 535 l 490 549 l 483 549 l 483 540 l 485 540 b 483 535 485 536 485 535 z m 454 540 l 478 540 l 478 547 l 461 547 l 461 583 l 454 583 z m 329 625 l 343 625 l 347 636 l 363 636 l 363 625 l 376 625 l 372 683 l 358 683 z m 351 647 l 364 674 l 364 647 z m 385 625 l 418 625 l 421 635 l 399 635 l 410 683 l 397 683 z m 510 540 l 517 540 l 517 558 l 522 558 b 535 569 531 558 533 564 b 522 583 535 578 531 583 l 510 583 z m 521 564 l 515 564 l 517 578 l 521 578 b 529 569 526 578 528 575 b 521 564 528 565 524 564 z m 539 540 l 563 540 l 563 547 l 546 547 l 546 583 l 539 583 z m 218 747 l 297 747 l 363 833 l 285 833 z m 568 540 l 592 540 l 592 547 l 575 547 l 575 560 l 590 560 l 589 565 l 575 565 l 575 576 l 592 576 l 590 583 l 568 583 z m 469 624 b 493 642 479 624 490 626 l 501 683 l 489 683 l 482 642 b 471 632 479 636 476 632 b 467 642 467 632 464 636 l 475 683 l 463 683 l 456 642 b 469 624 451 626 460 624 z m 593 540 l 600 540 l 604 550 l 615 550 l 618 540 l 625 540 l 614 583 l 604 583 z m 606 557 l 611 576 l 615 557 z m 515 624 b 542 642 529 624 539 628 b 533 657 543 649 542 653 l 525 661 b 521 669 519 664 519 665 b 529 676 522 674 522 676 b 533 667 533 676 535 674 l 544 667 l 546 668 b 529 685 549 681 542 685 b 508 668 519 685 513 681 b 519 650 507 658 510 653 b 528 640 528 647 529 644 b 519 632 529 635 524 632 b 514 642 513 632 514 635 l 514 643 l 501 643 l 501 640 b 515 624 499 631 503 624 z m 639 540 b 654 551 650 540 656 543 b 646 564 654 558 651 561 l 642 565 b 635 574 636 567 635 568 b 639 578 636 576 638 578 b 646 574 644 578 647 576 l 646 572 l 653 572 l 653 574 b 640 583 654 576 651 583 b 628 572 632 583 628 581 b 636 560 628 565 632 561 l 642 558 b 649 550 646 557 649 556 b 640 544 649 549 644 544 b 635 551 636 544 635 547 l 635 553 l 628 553 b 639 540 628 547 629 540 z m 661 540 l 685 540 l 685 547 l 668 547 l 668 560 l 683 560 l 683 565 l 668 565 l 669 576 l 683 576 l 682 583 l 661 583 z m 549 625 l 582 625 l 585 635 l 563 635 l 564 650 l 585 650 l 589 660 l 568 660 l 572 674 l 592 674 l 594 683 l 561 683 z m 360 747 l 438 747 l 504 833 l 425 833 z m 710 540 l 718 540 l 728 583 l 721 583 l 714 549 l 706 583 l 699 583 z m 731 540 l 738 540 l 738 583 l 731 583 z m 635 624 b 661 656 653 624 657 636 b 649 685 667 672 667 685 b 621 656 629 685 625 672 b 635 624 618 636 615 624 z m 636 632 b 632 656 629 632 629 639 b 646 676 636 669 639 676 b 649 656 653 676 653 669 b 636 632 646 639 644 632 z m 758 540 b 771 551 767 540 772 543 b 763 564 771 558 769 561 l 758 565 b 751 574 754 567 751 568 b 758 578 753 576 754 578 b 763 574 761 578 764 576 l 763 572 l 771 572 l 771 574 b 757 583 772 576 769 583 b 744 572 749 583 744 581 b 754 560 744 565 749 561 l 758 558 b 765 550 764 557 765 556 b 757 544 765 549 763 544 b 751 551 753 544 751 547 l 751 553 l 744 553 b 758 540 744 547 746 540 z m 778 540 l 785 540 l 785 583 l 778 583 z m 797 540 l 806 540 l 807 576 l 817 576 l 815 583 l 788 583 l 789 576 l 799 576 z m 667 625 l 678 625 l 686 667 l 693 625 l 707 625 l 719 683 l 708 683 l 700 643 l 693 683 l 679 683 z m 719 625 l 751 625 l 756 635 l 733 635 l 743 683 l 731 683 z m 499 747 l 579 747 l 644 833 l 564 833 z m 804 625 l 815 625 l 818 635 l 807 635 z m 765 625 l 778 625 l 783 649 l 806 683 l 793 683 l 781 661 l 776 683 l 763 683 l 771 649 z m 810 642 l 818 642 l 825 665 l 828 683 l 817 683 l 813 665 z m 639 747 l 719 747 l 785 833 l 706 833 z m 781 747 l 849 747 l 850 833 l 846 833 z "},"3":{"ha":864,"x_min":0,"x_max":0,"o":"m 210 367 b 224 375 214 368 222 372 b 226 385 226 378 226 382 b 221 390 225 386 221 389 l 222 392 l 224 392 b 483 456 256 400 442 435 b 496 461 489 457 493 460 l 501 467 b 499 467 503 468 501 468 b 233 403 451 447 265 414 b 224 397 228 401 226 399 l 215 390 b 217 381 213 386 213 383 b 215 372 219 376 218 374 b 210 368 214 372 211 369 b 210 367 210 368 208 367 z m 15 0 l 17 0 l 83 86 l 15 86 z m 78 0 l 158 0 l 224 86 l 144 86 z m 44 142 l 58 142 l 58 190 l 75 142 l 90 142 l 90 210 l 79 210 l 78 164 l 63 210 l 46 210 z m 101 142 l 117 142 l 118 157 l 136 157 l 140 142 l 154 142 l 138 210 l 121 210 z m 218 0 l 299 0 l 364 86 l 286 86 z m 121 168 l 128 199 l 135 168 z m 167 142 l 178 142 l 179 197 l 192 142 l 201 142 l 214 197 l 213 142 l 226 142 l 226 210 l 207 210 l 196 161 l 188 210 l 167 210 z m 243 142 l 282 142 l 281 153 l 256 153 l 256 172 l 279 172 l 281 183 l 257 183 l 256 199 l 279 199 l 281 210 l 243 210 z m 360 0 l 439 0 l 506 86 l 425 86 z m 294 142 l 333 142 l 333 153 l 308 153 l 308 210 l 296 210 z m 342 142 l 354 142 l 358 157 l 376 157 l 379 142 l 393 142 l 376 210 l 358 210 z m 361 168 l 365 199 l 368 199 l 374 168 z m 199 335 l 199 269 b 211 272 199 269 208 269 b 215 281 215 275 215 281 l 215 335 b 222 343 217 339 219 342 b 235 347 226 344 231 347 b 249 340 242 347 244 344 b 253 322 251 336 253 331 l 253 281 b 254 272 253 281 254 275 b 269 269 258 268 269 269 l 268 325 b 240 360 268 349 258 360 b 215 347 229 360 219 356 b 201 340 211 343 208 344 b 199 335 199 339 199 335 z m 500 0 l 581 0 l 646 86 l 565 86 z m 411 142 l 425 142 l 424 199 l 439 199 l 440 210 l 397 210 l 396 199 l 411 199 z m 308 281 b 292 294 299 281 292 285 b 300 308 292 300 294 306 b 321 315 306 314 313 315 b 331 314 322 315 325 315 l 329 292 b 308 281 322 285 317 281 z m 301 268 b 329 278 314 268 322 272 b 338 283 332 281 335 281 b 344 292 342 285 346 289 l 344 324 b 336 351 346 335 342 344 b 314 360 331 357 324 358 b 286 342 308 360 292 347 b 288 339 283 336 288 339 b 310 344 293 343 300 344 b 329 325 324 344 329 339 b 318 326 325 325 322 326 b 288 317 307 326 296 324 b 276 294 279 311 276 303 b 285 275 276 286 281 281 b 301 268 290 269 296 268 z m 465 142 l 478 142 l 478 168 l 497 210 l 482 210 l 472 183 l 464 210 l 449 210 l 465 168 z m 279 356 b 292 378 281 356 293 376 b 279 393 285 381 279 386 b 276 393 278 394 276 393 b 274 386 275 392 274 390 l 267 374 b 279 356 265 365 274 358 z m 508 142 l 521 142 l 522 169 l 531 169 b 551 190 542 169 551 176 b 532 210 551 200 547 210 l 508 210 z m 51 540 l 58 540 l 58 560 l 74 560 l 72 565 l 58 565 l 58 576 l 75 576 l 74 583 l 51 583 z m 528 181 l 521 181 l 521 200 l 528 200 b 538 190 535 200 538 197 b 528 181 538 183 533 181 z m 640 0 l 719 0 l 786 86 l 707 86 z m 93 540 b 107 561 103 540 107 547 b 93 583 107 576 103 583 b 78 561 82 583 79 576 b 93 540 78 547 83 540 z m 93 544 b 86 561 88 544 86 547 b 93 578 88 576 88 578 b 100 561 96 578 100 576 b 93 544 100 547 96 544 z m 356 269 b 367 272 356 269 364 269 b 369 281 371 275 369 281 l 371 335 b 378 343 371 339 374 340 b 389 347 382 344 385 347 b 400 343 393 347 396 344 b 404 332 403 340 404 336 l 406 269 b 417 272 406 269 414 269 b 422 281 421 276 422 281 l 422 335 b 428 343 421 339 425 340 b 439 347 432 344 435 347 b 457 325 450 347 457 340 l 457 281 b 458 274 457 281 457 275 b 472 269 463 269 472 269 l 472 328 b 465 351 471 339 471 347 b 443 360 460 357 451 360 b 428 357 439 360 433 358 b 418 349 424 353 419 351 b 392 360 413 356 406 360 b 369 349 383 360 374 356 b 357 339 367 343 360 342 l 356 333 z m 565 142 l 603 142 l 603 153 l 578 153 l 578 172 l 599 172 l 600 183 l 579 183 l 578 199 l 601 199 l 601 210 l 565 210 z m 617 142 l 629 142 l 631 157 l 617 157 z m 113 540 l 121 540 l 121 558 l 126 558 b 132 551 131 558 133 557 b 133 543 133 549 133 547 l 133 540 l 142 540 b 140 543 142 542 140 542 l 140 553 b 133 561 139 558 136 561 b 139 572 139 561 140 567 b 128 583 140 581 135 583 l 113 583 z m 125 564 l 121 564 l 121 578 l 126 578 b 133 572 131 578 133 575 b 125 564 133 567 129 564 z m 175 540 b 189 556 185 540 188 547 l 182 556 b 174 544 181 551 179 544 b 168 561 169 544 168 549 b 175 578 168 575 169 578 b 182 569 179 578 182 575 l 189 569 b 174 583 189 575 186 583 b 160 561 163 583 161 576 b 175 540 160 547 163 540 z m 42 625 l 54 625 l 60 649 l 67 649 b 89 667 76 649 86 653 b 76 683 89 675 88 683 l 54 683 z m 782 0 l 850 0 l 850 86 l 847 86 z m 67 657 l 61 657 l 64 675 l 69 675 b 76 667 76 675 78 672 b 67 657 75 660 71 657 z m 668 142 b 690 168 685 142 689 153 l 675 168 b 667 151 675 153 672 151 b 658 175 663 151 658 156 b 667 201 658 194 660 201 b 675 186 674 201 675 197 l 688 186 b 668 211 689 197 686 211 b 644 176 646 211 646 197 b 668 142 644 156 646 142 z m 206 540 b 222 561 217 540 221 547 b 206 583 222 576 215 583 b 193 561 196 583 194 576 b 206 540 193 547 196 540 z m 206 544 b 200 561 203 544 200 547 b 206 578 200 576 203 578 b 214 561 210 578 214 576 b 206 544 213 547 210 544 z m 513 269 b 542 282 518 268 532 276 b 542 285 544 283 547 289 b 524 282 535 283 531 282 b 506 289 517 282 510 283 b 496 311 499 293 497 301 l 560 311 b 561 322 560 315 561 318 b 549 349 561 333 557 342 b 522 360 543 357 533 360 b 493 349 510 360 501 356 b 481 314 485 339 481 326 b 493 281 479 299 483 289 b 513 269 499 275 504 269 z m 90 625 l 124 625 l 126 635 l 104 635 l 106 650 l 126 650 l 131 660 l 110 660 l 113 674 l 133 674 l 135 683 l 101 683 z m 544 324 l 496 324 b 506 340 496 331 500 335 b 522 347 508 344 515 347 b 540 340 531 347 535 343 b 544 324 544 335 544 331 z m 228 540 l 233 540 l 233 576 l 243 540 l 247 540 l 257 576 l 256 540 l 263 540 l 263 583 l 253 583 l 246 551 l 244 551 l 238 583 l 228 583 z m 725 142 b 749 176 746 142 749 156 b 724 211 749 197 746 211 b 701 176 704 211 701 197 b 725 142 701 156 704 142 z m 725 151 b 717 176 717 151 717 158 b 725 201 717 194 717 201 b 735 176 733 201 735 194 b 725 151 735 158 733 151 z m 133 625 l 146 625 l 151 650 l 158 650 b 164 642 163 650 164 647 l 161 631 b 161 625 160 628 160 626 l 175 625 b 174 635 172 626 172 631 b 168 653 176 649 176 653 b 182 668 174 656 181 660 b 168 683 183 678 178 683 l 146 683 z m 158 658 l 153 658 l 156 675 l 161 675 b 168 667 168 675 169 672 b 158 658 168 660 163 658 z m 271 540 l 278 540 l 279 576 l 286 540 l 292 540 l 303 576 l 301 540 l 308 540 l 307 583 l 296 583 l 289 551 l 281 583 l 271 583 z m 626 281 b 610 294 615 281 610 285 b 618 308 610 300 613 306 b 638 315 624 314 629 315 b 647 314 639 315 643 315 l 646 292 b 626 281 642 285 635 281 z m 201 624 b 225 642 213 624 224 628 b 217 657 226 649 225 653 l 208 661 b 204 669 204 664 203 665 b 213 676 206 674 206 676 b 218 667 217 676 218 674 l 228 667 l 231 668 b 215 685 232 681 225 685 b 192 668 203 685 196 681 b 203 650 190 658 193 653 b 211 640 211 647 213 644 b 203 632 213 635 207 632 b 199 642 196 632 197 635 l 197 643 l 186 643 l 185 640 b 201 624 182 631 186 624 z m 763 142 l 776 142 l 776 197 l 788 142 l 799 142 l 813 197 l 811 142 l 824 142 l 824 210 l 804 210 l 793 161 l 783 210 l 764 210 z m 14 747 l 15 747 l 83 833 l 14 833 z m 314 540 l 338 540 l 338 547 l 321 547 l 321 560 l 338 560 l 338 565 l 321 565 l 322 576 l 339 576 l 338 583 l 314 583 z m 621 268 b 646 278 632 268 642 272 b 656 283 650 281 653 281 b 663 292 660 285 664 289 l 663 324 b 654 351 664 335 660 344 b 632 360 650 357 642 358 b 604 342 626 360 608 347 b 604 339 601 336 604 339 b 628 344 611 343 618 344 b 646 325 642 344 646 339 b 636 326 643 325 640 326 b 606 317 624 326 613 324 b 596 294 599 311 594 303 b 601 275 594 286 597 281 b 621 268 607 269 614 268 z m 600 268 b 597 272 600 268 603 272 b 585 297 590 274 585 285 l 585 482 b 572 478 585 482 575 481 b 569 468 569 475 569 468 l 571 294 b 600 268 569 276 581 268 z m 344 540 l 351 540 l 351 558 l 356 558 b 363 551 361 558 364 557 b 364 543 364 549 363 547 b 364 540 364 542 365 542 l 372 540 b 371 543 372 542 369 542 b 369 553 369 547 371 550 b 364 561 369 558 368 561 b 369 572 368 561 369 567 b 360 583 369 581 365 583 l 344 583 z m 356 564 l 350 564 l 351 578 l 356 578 b 363 572 361 578 364 575 b 356 564 363 567 361 564 z m 249 624 b 278 656 268 624 272 636 b 263 685 282 672 282 685 b 236 656 246 685 242 672 b 249 624 232 636 232 624 z m 253 632 b 247 656 244 632 244 639 b 261 676 251 669 254 676 b 264 656 268 676 268 669 b 253 632 261 639 260 632 z m 389 540 b 403 556 401 540 403 547 l 397 556 b 389 544 396 551 396 544 b 383 561 385 544 383 549 b 389 578 383 575 385 578 b 397 569 394 578 397 575 l 404 569 b 390 583 403 575 403 583 b 376 561 379 583 378 576 b 389 540 376 547 379 540 z m 408 540 l 417 540 l 415 583 l 407 583 z m 282 625 l 293 625 l 301 667 l 308 625 l 321 625 l 335 683 l 322 683 l 314 643 l 308 683 l 294 683 z m 78 747 l 157 747 l 222 833 l 143 833 z m 419 540 l 426 540 l 429 550 l 442 550 l 444 540 l 451 540 l 439 583 l 431 583 z m 431 557 l 436 576 l 440 557 z m 597 406 l 594 403 b 649 425 615 411 628 415 b 657 433 651 425 654 431 b 664 439 660 433 665 439 l 611 418 b 601 410 608 417 604 414 b 597 406 600 410 594 406 z m 483 535 l 482 532 b 489 540 488 532 490 535 l 490 549 l 483 549 l 483 540 l 485 540 b 483 535 485 536 485 535 z m 454 540 l 478 540 l 478 547 l 461 547 l 461 583 l 454 583 z m 329 625 l 343 625 l 347 636 l 363 636 l 363 625 l 376 625 l 372 683 l 358 683 z m 351 647 l 364 674 l 364 647 z m 385 625 l 418 625 l 421 635 l 399 635 l 410 683 l 397 683 z m 510 540 l 517 540 l 517 558 l 522 558 b 535 569 531 558 533 564 b 522 583 535 578 531 583 l 510 583 z m 521 564 l 515 564 l 517 578 l 521 578 b 529 569 526 578 528 575 b 521 564 528 565 524 564 z m 539 540 l 563 540 l 563 547 l 546 547 l 546 583 l 539 583 z m 218 747 l 297 747 l 363 833 l 285 833 z m 568 540 l 592 540 l 592 547 l 575 547 l 575 560 l 590 560 l 589 565 l 575 565 l 575 576 l 592 576 l 590 583 l 568 583 z m 469 624 b 493 642 479 624 490 626 l 501 683 l 489 683 l 482 642 b 471 632 479 636 476 632 b 467 642 467 632 464 636 l 475 683 l 463 683 l 456 642 b 469 624 451 626 460 624 z m 593 540 l 600 540 l 604 550 l 615 550 l 618 540 l 625 540 l 614 583 l 604 583 z m 606 557 l 611 576 l 615 557 z m 515 624 b 542 642 529 624 539 628 b 533 657 543 649 542 653 l 525 661 b 521 669 519 664 519 665 b 529 676 522 674 522 676 b 533 667 533 676 535 674 l 544 667 l 546 668 b 529 685 549 681 542 685 b 508 668 519 685 513 681 b 519 650 507 658 510 653 b 528 640 528 647 529 644 b 519 632 529 635 524 632 b 514 642 513 632 514 635 l 514 643 l 501 643 l 501 640 b 515 624 499 631 503 624 z m 639 540 b 654 551 650 540 656 543 b 646 564 654 558 651 561 l 642 565 b 635 574 636 567 635 568 b 639 578 636 576 638 578 b 646 574 644 578 647 576 l 646 572 l 653 572 l 653 574 b 640 583 654 576 651 583 b 628 572 632 583 628 581 b 636 560 628 565 632 561 l 642 558 b 649 550 646 557 649 556 b 640 544 649 549 644 544 b 635 551 636 544 635 547 l 635 553 l 628 553 b 639 540 628 547 629 540 z m 661 540 l 685 540 l 685 547 l 668 547 l 668 560 l 683 560 l 683 565 l 668 565 l 669 576 l 683 576 l 682 583 l 661 583 z m 549 625 l 582 625 l 585 635 l 563 635 l 564 650 l 585 650 l 589 660 l 568 660 l 572 674 l 592 674 l 594 683 l 561 683 z m 360 747 l 438 747 l 504 833 l 425 833 z m 710 540 l 718 540 l 728 583 l 721 583 l 714 549 l 706 583 l 699 583 z m 731 540 l 738 540 l 738 583 l 731 583 z m 635 624 b 661 656 653 624 657 636 b 649 685 667 672 667 685 b 621 656 629 685 625 672 b 635 624 618 636 615 624 z m 636 632 b 632 656 629 632 629 639 b 646 676 636 669 639 676 b 649 656 653 676 653 669 b 636 632 646 639 644 632 z m 758 540 b 771 551 767 540 772 543 b 763 564 771 558 769 561 l 758 565 b 751 574 754 567 751 568 b 758 578 753 576 754 578 b 763 574 761 578 764 576 l 763 572 l 771 572 l 771 574 b 757 583 772 576 769 583 b 744 572 749 583 744 581 b 754 560 744 565 749 561 l 758 558 b 765 550 764 557 765 556 b 757 544 765 549 763 544 b 751 551 753 544 751 547 l 751 553 l 744 553 b 758 540 744 547 746 540 z m 778 540 l 785 540 l 785 583 l 778 583 z m 797 540 l 806 540 l 807 576 l 817 576 l 815 583 l 788 583 l 789 576 l 799 576 z m 667 625 l 678 625 l 686 667 l 693 625 l 707 625 l 719 683 l 708 683 l 700 643 l 693 683 l 679 683 z m 719 625 l 751 625 l 756 635 l 733 635 l 743 683 l 731 683 z m 499 747 l 579 747 l 644 833 l 564 833 z m 804 625 l 815 625 l 818 635 l 807 635 z m 765 625 l 778 625 l 783 649 l 806 683 l 793 683 l 781 661 l 776 683 l 763 683 l 771 649 z m 810 642 l 818 642 l 825 665 l 828 683 l 817 683 l 813 665 z m 639 747 l 719 747 l 785 833 l 706 833 z m 781 747 l 849 747 l 850 833 l 846 833 z "},"4":{"ha":864,"x_min":0,"x_max":0,"o":"m 210 367 b 224 375 214 368 222 372 b 226 385 226 378 226 382 b 221 390 225 386 221 389 l 222 392 l 224 392 b 483 456 256 400 442 435 b 496 461 489 457 493 460 l 501 467 b 499 467 503 468 501 468 b 233 403 451 447 265 414 b 224 397 228 401 226 399 l 215 390 b 217 381 213 386 213 383 b 215 372 219 376 218 374 b 210 368 214 372 211 369 b 210 367 210 368 208 367 z m 15 0 l 17 0 l 83 86 l 15 86 z m 78 0 l 158 0 l 224 86 l 144 86 z m 44 142 l 58 142 l 58 190 l 75 142 l 90 142 l 90 210 l 79 210 l 78 164 l 63 210 l 46 210 z m 101 142 l 117 142 l 118 157 l 136 157 l 140 142 l 154 142 l 138 210 l 121 210 z m 218 0 l 299 0 l 364 86 l 286 86 z m 121 168 l 128 199 l 135 168 z m 167 142 l 178 142 l 179 197 l 192 142 l 201 142 l 214 197 l 213 142 l 226 142 l 226 210 l 207 210 l 196 161 l 188 210 l 167 210 z m 243 142 l 282 142 l 281 153 l 256 153 l 256 172 l 279 172 l 281 183 l 257 183 l 256 199 l 279 199 l 281 210 l 243 210 z m 360 0 l 439 0 l 506 86 l 425 86 z m 294 142 l 333 142 l 333 153 l 308 153 l 308 210 l 296 210 z m 342 142 l 354 142 l 358 157 l 376 157 l 379 142 l 393 142 l 376 210 l 358 210 z m 361 168 l 365 199 l 368 199 l 374 168 z m 199 335 l 199 269 b 211 272 199 269 208 269 b 215 281 215 275 215 281 l 215 335 b 222 343 217 339 219 342 b 235 347 226 344 231 347 b 249 340 242 347 244 344 b 253 322 251 336 253 331 l 253 281 b 254 272 253 281 254 275 b 269 269 258 268 269 269 l 268 325 b 240 360 268 349 258 360 b 215 347 229 360 219 356 b 201 340 211 343 208 344 b 199 335 199 339 199 335 z m 500 0 l 581 0 l 646 86 l 565 86 z m 411 142 l 425 142 l 424 199 l 439 199 l 440 210 l 397 210 l 396 199 l 411 199 z m 308 281 b 292 294 299 281 292 285 b 300 308 292 300 294 306 b 321 315 306 314 313 315 b 331 314 322 315 325 315 l 329 292 b 308 281 322 285 317 281 z m 301 268 b 329 278 314 268 322 272 b 338 283 332 281 335 281 b 344 292 342 285 346 289 l 344 324 b 336 351 346 335 342 344 b 314 360 331 357 324 358 b 286 342 308 360 292 347 b 288 339 283 336 288 339 b 310 344 293 343 300 344 b 329 325 324 344 329 339 b 318 326 325 325 322 326 b 288 317 307 326 296 324 b 276 294 279 311 276 303 b 285 275 276 286 281 281 b 301 268 290 269 296 268 z m 465 142 l 478 142 l 478 168 l 497 210 l 482 210 l 472 183 l 464 210 l 449 210 l 465 168 z m 279 356 b 292 378 281 356 293 376 b 279 393 285 381 279 386 b 276 393 278 394 276 393 b 274 386 275 392 274 390 l 267 374 b 279 356 265 365 274 358 z m 508 142 l 521 142 l 522 169 l 531 169 b 551 190 542 169 551 176 b 532 210 551 200 547 210 l 508 210 z m 51 540 l 58 540 l 58 560 l 74 560 l 72 565 l 58 565 l 58 576 l 75 576 l 74 583 l 51 583 z m 528 181 l 521 181 l 521 200 l 528 200 b 538 190 535 200 538 197 b 528 181 538 183 533 181 z m 640 0 l 719 0 l 786 86 l 707 86 z m 93 540 b 107 561 103 540 107 547 b 93 583 107 576 103 583 b 78 561 82 583 79 576 b 93 540 78 547 83 540 z m 93 544 b 86 561 88 544 86 547 b 93 578 88 576 88 578 b 100 561 96 578 100 576 b 93 544 100 547 96 544 z m 356 269 b 367 272 356 269 364 269 b 369 281 371 275 369 281 l 371 335 b 378 343 371 339 374 340 b 389 347 382 344 385 347 b 400 343 393 347 396 344 b 404 332 403 340 404 336 l 406 269 b 417 272 406 269 414 269 b 422 281 421 276 422 281 l 422 335 b 428 343 421 339 425 340 b 439 347 432 344 435 347 b 457 325 450 347 457 340 l 457 281 b 458 274 457 281 457 275 b 472 269 463 269 472 269 l 472 328 b 465 351 471 339 471 347 b 443 360 460 357 451 360 b 428 357 439 360 433 358 b 418 349 424 353 419 351 b 392 360 413 356 406 360 b 369 349 383 360 374 356 b 357 339 367 343 360 342 l 356 333 z m 565 142 l 603 142 l 603 153 l 578 153 l 578 172 l 599 172 l 600 183 l 579 183 l 578 199 l 601 199 l 601 210 l 565 210 z m 617 142 l 629 142 l 631 157 l 617 157 z m 113 540 l 121 540 l 121 558 l 126 558 b 132 551 131 558 133 557 b 133 543 133 549 133 547 l 133 540 l 142 540 b 140 543 142 542 140 542 l 140 553 b 133 561 139 558 136 561 b 139 572 139 561 140 567 b 128 583 140 581 135 583 l 113 583 z m 125 564 l 121 564 l 121 578 l 126 578 b 133 572 131 578 133 575 b 125 564 133 567 129 564 z m 175 540 b 189 556 185 540 188 547 l 182 556 b 174 544 181 551 179 544 b 168 561 169 544 168 549 b 175 578 168 575 169 578 b 182 569 179 578 182 575 l 189 569 b 174 583 189 575 186 583 b 160 561 163 583 161 576 b 175 540 160 547 163 540 z m 42 625 l 54 625 l 60 649 l 67 649 b 89 667 76 649 86 653 b 76 683 89 675 88 683 l 54 683 z m 782 0 l 850 0 l 850 86 l 847 86 z m 67 657 l 61 657 l 64 675 l 69 675 b 76 667 76 675 78 672 b 67 657 75 660 71 657 z m 668 142 b 690 168 685 142 689 153 l 675 168 b 667 151 675 153 672 151 b 658 175 663 151 658 156 b 667 201 658 194 660 201 b 675 186 674 201 675 197 l 688 186 b 668 211 689 197 686 211 b 644 176 646 211 646 197 b 668 142 644 156 646 142 z m 206 540 b 222 561 217 540 221 547 b 206 583 222 576 215 583 b 193 561 196 583 194 576 b 206 540 193 547 196 540 z m 206 544 b 200 561 203 544 200 547 b 206 578 200 576 203 578 b 214 561 210 578 214 576 b 206 544 213 547 210 544 z m 513 269 b 542 282 518 268 532 276 b 542 285 544 283 547 289 b 524 282 535 283 531 282 b 506 289 517 282 510 283 b 496 311 499 293 497 301 l 560 311 b 561 322 560 315 561 318 b 549 349 561 333 557 342 b 522 360 543 357 533 360 b 493 349 510 360 501 356 b 481 314 485 339 481 326 b 493 281 479 299 483 289 b 513 269 499 275 504 269 z m 90 625 l 124 625 l 126 635 l 104 635 l 106 650 l 126 650 l 131 660 l 110 660 l 113 674 l 133 674 l 135 683 l 101 683 z m 544 324 l 496 324 b 506 340 496 331 500 335 b 522 347 508 344 515 347 b 540 340 531 347 535 343 b 544 324 544 335 544 331 z m 228 540 l 233 540 l 233 576 l 243 540 l 247 540 l 257 576 l 256 540 l 263 540 l 263 583 l 253 583 l 246 551 l 244 551 l 238 583 l 228 583 z m 725 142 b 749 176 746 142 749 156 b 724 211 749 197 746 211 b 701 176 704 211 701 197 b 725 142 701 156 704 142 z m 725 151 b 717 176 717 151 717 158 b 725 201 717 194 717 201 b 735 176 733 201 735 194 b 725 151 735 158 733 151 z m 133 625 l 146 625 l 151 650 l 158 650 b 164 642 163 650 164 647 l 161 631 b 161 625 160 628 160 626 l 175 625 b 174 635 172 626 172 631 b 168 653 176 649 176 653 b 182 668 174 656 181 660 b 168 683 183 678 178 683 l 146 683 z m 158 658 l 153 658 l 156 675 l 161 675 b 168 667 168 675 169 672 b 158 658 168 660 163 658 z m 271 540 l 278 540 l 279 576 l 286 540 l 292 540 l 303 576 l 301 540 l 308 540 l 307 583 l 296 583 l 289 551 l 281 583 l 271 583 z m 626 281 b 610 294 615 281 610 285 b 618 308 610 300 613 306 b 638 315 624 314 629 315 b 647 314 639 315 643 315 l 646 292 b 626 281 642 285 635 281 z m 201 624 b 225 642 213 624 224 628 b 217 657 226 649 225 653 l 208 661 b 204 669 204 664 203 665 b 213 676 206 674 206 676 b 218 667 217 676 218 674 l 228 667 l 231 668 b 215 685 232 681 225 685 b 192 668 203 685 196 681 b 203 650 190 658 193 653 b 211 640 211 647 213 644 b 203 632 213 635 207 632 b 199 642 196 632 197 635 l 197 643 l 186 643 l 185 640 b 201 624 182 631 186 624 z m 763 142 l 776 142 l 776 197 l 788 142 l 799 142 l 813 197 l 811 142 l 824 142 l 824 210 l 804 210 l 793 161 l 783 210 l 764 210 z m 14 747 l 15 747 l 83 833 l 14 833 z m 314 540 l 338 540 l 338 547 l 321 547 l 321 560 l 338 560 l 338 565 l 321 565 l 322 576 l 339 576 l 338 583 l 314 583 z m 621 268 b 646 278 632 268 642 272 b 656 283 650 281 653 281 b 663 292 660 285 664 289 l 663 324 b 654 351 664 335 660 344 b 632 360 650 357 642 358 b 604 342 626 360 608 347 b 604 339 601 336 604 339 b 628 344 611 343 618 344 b 646 325 642 344 646 339 b 636 326 643 325 640 326 b 606 317 624 326 613 324 b 596 294 599 311 594 303 b 601 275 594 286 597 281 b 621 268 607 269 614 268 z m 600 268 b 597 272 600 268 603 272 b 585 297 590 274 585 285 l 585 482 b 572 478 585 482 575 481 b 569 468 569 475 569 468 l 571 294 b 600 268 569 276 581 268 z m 344 540 l 351 540 l 351 558 l 356 558 b 363 551 361 558 364 557 b 364 543 364 549 363 547 b 364 540 364 542 365 542 l 372 540 b 371 543 372 542 369 542 b 369 553 369 547 371 550 b 364 561 369 558 368 561 b 369 572 368 561 369 567 b 360 583 369 581 365 583 l 344 583 z m 356 564 l 350 564 l 351 578 l 356 578 b 363 572 361 578 364 575 b 356 564 363 567 361 564 z m 249 624 b 278 656 268 624 272 636 b 263 685 282 672 282 685 b 236 656 246 685 242 672 b 249 624 232 636 232 624 z m 253 632 b 247 656 244 632 244 639 b 261 676 251 669 254 676 b 264 656 268 676 268 669 b 253 632 261 639 260 632 z m 389 540 b 403 556 401 540 403 547 l 397 556 b 389 544 396 551 396 544 b 383 561 385 544 383 549 b 389 578 383 575 385 578 b 397 569 394 578 397 575 l 404 569 b 390 583 403 575 403 583 b 376 561 379 583 378 576 b 389 540 376 547 379 540 z m 408 540 l 417 540 l 415 583 l 407 583 z m 282 625 l 293 625 l 301 667 l 308 625 l 321 625 l 335 683 l 322 683 l 314 643 l 308 683 l 294 683 z m 78 747 l 157 747 l 222 833 l 143 833 z m 419 540 l 426 540 l 429 550 l 442 550 l 444 540 l 451 540 l 439 583 l 431 583 z m 431 557 l 436 576 l 440 557 z m 597 406 l 594 403 b 649 425 615 411 628 415 b 657 433 651 425 654 431 b 664 439 660 433 665 439 l 611 418 b 601 410 608 417 604 414 b 597 406 600 410 594 406 z m 483 535 l 482 532 b 489 540 488 532 490 535 l 490 549 l 483 549 l 483 540 l 485 540 b 483 535 485 536 485 535 z m 454 540 l 478 540 l 478 547 l 461 547 l 461 583 l 454 583 z m 329 625 l 343 625 l 347 636 l 363 636 l 363 625 l 376 625 l 372 683 l 358 683 z m 351 647 l 364 674 l 364 647 z m 385 625 l 418 625 l 421 635 l 399 635 l 410 683 l 397 683 z m 510 540 l 517 540 l 517 558 l 522 558 b 535 569 531 558 533 564 b 522 583 535 578 531 583 l 510 583 z m 521 564 l 515 564 l 517 578 l 521 578 b 529 569 526 578 528 575 b 521 564 528 565 524 564 z m 539 540 l 563 540 l 563 547 l 546 547 l 546 583 l 539 583 z m 218 747 l 297 747 l 363 833 l 285 833 z m 568 540 l 592 540 l 592 547 l 575 547 l 575 560 l 590 560 l 589 565 l 575 565 l 575 576 l 592 576 l 590 583 l 568 583 z m 469 624 b 493 642 479 624 490 626 l 501 683 l 489 683 l 482 642 b 471 632 479 636 476 632 b 467 642 467 632 464 636 l 475 683 l 463 683 l 456 642 b 469 624 451 626 460 624 z m 593 540 l 600 540 l 604 550 l 615 550 l 618 540 l 625 540 l 614 583 l 604 583 z m 606 557 l 611 576 l 615 557 z m 515 624 b 542 642 529 624 539 628 b 533 657 543 649 542 653 l 525 661 b 521 669 519 664 519 665 b 529 676 522 674 522 676 b 533 667 533 676 535 674 l 544 667 l 546 668 b 529 685 549 681 542 685 b 508 668 519 685 513 681 b 519 650 507 658 510 653 b 528 640 528 647 529 644 b 519 632 529 635 524 632 b 514 642 513 632 514 635 l 514 643 l 501 643 l 501 640 b 515 624 499 631 503 624 z m 639 540 b 654 551 650 540 656 543 b 646 564 654 558 651 561 l 642 565 b 635 574 636 567 635 568 b 639 578 636 576 638 578 b 646 574 644 578 647 576 l 646 572 l 653 572 l 653 574 b 640 583 654 576 651 583 b 628 572 632 583 628 581 b 636 560 628 565 632 561 l 642 558 b 649 550 646 557 649 556 b 640 544 649 549 644 544 b 635 551 636 544 635 547 l 635 553 l 628 553 b 639 540 628 547 629 540 z m 661 540 l 685 540 l 685 547 l 668 547 l 668 560 l 683 560 l 683 565 l 668 565 l 669 576 l 683 576 l 682 583 l 661 583 z m 549 625 l 582 625 l 585 635 l 563 635 l 564 650 l 585 650 l 589 660 l 568 660 l 572 674 l 592 674 l 594 683 l 561 683 z m 360 747 l 438 747 l 504 833 l 425 833 z m 710 540 l 718 540 l 728 583 l 721 583 l 714 549 l 706 583 l 699 583 z m 731 540 l 738 540 l 738 583 l 731 583 z m 635 624 b 661 656 653 624 657 636 b 649 685 667 672 667 685 b 621 656 629 685 625 672 b 635 624 618 636 615 624 z m 636 632 b 632 656 629 632 629 639 b 646 676 636 669 639 676 b 649 656 653 676 653 669 b 636 632 646 639 644 632 z m 758 540 b 771 551 767 540 772 543 b 763 564 771 558 769 561 l 758 565 b 751 574 754 567 751 568 b 758 578 753 576 754 578 b 763 574 761 578 764 576 l 763 572 l 771 572 l 771 574 b 757 583 772 576 769 583 b 744 572 749 583 744 581 b 754 560 744 565 749 561 l 758 558 b 765 550 764 557 765 556 b 757 544 765 549 763 544 b 751 551 753 544 751 547 l 751 553 l 744 553 b 758 540 744 547 746 540 z m 778 540 l 785 540 l 785 583 l 778 583 z m 797 540 l 806 540 l 807 576 l 817 576 l 815 583 l 788 583 l 789 576 l 799 576 z m 667 625 l 678 625 l 686 667 l 693 625 l 707 625 l 719 683 l 708 683 l 700 643 l 693 683 l 679 683 z m 719 625 l 751 625 l 756 635 l 733 635 l 743 683 l 731 683 z m 499 747 l 579 747 l 644 833 l 564 833 z m 804 625 l 815 625 l 818 635 l 807 635 z m 765 625 l 778 625 l 783 649 l 806 683 l 793 683 l 781 661 l 776 683 l 763 683 l 771 649 z m 810 642 l 818 642 l 825 665 l 828 683 l 817 683 l 813 665 z m 639 747 l 719 747 l 785 833 l 706 833 z m 781 747 l 849 747 l 850 833 l 846 833 z "},"5":{"ha":864,"x_min":0,"x_max":0,"o":"m 210 367 b 224 375 214 368 222 372 b 226 385 226 378 226 382 b 221 390 225 386 221 389 l 222 392 l 224 392 b 483 456 256 400 442 435 b 496 461 489 457 493 460 l 501 467 b 499 467 503 468 501 468 b 233 403 451 447 265 414 b 224 397 228 401 226 399 l 215 390 b 217 381 213 386 213 383 b 215 372 219 376 218 374 b 210 368 214 372 211 369 b 210 367 210 368 208 367 z m 15 0 l 17 0 l 83 86 l 15 86 z m 78 0 l 158 0 l 224 86 l 144 86 z m 44 142 l 58 142 l 58 190 l 75 142 l 90 142 l 90 210 l 79 210 l 78 164 l 63 210 l 46 210 z m 101 142 l 117 142 l 118 157 l 136 157 l 140 142 l 154 142 l 138 210 l 121 210 z m 218 0 l 299 0 l 364 86 l 286 86 z m 121 168 l 128 199 l 135 168 z m 167 142 l 178 142 l 179 197 l 192 142 l 201 142 l 214 197 l 213 142 l 226 142 l 226 210 l 207 210 l 196 161 l 188 210 l 167 210 z m 243 142 l 282 142 l 281 153 l 256 153 l 256 172 l 279 172 l 281 183 l 257 183 l 256 199 l 279 199 l 281 210 l 243 210 z m 360 0 l 439 0 l 506 86 l 425 86 z m 294 142 l 333 142 l 333 153 l 308 153 l 308 210 l 296 210 z m 342 142 l 354 142 l 358 157 l 376 157 l 379 142 l 393 142 l 376 210 l 358 210 z m 361 168 l 365 199 l 368 199 l 374 168 z m 199 335 l 199 269 b 211 272 199 269 208 269 b 215 281 215 275 215 281 l 215 335 b 222 343 217 339 219 342 b 235 347 226 344 231 347 b 249 340 242 347 244 344 b 253 322 251 336 253 331 l 253 281 b 254 272 253 281 254 275 b 269 269 258 268 269 269 l 268 325 b 240 360 268 349 258 360 b 215 347 229 360 219 356 b 201 340 211 343 208 344 b 199 335 199 339 199 335 z m 500 0 l 581 0 l 646 86 l 565 86 z m 411 142 l 425 142 l 424 199 l 439 199 l 440 210 l 397 210 l 396 199 l 411 199 z m 308 281 b 292 294 299 281 292 285 b 300 308 292 300 294 306 b 321 315 306 314 313 315 b 331 314 322 315 325 315 l 329 292 b 308 281 322 285 317 281 z m 301 268 b 329 278 314 268 322 272 b 338 283 332 281 335 281 b 344 292 342 285 346 289 l 344 324 b 336 351 346 335 342 344 b 314 360 331 357 324 358 b 286 342 308 360 292 347 b 288 339 283 336 288 339 b 310 344 293 343 300 344 b 329 325 324 344 329 339 b 318 326 325 325 322 326 b 288 317 307 326 296 324 b 276 294 279 311 276 303 b 285 275 276 286 281 281 b 301 268 290 269 296 268 z m 465 142 l 478 142 l 478 168 l 497 210 l 482 210 l 472 183 l 464 210 l 449 210 l 465 168 z m 279 356 b 292 378 281 356 293 376 b 279 393 285 381 279 386 b 276 393 278 394 276 393 b 274 386 275 392 274 390 l 267 374 b 279 356 265 365 274 358 z m 508 142 l 521 142 l 522 169 l 531 169 b 551 190 542 169 551 176 b 532 210 551 200 547 210 l 508 210 z m 51 540 l 58 540 l 58 560 l 74 560 l 72 565 l 58 565 l 58 576 l 75 576 l 74 583 l 51 583 z m 528 181 l 521 181 l 521 200 l 528 200 b 538 190 535 200 538 197 b 528 181 538 183 533 181 z m 640 0 l 719 0 l 786 86 l 707 86 z m 93 540 b 107 561 103 540 107 547 b 93 583 107 576 103 583 b 78 561 82 583 79 576 b 93 540 78 547 83 540 z m 93 544 b 86 561 88 544 86 547 b 93 578 88 576 88 578 b 100 561 96 578 100 576 b 93 544 100 547 96 544 z m 356 269 b 367 272 356 269 364 269 b 369 281 371 275 369 281 l 371 335 b 378 343 371 339 374 340 b 389 347 382 344 385 347 b 400 343 393 347 396 344 b 404 332 403 340 404 336 l 406 269 b 417 272 406 269 414 269 b 422 281 421 276 422 281 l 422 335 b 428 343 421 339 425 340 b 439 347 432 344 435 347 b 457 325 450 347 457 340 l 457 281 b 458 274 457 281 457 275 b 472 269 463 269 472 269 l 472 328 b 465 351 471 339 471 347 b 443 360 460 357 451 360 b 428 357 439 360 433 358 b 418 349 424 353 419 351 b 392 360 413 356 406 360 b 369 349 383 360 374 356 b 357 339 367 343 360 342 l 356 333 z m 565 142 l 603 142 l 603 153 l 578 153 l 578 172 l 599 172 l 600 183 l 579 183 l 578 199 l 601 199 l 601 210 l 565 210 z m 617 142 l 629 142 l 631 157 l 617 157 z m 113 540 l 121 540 l 121 558 l 126 558 b 132 551 131 558 133 557 b 133 543 133 549 133 547 l 133 540 l 142 540 b 140 543 142 542 140 542 l 140 553 b 133 561 139 558 136 561 b 139 572 139 561 140 567 b 128 583 140 581 135 583 l 113 583 z m 125 564 l 121 564 l 121 578 l 126 578 b 133 572 131 578 133 575 b 125 564 133 567 129 564 z m 175 540 b 189 556 185 540 188 547 l 182 556 b 174 544 181 551 179 544 b 168 561 169 544 168 549 b 175 578 168 575 169 578 b 182 569 179 578 182 575 l 189 569 b 174 583 189 575 186 583 b 160 561 163 583 161 576 b 175 540 160 547 163 540 z m 42 625 l 54 625 l 60 649 l 67 649 b 89 667 76 649 86 653 b 76 683 89 675 88 683 l 54 683 z m 782 0 l 850 0 l 850 86 l 847 86 z m 67 657 l 61 657 l 64 675 l 69 675 b 76 667 76 675 78 672 b 67 657 75 660 71 657 z m 668 142 b 690 168 685 142 689 153 l 675 168 b 667 151 675 153 672 151 b 658 175 663 151 658 156 b 667 201 658 194 660 201 b 675 186 674 201 675 197 l 688 186 b 668 211 689 197 686 211 b 644 176 646 211 646 197 b 668 142 644 156 646 142 z m 206 540 b 222 561 217 540 221 547 b 206 583 222 576 215 583 b 193 561 196 583 194 576 b 206 540 193 547 196 540 z m 206 544 b 200 561 203 544 200 547 b 206 578 200 576 203 578 b 214 561 210 578 214 576 b 206 544 213 547 210 544 z m 513 269 b 542 282 518 268 532 276 b 542 285 544 283 547 289 b 524 282 535 283 531 282 b 506 289 517 282 510 283 b 496 311 499 293 497 301 l 560 311 b 561 322 560 315 561 318 b 549 349 561 333 557 342 b 522 360 543 357 533 360 b 493 349 510 360 501 356 b 481 314 485 339 481 326 b 493 281 479 299 483 289 b 513 269 499 275 504 269 z m 90 625 l 124 625 l 126 635 l 104 635 l 106 650 l 126 650 l 131 660 l 110 660 l 113 674 l 133 674 l 135 683 l 101 683 z m 544 324 l 496 324 b 506 340 496 331 500 335 b 522 347 508 344 515 347 b 540 340 531 347 535 343 b 544 324 544 335 544 331 z m 228 540 l 233 540 l 233 576 l 243 540 l 247 540 l 257 576 l 256 540 l 263 540 l 263 583 l 253 583 l 246 551 l 244 551 l 238 583 l 228 583 z m 725 142 b 749 176 746 142 749 156 b 724 211 749 197 746 211 b 701 176 704 211 701 197 b 725 142 701 156 704 142 z m 725 151 b 717 176 717 151 717 158 b 725 201 717 194 717 201 b 735 176 733 201 735 194 b 725 151 735 158 733 151 z m 133 625 l 146 625 l 151 650 l 158 650 b 164 642 163 650 164 647 l 161 631 b 161 625 160 628 160 626 l 175 625 b 174 635 172 626 172 631 b 168 653 176 649 176 653 b 182 668 174 656 181 660 b 168 683 183 678 178 683 l 146 683 z m 158 658 l 153 658 l 156 675 l 161 675 b 168 667 168 675 169 672 b 158 658 168 660 163 658 z m 271 540 l 278 540 l 279 576 l 286 540 l 292 540 l 303 576 l 301 540 l 308 540 l 307 583 l 296 583 l 289 551 l 281 583 l 271 583 z m 626 281 b 610 294 615 281 610 285 b 618 308 610 300 613 306 b 638 315 624 314 629 315 b 647 314 639 315 643 315 l 646 292 b 626 281 642 285 635 281 z m 201 624 b 225 642 213 624 224 628 b 217 657 226 649 225 653 l 208 661 b 204 669 204 664 203 665 b 213 676 206 674 206 676 b 218 667 217 676 218 674 l 228 667 l 231 668 b 215 685 232 681 225 685 b 192 668 203 685 196 681 b 203 650 190 658 193 653 b 211 640 211 647 213 644 b 203 632 213 635 207 632 b 199 642 196 632 197 635 l 197 643 l 186 643 l 185 640 b 201 624 182 631 186 624 z m 763 142 l 776 142 l 776 197 l 788 142 l 799 142 l 813 197 l 811 142 l 824 142 l 824 210 l 804 210 l 793 161 l 783 210 l 764 210 z m 14 747 l 15 747 l 83 833 l 14 833 z m 314 540 l 338 540 l 338 547 l 321 547 l 321 560 l 338 560 l 338 565 l 321 565 l 322 576 l 339 576 l 338 583 l 314 583 z m 621 268 b 646 278 632 268 642 272 b 656 283 650 281 653 281 b 663 292 660 285 664 289 l 663 324 b 654 351 664 335 660 344 b 632 360 650 357 642 358 b 604 342 626 360 608 347 b 604 339 601 336 604 339 b 628 344 611 343 618 344 b 646 325 642 344 646 339 b 636 326 643 325 640 326 b 606 317 624 326 613 324 b 596 294 599 311 594 303 b 601 275 594 286 597 281 b 621 268 607 269 614 268 z m 600 268 b 597 272 600 268 603 272 b 585 297 590 274 585 285 l 585 482 b 572 478 585 482 575 481 b 569 468 569 475 569 468 l 571 294 b 600 268 569 276 581 268 z m 344 540 l 351 540 l 351 558 l 356 558 b 363 551 361 558 364 557 b 364 543 364 549 363 547 b 364 540 364 542 365 542 l 372 540 b 371 543 372 542 369 542 b 369 553 369 547 371 550 b 364 561 369 558 368 561 b 369 572 368 561 369 567 b 360 583 369 581 365 583 l 344 583 z m 356 564 l 350 564 l 351 578 l 356 578 b 363 572 361 578 364 575 b 356 564 363 567 361 564 z m 249 624 b 278 656 268 624 272 636 b 263 685 282 672 282 685 b 236 656 246 685 242 672 b 249 624 232 636 232 624 z m 253 632 b 247 656 244 632 244 639 b 261 676 251 669 254 676 b 264 656 268 676 268 669 b 253 632 261 639 260 632 z m 389 540 b 403 556 401 540 403 547 l 397 556 b 389 544 396 551 396 544 b 383 561 385 544 383 549 b 389 578 383 575 385 578 b 397 569 394 578 397 575 l 404 569 b 390 583 403 575 403 583 b 376 561 379 583 378 576 b 389 540 376 547 379 540 z m 408 540 l 417 540 l 415 583 l 407 583 z m 282 625 l 293 625 l 301 667 l 308 625 l 321 625 l 335 683 l 322 683 l 314 643 l 308 683 l 294 683 z m 78 747 l 157 747 l 222 833 l 143 833 z m 419 540 l 426 540 l 429 550 l 442 550 l 444 540 l 451 540 l 439 583 l 431 583 z m 431 557 l 436 576 l 440 557 z m 597 406 l 594 403 b 649 425 615 411 628 415 b 657 433 651 425 654 431 b 664 439 660 433 665 439 l 611 418 b 601 410 608 417 604 414 b 597 406 600 410 594 406 z m 483 535 l 482 532 b 489 540 488 532 490 535 l 490 549 l 483 549 l 483 540 l 485 540 b 483 535 485 536 485 535 z m 454 540 l 478 540 l 478 547 l 461 547 l 461 583 l 454 583 z m 329 625 l 343 625 l 347 636 l 363 636 l 363 625 l 376 625 l 372 683 l 358 683 z m 351 647 l 364 674 l 364 647 z m 385 625 l 418 625 l 421 635 l 399 635 l 410 683 l 397 683 z m 510 540 l 517 540 l 517 558 l 522 558 b 535 569 531 558 533 564 b 522 583 535 578 531 583 l 510 583 z m 521 564 l 515 564 l 517 578 l 521 578 b 529 569 526 578 528 575 b 521 564 528 565 524 564 z m 539 540 l 563 540 l 563 547 l 546 547 l 546 583 l 539 583 z m 218 747 l 297 747 l 363 833 l 285 833 z m 568 540 l 592 540 l 592 547 l 575 547 l 575 560 l 590 560 l 589 565 l 575 565 l 575 576 l 592 576 l 590 583 l 568 583 z m 469 624 b 493 642 479 624 490 626 l 501 683 l 489 683 l 482 642 b 471 632 479 636 476 632 b 467 642 467 632 464 636 l 475 683 l 463 683 l 456 642 b 469 624 451 626 460 624 z m 593 540 l 600 540 l 604 550 l 615 550 l 618 540 l 625 540 l 614 583 l 604 583 z m 606 557 l 611 576 l 615 557 z m 515 624 b 542 642 529 624 539 628 b 533 657 543 649 542 653 l 525 661 b 521 669 519 664 519 665 b 529 676 522 674 522 676 b 533 667 533 676 535 674 l 544 667 l 546 668 b 529 685 549 681 542 685 b 508 668 519 685 513 681 b 519 650 507 658 510 653 b 528 640 528 647 529 644 b 519 632 529 635 524 632 b 514 642 513 632 514 635 l 514 643 l 501 643 l 501 640 b 515 624 499 631 503 624 z m 639 540 b 654 551 650 540 656 543 b 646 564 654 558 651 561 l 642 565 b 635 574 636 567 635 568 b 639 578 636 576 638 578 b 646 574 644 578 647 576 l 646 572 l 653 572 l 653 574 b 640 583 654 576 651 583 b 628 572 632 583 628 581 b 636 560 628 565 632 561 l 642 558 b 649 550 646 557 649 556 b 640 544 649 549 644 544 b 635 551 636 544 635 547 l 635 553 l 628 553 b 639 540 628 547 629 540 z m 661 540 l 685 540 l 685 547 l 668 547 l 668 560 l 683 560 l 683 565 l 668 565 l 669 576 l 683 576 l 682 583 l 661 583 z m 549 625 l 582 625 l 585 635 l 563 635 l 564 650 l 585 650 l 589 660 l 568 660 l 572 674 l 592 674 l 594 683 l 561 683 z m 360 747 l 438 747 l 504 833 l 425 833 z m 710 540 l 718 540 l 728 583 l 721 583 l 714 549 l 706 583 l 699 583 z m 731 540 l 738 540 l 738 583 l 731 583 z m 635 624 b 661 656 653 624 657 636 b 649 685 667 672 667 685 b 621 656 629 685 625 672 b 635 624 618 636 615 624 z m 636 632 b 632 656 629 632 629 639 b 646 676 636 669 639 676 b 649 656 653 676 653 669 b 636 632 646 639 644 632 z m 758 540 b 771 551 767 540 772 543 b 763 564 771 558 769 561 l 758 565 b 751 574 754 567 751 568 b 758 578 753 576 754 578 b 763 574 761 578 764 576 l 763 572 l 771 572 l 771 574 b 757 583 772 576 769 583 b 744 572 749 583 744 581 b 754 560 744 565 749 561 l 758 558 b 765 550 764 557 765 556 b 757 544 765 549 763 544 b 751 551 753 544 751 547 l 751 553 l 744 553 b 758 540 744 547 746 540 z m 778 540 l 785 540 l 785 583 l 778 583 z m 797 540 l 806 540 l 807 576 l 817 576 l 815 583 l 788 583 l 789 576 l 799 576 z m 667 625 l 678 625 l 686 667 l 693 625 l 707 625 l 719 683 l 708 683 l 700 643 l 693 683 l 679 683 z m 719 625 l 751 625 l 756 635 l 733 635 l 743 683 l 731 683 z m 499 747 l 579 747 l 644 833 l 564 833 z m 804 625 l 815 625 l 818 635 l 807 635 z m 765 625 l 778 625 l 783 649 l 806 683 l 793 683 l 781 661 l 776 683 l 763 683 l 771 649 z m 810 642 l 818 642 l 825 665 l 828 683 l 817 683 l 813 665 z m 639 747 l 719 747 l 785 833 l 706 833 z m 781 747 l 849 747 l 850 833 l 846 833 z "},"6":{"ha":864,"x_min":0,"x_max":0,"o":"m 210 367 b 224 375 214 368 222 372 b 226 385 226 378 226 382 b 221 390 225 386 221 389 l 222 392 l 224 392 b 483 456 256 400 442 435 b 496 461 489 457 493 460 l 501 467 b 499 467 503 468 501 468 b 233 403 451 447 265 414 b 224 397 228 401 226 399 l 215 390 b 217 381 213 386 213 383 b 215 372 219 376 218 374 b 210 368 214 372 211 369 b 210 367 210 368 208 367 z m 15 0 l 17 0 l 83 86 l 15 86 z m 78 0 l 158 0 l 224 86 l 144 86 z m 44 142 l 58 142 l 58 190 l 75 142 l 90 142 l 90 210 l 79 210 l 78 164 l 63 210 l 46 210 z m 101 142 l 117 142 l 118 157 l 136 157 l 140 142 l 154 142 l 138 210 l 121 210 z m 218 0 l 299 0 l 364 86 l 286 86 z m 121 168 l 128 199 l 135 168 z m 167 142 l 178 142 l 179 197 l 192 142 l 201 142 l 214 197 l 213 142 l 226 142 l 226 210 l 207 210 l 196 161 l 188 210 l 167 210 z m 243 142 l 282 142 l 281 153 l 256 153 l 256 172 l 279 172 l 281 183 l 257 183 l 256 199 l 279 199 l 281 210 l 243 210 z m 360 0 l 439 0 l 506 86 l 425 86 z m 294 142 l 333 142 l 333 153 l 308 153 l 308 210 l 296 210 z m 342 142 l 354 142 l 358 157 l 376 157 l 379 142 l 393 142 l 376 210 l 358 210 z m 361 168 l 365 199 l 368 199 l 374 168 z m 199 335 l 199 269 b 211 272 199 269 208 269 b 215 281 215 275 215 281 l 215 335 b 222 343 217 339 219 342 b 235 347 226 344 231 347 b 249 340 242 347 244 344 b 253 322 251 336 253 331 l 253 281 b 254 272 253 281 254 275 b 269 269 258 268 269 269 l 268 325 b 240 360 268 349 258 360 b 215 347 229 360 219 356 b 201 340 211 343 208 344 b 199 335 199 339 199 335 z m 500 0 l 581 0 l 646 86 l 565 86 z m 411 142 l 425 142 l 424 199 l 439 199 l 440 210 l 397 210 l 396 199 l 411 199 z m 308 281 b 292 294 299 281 292 285 b 300 308 292 300 294 306 b 321 315 306 314 313 315 b 331 314 322 315 325 315 l 329 292 b 308 281 322 285 317 281 z m 301 268 b 329 278 314 268 322 272 b 338 283 332 281 335 281 b 344 292 342 285 346 289 l 344 324 b 336 351 346 335 342 344 b 314 360 331 357 324 358 b 286 342 308 360 292 347 b 288 339 283 336 288 339 b 310 344 293 343 300 344 b 329 325 324 344 329 339 b 318 326 325 325 322 326 b 288 317 307 326 296 324 b 276 294 279 311 276 303 b 285 275 276 286 281 281 b 301 268 290 269 296 268 z m 465 142 l 478 142 l 478 168 l 497 210 l 482 210 l 472 183 l 464 210 l 449 210 l 465 168 z m 279 356 b 292 378 281 356 293 376 b 279 393 285 381 279 386 b 276 393 278 394 276 393 b 274 386 275 392 274 390 l 267 374 b 279 356 265 365 274 358 z m 508 142 l 521 142 l 522 169 l 531 169 b 551 190 542 169 551 176 b 532 210 551 200 547 210 l 508 210 z m 51 540 l 58 540 l 58 560 l 74 560 l 72 565 l 58 565 l 58 576 l 75 576 l 74 583 l 51 583 z m 528 181 l 521 181 l 521 200 l 528 200 b 538 190 535 200 538 197 b 528 181 538 183 533 181 z m 640 0 l 719 0 l 786 86 l 707 86 z m 93 540 b 107 561 103 540 107 547 b 93 583 107 576 103 583 b 78 561 82 583 79 576 b 93 540 78 547 83 540 z m 93 544 b 86 561 88 544 86 547 b 93 578 88 576 88 578 b 100 561 96 578 100 576 b 93 544 100 547 96 544 z m 356 269 b 367 272 356 269 364 269 b 369 281 371 275 369 281 l 371 335 b 378 343 371 339 374 340 b 389 347 382 344 385 347 b 400 343 393 347 396 344 b 404 332 403 340 404 336 l 406 269 b 417 272 406 269 414 269 b 422 281 421 276 422 281 l 422 335 b 428 343 421 339 425 340 b 439 347 432 344 435 347 b 457 325 450 347 457 340 l 457 281 b 458 274 457 281 457 275 b 472 269 463 269 472 269 l 472 328 b 465 351 471 339 471 347 b 443 360 460 357 451 360 b 428 357 439 360 433 358 b 418 349 424 353 419 351 b 392 360 413 356 406 360 b 369 349 383 360 374 356 b 357 339 367 343 360 342 l 356 333 z m 565 142 l 603 142 l 603 153 l 578 153 l 578 172 l 599 172 l 600 183 l 579 183 l 578 199 l 601 199 l 601 210 l 565 210 z m 617 142 l 629 142 l 631 157 l 617 157 z m 113 540 l 121 540 l 121 558 l 126 558 b 132 551 131 558 133 557 b 133 543 133 549 133 547 l 133 540 l 142 540 b 140 543 142 542 140 542 l 140 553 b 133 561 139 558 136 561 b 139 572 139 561 140 567 b 128 583 140 581 135 583 l 113 583 z m 125 564 l 121 564 l 121 578 l 126 578 b 133 572 131 578 133 575 b 125 564 133 567 129 564 z m 175 540 b 189 556 185 540 188 547 l 182 556 b 174 544 181 551 179 544 b 168 561 169 544 168 549 b 175 578 168 575 169 578 b 182 569 179 578 182 575 l 189 569 b 174 583 189 575 186 583 b 160 561 163 583 161 576 b 175 540 160 547 163 540 z m 42 625 l 54 625 l 60 649 l 67 649 b 89 667 76 649 86 653 b 76 683 89 675 88 683 l 54 683 z m 782 0 l 850 0 l 850 86 l 847 86 z m 67 657 l 61 657 l 64 675 l 69 675 b 76 667 76 675 78 672 b 67 657 75 660 71 657 z m 668 142 b 690 168 685 142 689 153 l 675 168 b 667 151 675 153 672 151 b 658 175 663 151 658 156 b 667 201 658 194 660 201 b 675 186 674 201 675 197 l 688 186 b 668 211 689 197 686 211 b 644 176 646 211 646 197 b 668 142 644 156 646 142 z m 206 540 b 222 561 217 540 221 547 b 206 583 222 576 215 583 b 193 561 196 583 194 576 b 206 540 193 547 196 540 z m 206 544 b 200 561 203 544 200 547 b 206 578 200 576 203 578 b 214 561 210 578 214 576 b 206 544 213 547 210 544 z m 513 269 b 542 282 518 268 532 276 b 542 285 544 283 547 289 b 524 282 535 283 531 282 b 506 289 517 282 510 283 b 496 311 499 293 497 301 l 560 311 b 561 322 560 315 561 318 b 549 349 561 333 557 342 b 522 360 543 357 533 360 b 493 349 510 360 501 356 b 481 314 485 339 481 326 b 493 281 479 299 483 289 b 513 269 499 275 504 269 z m 90 625 l 124 625 l 126 635 l 104 635 l 106 650 l 126 650 l 131 660 l 110 660 l 113 674 l 133 674 l 135 683 l 101 683 z m 544 324 l 496 324 b 506 340 496 331 500 335 b 522 347 508 344 515 347 b 540 340 531 347 535 343 b 544 324 544 335 544 331 z m 228 540 l 233 540 l 233 576 l 243 540 l 247 540 l 257 576 l 256 540 l 263 540 l 263 583 l 253 583 l 246 551 l 244 551 l 238 583 l 228 583 z m 725 142 b 749 176 746 142 749 156 b 724 211 749 197 746 211 b 701 176 704 211 701 197 b 725 142 701 156 704 142 z m 725 151 b 717 176 717 151 717 158 b 725 201 717 194 717 201 b 735 176 733 201 735 194 b 725 151 735 158 733 151 z m 133 625 l 146 625 l 151 650 l 158 650 b 164 642 163 650 164 647 l 161 631 b 161 625 160 628 160 626 l 175 625 b 174 635 172 626 172 631 b 168 653 176 649 176 653 b 182 668 174 656 181 660 b 168 683 183 678 178 683 l 146 683 z m 158 658 l 153 658 l 156 675 l 161 675 b 168 667 168 675 169 672 b 158 658 168 660 163 658 z m 271 540 l 278 540 l 279 576 l 286 540 l 292 540 l 303 576 l 301 540 l 308 540 l 307 583 l 296 583 l 289 551 l 281 583 l 271 583 z m 626 281 b 610 294 615 281 610 285 b 618 308 610 300 613 306 b 638 315 624 314 629 315 b 647 314 639 315 643 315 l 646 292 b 626 281 642 285 635 281 z m 201 624 b 225 642 213 624 224 628 b 217 657 226 649 225 653 l 208 661 b 204 669 204 664 203 665 b 213 676 206 674 206 676 b 218 667 217 676 218 674 l 228 667 l 231 668 b 215 685 232 681 225 685 b 192 668 203 685 196 681 b 203 650 190 658 193 653 b 211 640 211 647 213 644 b 203 632 213 635 207 632 b 199 642 196 632 197 635 l 197 643 l 186 643 l 185 640 b 201 624 182 631 186 624 z m 763 142 l 776 142 l 776 197 l 788 142 l 799 142 l 813 197 l 811 142 l 824 142 l 824 210 l 804 210 l 793 161 l 783 210 l 764 210 z m 14 747 l 15 747 l 83 833 l 14 833 z m 314 540 l 338 540 l 338 547 l 321 547 l 321 560 l 338 560 l 338 565 l 321 565 l 322 576 l 339 576 l 338 583 l 314 583 z m 621 268 b 646 278 632 268 642 272 b 656 283 650 281 653 281 b 663 292 660 285 664 289 l 663 324 b 654 351 664 335 660 344 b 632 360 650 357 642 358 b 604 342 626 360 608 347 b 604 339 601 336 604 339 b 628 344 611 343 618 344 b 646 325 642 344 646 339 b 636 326 643 325 640 326 b 606 317 624 326 613 324 b 596 294 599 311 594 303 b 601 275 594 286 597 281 b 621 268 607 269 614 268 z m 600 268 b 597 272 600 268 603 272 b 585 297 590 274 585 285 l 585 482 b 572 478 585 482 575 481 b 569 468 569 475 569 468 l 571 294 b 600 268 569 276 581 268 z m 344 540 l 351 540 l 351 558 l 356 558 b 363 551 361 558 364 557 b 364 543 364 549 363 547 b 364 540 364 542 365 542 l 372 540 b 371 543 372 542 369 542 b 369 553 369 547 371 550 b 364 561 369 558 368 561 b 369 572 368 561 369 567 b 360 583 369 581 365 583 l 344 583 z m 356 564 l 350 564 l 351 578 l 356 578 b 363 572 361 578 364 575 b 356 564 363 567 361 564 z m 249 624 b 278 656 268 624 272 636 b 263 685 282 672 282 685 b 236 656 246 685 242 672 b 249 624 232 636 232 624 z m 253 632 b 247 656 244 632 244 639 b 261 676 251 669 254 676 b 264 656 268 676 268 669 b 253 632 261 639 260 632 z m 389 540 b 403 556 401 540 403 547 l 397 556 b 389 544 396 551 396 544 b 383 561 385 544 383 549 b 389 578 383 575 385 578 b 397 569 394 578 397 575 l 404 569 b 390 583 403 575 403 583 b 376 561 379 583 378 576 b 389 540 376 547 379 540 z m 408 540 l 417 540 l 415 583 l 407 583 z m 282 625 l 293 625 l 301 667 l 308 625 l 321 625 l 335 683 l 322 683 l 314 643 l 308 683 l 294 683 z m 78 747 l 157 747 l 222 833 l 143 833 z m 419 540 l 426 540 l 429 550 l 442 550 l 444 540 l 451 540 l 439 583 l 431 583 z m 431 557 l 436 576 l 440 557 z m 597 406 l 594 403 b 649 425 615 411 628 415 b 657 433 651 425 654 431 b 664 439 660 433 665 439 l 611 418 b 601 410 608 417 604 414 b 597 406 600 410 594 406 z m 483 535 l 482 532 b 489 540 488 532 490 535 l 490 549 l 483 549 l 483 540 l 485 540 b 483 535 485 536 485 535 z m 454 540 l 478 540 l 478 547 l 461 547 l 461 583 l 454 583 z m 329 625 l 343 625 l 347 636 l 363 636 l 363 625 l 376 625 l 372 683 l 358 683 z m 351 647 l 364 674 l 364 647 z m 385 625 l 418 625 l 421 635 l 399 635 l 410 683 l 397 683 z m 510 540 l 517 540 l 517 558 l 522 558 b 535 569 531 558 533 564 b 522 583 535 578 531 583 l 510 583 z m 521 564 l 515 564 l 517 578 l 521 578 b 529 569 526 578 528 575 b 521 564 528 565 524 564 z m 539 540 l 563 540 l 563 547 l 546 547 l 546 583 l 539 583 z m 218 747 l 297 747 l 363 833 l 285 833 z m 568 540 l 592 540 l 592 547 l 575 547 l 575 560 l 590 560 l 589 565 l 575 565 l 575 576 l 592 576 l 590 583 l 568 583 z m 469 624 b 493 642 479 624 490 626 l 501 683 l 489 683 l 482 642 b 471 632 479 636 476 632 b 467 642 467 632 464 636 l 475 683 l 463 683 l 456 642 b 469 624 451 626 460 624 z m 593 540 l 600 540 l 604 550 l 615 550 l 618 540 l 625 540 l 614 583 l 604 583 z m 606 557 l 611 576 l 615 557 z m 515 624 b 542 642 529 624 539 628 b 533 657 543 649 542 653 l 525 661 b 521 669 519 664 519 665 b 529 676 522 674 522 676 b 533 667 533 676 535 674 l 544 667 l 546 668 b 529 685 549 681 542 685 b 508 668 519 685 513 681 b 519 650 507 658 510 653 b 528 640 528 647 529 644 b 519 632 529 635 524 632 b 514 642 513 632 514 635 l 514 643 l 501 643 l 501 640 b 515 624 499 631 503 624 z m 639 540 b 654 551 650 540 656 543 b 646 564 654 558 651 561 l 642 565 b 635 574 636 567 635 568 b 639 578 636 576 638 578 b 646 574 644 578 647 576 l 646 572 l 653 572 l 653 574 b 640 583 654 576 651 583 b 628 572 632 583 628 581 b 636 560 628 565 632 561 l 642 558 b 649 550 646 557 649 556 b 640 544 649 549 644 544 b 635 551 636 544 635 547 l 635 553 l 628 553 b 639 540 628 547 629 540 z m 661 540 l 685 540 l 685 547 l 668 547 l 668 560 l 683 560 l 683 565 l 668 565 l 669 576 l 683 576 l 682 583 l 661 583 z m 549 625 l 582 625 l 585 635 l 563 635 l 564 650 l 585 650 l 589 660 l 568 660 l 572 674 l 592 674 l 594 683 l 561 683 z m 360 747 l 438 747 l 504 833 l 425 833 z m 710 540 l 718 540 l 728 583 l 721 583 l 714 549 l 706 583 l 699 583 z m 731 540 l 738 540 l 738 583 l 731 583 z m 635 624 b 661 656 653 624 657 636 b 649 685 667 672 667 685 b 621 656 629 685 625 672 b 635 624 618 636 615 624 z m 636 632 b 632 656 629 632 629 639 b 646 676 636 669 639 676 b 649 656 653 676 653 669 b 636 632 646 639 644 632 z m 758 540 b 771 551 767 540 772 543 b 763 564 771 558 769 561 l 758 565 b 751 574 754 567 751 568 b 758 578 753 576 754 578 b 763 574 761 578 764 576 l 763 572 l 771 572 l 771 574 b 757 583 772 576 769 583 b 744 572 749 583 744 581 b 754 560 744 565 749 561 l 758 558 b 765 550 764 557 765 556 b 757 544 765 549 763 544 b 751 551 753 544 751 547 l 751 553 l 744 553 b 758 540 744 547 746 540 z m 778 540 l 785 540 l 785 583 l 778 583 z m 797 540 l 806 540 l 807 576 l 817 576 l 815 583 l 788 583 l 789 576 l 799 576 z m 667 625 l 678 625 l 686 667 l 693 625 l 707 625 l 719 683 l 708 683 l 700 643 l 693 683 l 679 683 z m 719 625 l 751 625 l 756 635 l 733 635 l 743 683 l 731 683 z m 499 747 l 579 747 l 644 833 l 564 833 z m 804 625 l 815 625 l 818 635 l 807 635 z m 765 625 l 778 625 l 783 649 l 806 683 l 793 683 l 781 661 l 776 683 l 763 683 l 771 649 z m 810 642 l 818 642 l 825 665 l 828 683 l 817 683 l 813 665 z m 639 747 l 719 747 l 785 833 l 706 833 z m 781 747 l 849 747 l 850 833 l 846 833 z "},"7":{"ha":864,"x_min":0,"x_max":0,"o":"m 210 367 b 224 375 214 368 222 372 b 226 385 226 378 226 382 b 221 390 225 386 221 389 l 222 392 l 224 392 b 483 456 256 400 442 435 b 496 461 489 457 493 460 l 501 467 b 499 467 503 468 501 468 b 233 403 451 447 265 414 b 224 397 228 401 226 399 l 215 390 b 217 381 213 386 213 383 b 215 372 219 376 218 374 b 210 368 214 372 211 369 b 210 367 210 368 208 367 z m 15 0 l 17 0 l 83 86 l 15 86 z m 78 0 l 158 0 l 224 86 l 144 86 z m 44 142 l 58 142 l 58 190 l 75 142 l 90 142 l 90 210 l 79 210 l 78 164 l 63 210 l 46 210 z m 101 142 l 117 142 l 118 157 l 136 157 l 140 142 l 154 142 l 138 210 l 121 210 z m 218 0 l 299 0 l 364 86 l 286 86 z m 121 168 l 128 199 l 135 168 z m 167 142 l 178 142 l 179 197 l 192 142 l 201 142 l 214 197 l 213 142 l 226 142 l 226 210 l 207 210 l 196 161 l 188 210 l 167 210 z m 243 142 l 282 142 l 281 153 l 256 153 l 256 172 l 279 172 l 281 183 l 257 183 l 256 199 l 279 199 l 281 210 l 243 210 z m 360 0 l 439 0 l 506 86 l 425 86 z m 294 142 l 333 142 l 333 153 l 308 153 l 308 210 l 296 210 z m 342 142 l 354 142 l 358 157 l 376 157 l 379 142 l 393 142 l 376 210 l 358 210 z m 361 168 l 365 199 l 368 199 l 374 168 z m 199 335 l 199 269 b 211 272 199 269 208 269 b 215 281 215 275 215 281 l 215 335 b 222 343 217 339 219 342 b 235 347 226 344 231 347 b 249 340 242 347 244 344 b 253 322 251 336 253 331 l 253 281 b 254 272 253 281 254 275 b 269 269 258 268 269 269 l 268 325 b 240 360 268 349 258 360 b 215 347 229 360 219 356 b 201 340 211 343 208 344 b 199 335 199 339 199 335 z m 500 0 l 581 0 l 646 86 l 565 86 z m 411 142 l 425 142 l 424 199 l 439 199 l 440 210 l 397 210 l 396 199 l 411 199 z m 308 281 b 292 294 299 281 292 285 b 300 308 292 300 294 306 b 321 315 306 314 313 315 b 331 314 322 315 325 315 l 329 292 b 308 281 322 285 317 281 z m 301 268 b 329 278 314 268 322 272 b 338 283 332 281 335 281 b 344 292 342 285 346 289 l 344 324 b 336 351 346 335 342 344 b 314 360 331 357 324 358 b 286 342 308 360 292 347 b 288 339 283 336 288 339 b 310 344 293 343 300 344 b 329 325 324 344 329 339 b 318 326 325 325 322 326 b 288 317 307 326 296 324 b 276 294 279 311 276 303 b 285 275 276 286 281 281 b 301 268 290 269 296 268 z m 465 142 l 478 142 l 478 168 l 497 210 l 482 210 l 472 183 l 464 210 l 449 210 l 465 168 z m 279 356 b 292 378 281 356 293 376 b 279 393 285 381 279 386 b 276 393 278 394 276 393 b 274 386 275 392 274 390 l 267 374 b 279 356 265 365 274 358 z m 508 142 l 521 142 l 522 169 l 531 169 b 551 190 542 169 551 176 b 532 210 551 200 547 210 l 508 210 z m 51 540 l 58 540 l 58 560 l 74 560 l 72 565 l 58 565 l 58 576 l 75 576 l 74 583 l 51 583 z m 528 181 l 521 181 l 521 200 l 528 200 b 538 190 535 200 538 197 b 528 181 538 183 533 181 z m 640 0 l 719 0 l 786 86 l 707 86 z m 93 540 b 107 561 103 540 107 547 b 93 583 107 576 103 583 b 78 561 82 583 79 576 b 93 540 78 547 83 540 z m 93 544 b 86 561 88 544 86 547 b 93 578 88 576 88 578 b 100 561 96 578 100 576 b 93 544 100 547 96 544 z m 356 269 b 367 272 356 269 364 269 b 369 281 371 275 369 281 l 371 335 b 378 343 371 339 374 340 b 389 347 382 344 385 347 b 400 343 393 347 396 344 b 404 332 403 340 404 336 l 406 269 b 417 272 406 269 414 269 b 422 281 421 276 422 281 l 422 335 b 428 343 421 339 425 340 b 439 347 432 344 435 347 b 457 325 450 347 457 340 l 457 281 b 458 274 457 281 457 275 b 472 269 463 269 472 269 l 472 328 b 465 351 471 339 471 347 b 443 360 460 357 451 360 b 428 357 439 360 433 358 b 418 349 424 353 419 351 b 392 360 413 356 406 360 b 369 349 383 360 374 356 b 357 339 367 343 360 342 l 356 333 z m 565 142 l 603 142 l 603 153 l 578 153 l 578 172 l 599 172 l 600 183 l 579 183 l 578 199 l 601 199 l 601 210 l 565 210 z m 617 142 l 629 142 l 631 157 l 617 157 z m 113 540 l 121 540 l 121 558 l 126 558 b 132 551 131 558 133 557 b 133 543 133 549 133 547 l 133 540 l 142 540 b 140 543 142 542 140 542 l 140 553 b 133 561 139 558 136 561 b 139 572 139 561 140 567 b 128 583 140 581 135 583 l 113 583 z m 125 564 l 121 564 l 121 578 l 126 578 b 133 572 131 578 133 575 b 125 564 133 567 129 564 z m 175 540 b 189 556 185 540 188 547 l 182 556 b 174 544 181 551 179 544 b 168 561 169 544 168 549 b 175 578 168 575 169 578 b 182 569 179 578 182 575 l 189 569 b 174 583 189 575 186 583 b 160 561 163 583 161 576 b 175 540 160 547 163 540 z m 42 625 l 54 625 l 60 649 l 67 649 b 89 667 76 649 86 653 b 76 683 89 675 88 683 l 54 683 z m 782 0 l 850 0 l 850 86 l 847 86 z m 67 657 l 61 657 l 64 675 l 69 675 b 76 667 76 675 78 672 b 67 657 75 660 71 657 z m 668 142 b 690 168 685 142 689 153 l 675 168 b 667 151 675 153 672 151 b 658 175 663 151 658 156 b 667 201 658 194 660 201 b 675 186 674 201 675 197 l 688 186 b 668 211 689 197 686 211 b 644 176 646 211 646 197 b 668 142 644 156 646 142 z m 206 540 b 222 561 217 540 221 547 b 206 583 222 576 215 583 b 193 561 196 583 194 576 b 206 540 193 547 196 540 z m 206 544 b 200 561 203 544 200 547 b 206 578 200 576 203 578 b 214 561 210 578 214 576 b 206 544 213 547 210 544 z m 513 269 b 542 282 518 268 532 276 b 542 285 544 283 547 289 b 524 282 535 283 531 282 b 506 289 517 282 510 283 b 496 311 499 293 497 301 l 560 311 b 561 322 560 315 561 318 b 549 349 561 333 557 342 b 522 360 543 357 533 360 b 493 349 510 360 501 356 b 481 314 485 339 481 326 b 493 281 479 299 483 289 b 513 269 499 275 504 269 z m 90 625 l 124 625 l 126 635 l 104 635 l 106 650 l 126 650 l 131 660 l 110 660 l 113 674 l 133 674 l 135 683 l 101 683 z m 544 324 l 496 324 b 506 340 496 331 500 335 b 522 347 508 344 515 347 b 540 340 531 347 535 343 b 544 324 544 335 544 331 z m 228 540 l 233 540 l 233 576 l 243 540 l 247 540 l 257 576 l 256 540 l 263 540 l 263 583 l 253 583 l 246 551 l 244 551 l 238 583 l 228 583 z m 725 142 b 749 176 746 142 749 156 b 724 211 749 197 746 211 b 701 176 704 211 701 197 b 725 142 701 156 704 142 z m 725 151 b 717 176 717 151 717 158 b 725 201 717 194 717 201 b 735 176 733 201 735 194 b 725 151 735 158 733 151 z m 133 625 l 146 625 l 151 650 l 158 650 b 164 642 163 650 164 647 l 161 631 b 161 625 160 628 160 626 l 175 625 b 174 635 172 626 172 631 b 168 653 176 649 176 653 b 182 668 174 656 181 660 b 168 683 183 678 178 683 l 146 683 z m 158 658 l 153 658 l 156 675 l 161 675 b 168 667 168 675 169 672 b 158 658 168 660 163 658 z m 271 540 l 278 540 l 279 576 l 286 540 l 292 540 l 303 576 l 301 540 l 308 540 l 307 583 l 296 583 l 289 551 l 281 583 l 271 583 z m 626 281 b 610 294 615 281 610 285 b 618 308 610 300 613 306 b 638 315 624 314 629 315 b 647 314 639 315 643 315 l 646 292 b 626 281 642 285 635 281 z m 201 624 b 225 642 213 624 224 628 b 217 657 226 649 225 653 l 208 661 b 204 669 204 664 203 665 b 213 676 206 674 206 676 b 218 667 217 676 218 674 l 228 667 l 231 668 b 215 685 232 681 225 685 b 192 668 203 685 196 681 b 203 650 190 658 193 653 b 211 640 211 647 213 644 b 203 632 213 635 207 632 b 199 642 196 632 197 635 l 197 643 l 186 643 l 185 640 b 201 624 182 631 186 624 z m 763 142 l 776 142 l 776 197 l 788 142 l 799 142 l 813 197 l 811 142 l 824 142 l 824 210 l 804 210 l 793 161 l 783 210 l 764 210 z m 14 747 l 15 747 l 83 833 l 14 833 z m 314 540 l 338 540 l 338 547 l 321 547 l 321 560 l 338 560 l 338 565 l 321 565 l 322 576 l 339 576 l 338 583 l 314 583 z m 621 268 b 646 278 632 268 642 272 b 656 283 650 281 653 281 b 663 292 660 285 664 289 l 663 324 b 654 351 664 335 660 344 b 632 360 650 357 642 358 b 604 342 626 360 608 347 b 604 339 601 336 604 339 b 628 344 611 343 618 344 b 646 325 642 344 646 339 b 636 326 643 325 640 326 b 606 317 624 326 613 324 b 596 294 599 311 594 303 b 601 275 594 286 597 281 b 621 268 607 269 614 268 z m 600 268 b 597 272 600 268 603 272 b 585 297 590 274 585 285 l 585 482 b 572 478 585 482 575 481 b 569 468 569 475 569 468 l 571 294 b 600 268 569 276 581 268 z m 344 540 l 351 540 l 351 558 l 356 558 b 363 551 361 558 364 557 b 364 543 364 549 363 547 b 364 540 364 542 365 542 l 372 540 b 371 543 372 542 369 542 b 369 553 369 547 371 550 b 364 561 369 558 368 561 b 369 572 368 561 369 567 b 360 583 369 581 365 583 l 344 583 z m 356 564 l 350 564 l 351 578 l 356 578 b 363 572 361 578 364 575 b 356 564 363 567 361 564 z m 249 624 b 278 656 268 624 272 636 b 263 685 282 672 282 685 b 236 656 246 685 242 672 b 249 624 232 636 232 624 z m 253 632 b 247 656 244 632 244 639 b 261 676 251 669 254 676 b 264 656 268 676 268 669 b 253 632 261 639 260 632 z m 389 540 b 403 556 401 540 403 547 l 397 556 b 389 544 396 551 396 544 b 383 561 385 544 383 549 b 389 578 383 575 385 578 b 397 569 394 578 397 575 l 404 569 b 390 583 403 575 403 583 b 376 561 379 583 378 576 b 389 540 376 547 379 540 z m 408 540 l 417 540 l 415 583 l 407 583 z m 282 625 l 293 625 l 301 667 l 308 625 l 321 625 l 335 683 l 322 683 l 314 643 l 308 683 l 294 683 z m 78 747 l 157 747 l 222 833 l 143 833 z m 419 540 l 426 540 l 429 550 l 442 550 l 444 540 l 451 540 l 439 583 l 431 583 z m 431 557 l 436 576 l 440 557 z m 597 406 l 594 403 b 649 425 615 411 628 415 b 657 433 651 425 654 431 b 664 439 660 433 665 439 l 611 418 b 601 410 608 417 604 414 b 597 406 600 410 594 406 z m 483 535 l 482 532 b 489 540 488 532 490 535 l 490 549 l 483 549 l 483 540 l 485 540 b 483 535 485 536 485 535 z m 454 540 l 478 540 l 478 547 l 461 547 l 461 583 l 454 583 z m 329 625 l 343 625 l 347 636 l 363 636 l 363 625 l 376 625 l 372 683 l 358 683 z m 351 647 l 364 674 l 364 647 z m 385 625 l 418 625 l 421 635 l 399 635 l 410 683 l 397 683 z m 510 540 l 517 540 l 517 558 l 522 558 b 535 569 531 558 533 564 b 522 583 535 578 531 583 l 510 583 z m 521 564 l 515 564 l 517 578 l 521 578 b 529 569 526 578 528 575 b 521 564 528 565 524 564 z m 539 540 l 563 540 l 563 547 l 546 547 l 546 583 l 539 583 z m 218 747 l 297 747 l 363 833 l 285 833 z m 568 540 l 592 540 l 592 547 l 575 547 l 575 560 l 590 560 l 589 565 l 575 565 l 575 576 l 592 576 l 590 583 l 568 583 z m 469 624 b 493 642 479 624 490 626 l 501 683 l 489 683 l 482 642 b 471 632 479 636 476 632 b 467 642 467 632 464 636 l 475 683 l 463 683 l 456 642 b 469 624 451 626 460 624 z m 593 540 l 600 540 l 604 550 l 615 550 l 618 540 l 625 540 l 614 583 l 604 583 z m 606 557 l 611 576 l 615 557 z m 515 624 b 542 642 529 624 539 628 b 533 657 543 649 542 653 l 525 661 b 521 669 519 664 519 665 b 529 676 522 674 522 676 b 533 667 533 676 535 674 l 544 667 l 546 668 b 529 685 549 681 542 685 b 508 668 519 685 513 681 b 519 650 507 658 510 653 b 528 640 528 647 529 644 b 519 632 529 635 524 632 b 514 642 513 632 514 635 l 514 643 l 501 643 l 501 640 b 515 624 499 631 503 624 z m 639 540 b 654 551 650 540 656 543 b 646 564 654 558 651 561 l 642 565 b 635 574 636 567 635 568 b 639 578 636 576 638 578 b 646 574 644 578 647 576 l 646 572 l 653 572 l 653 574 b 640 583 654 576 651 583 b 628 572 632 583 628 581 b 636 560 628 565 632 561 l 642 558 b 649 550 646 557 649 556 b 640 544 649 549 644 544 b 635 551 636 544 635 547 l 635 553 l 628 553 b 639 540 628 547 629 540 z m 661 540 l 685 540 l 685 547 l 668 547 l 668 560 l 683 560 l 683 565 l 668 565 l 669 576 l 683 576 l 682 583 l 661 583 z m 549 625 l 582 625 l 585 635 l 563 635 l 564 650 l 585 650 l 589 660 l 568 660 l 572 674 l 592 674 l 594 683 l 561 683 z m 360 747 l 438 747 l 504 833 l 425 833 z m 710 540 l 718 540 l 728 583 l 721 583 l 714 549 l 706 583 l 699 583 z m 731 540 l 738 540 l 738 583 l 731 583 z m 635 624 b 661 656 653 624 657 636 b 649 685 667 672 667 685 b 621 656 629 685 625 672 b 635 624 618 636 615 624 z m 636 632 b 632 656 629 632 629 639 b 646 676 636 669 639 676 b 649 656 653 676 653 669 b 636 632 646 639 644 632 z m 758 540 b 771 551 767 540 772 543 b 763 564 771 558 769 561 l 758 565 b 751 574 754 567 751 568 b 758 578 753 576 754 578 b 763 574 761 578 764 576 l 763 572 l 771 572 l 771 574 b 757 583 772 576 769 583 b 744 572 749 583 744 581 b 754 560 744 565 749 561 l 758 558 b 765 550 764 557 765 556 b 757 544 765 549 763 544 b 751 551 753 544 751 547 l 751 553 l 744 553 b 758 540 744 547 746 540 z m 778 540 l 785 540 l 785 583 l 778 583 z m 797 540 l 806 540 l 807 576 l 817 576 l 815 583 l 788 583 l 789 576 l 799 576 z m 667 625 l 678 625 l 686 667 l 693 625 l 707 625 l 719 683 l 708 683 l 700 643 l 693 683 l 679 683 z m 719 625 l 751 625 l 756 635 l 733 635 l 743 683 l 731 683 z m 499 747 l 579 747 l 644 833 l 564 833 z m 804 625 l 815 625 l 818 635 l 807 635 z m 765 625 l 778 625 l 783 649 l 806 683 l 793 683 l 781 661 l 776 683 l 763 683 l 771 649 z m 810 642 l 818 642 l 825 665 l 828 683 l 817 683 l 813 665 z m 639 747 l 719 747 l 785 833 l 706 833 z m 781 747 l 849 747 l 850 833 l 846 833 z "},"8":{"ha":864,"x_min":0,"x_max":0,"o":"m 210 367 b 224 375 214 368 222 372 b 226 385 226 378 226 382 b 221 390 225 386 221 389 l 222 392 l 224 392 b 483 456 256 400 442 435 b 496 461 489 457 493 460 l 501 467 b 499 467 503 468 501 468 b 233 403 451 447 265 414 b 224 397 228 401 226 399 l 215 390 b 217 381 213 386 213 383 b 215 372 219 376 218 374 b 210 368 214 372 211 369 b 210 367 210 368 208 367 z m 15 0 l 17 0 l 83 86 l 15 86 z m 78 0 l 158 0 l 224 86 l 144 86 z m 44 142 l 58 142 l 58 190 l 75 142 l 90 142 l 90 210 l 79 210 l 78 164 l 63 210 l 46 210 z m 101 142 l 117 142 l 118 157 l 136 157 l 140 142 l 154 142 l 138 210 l 121 210 z m 218 0 l 299 0 l 364 86 l 286 86 z m 121 168 l 128 199 l 135 168 z m 167 142 l 178 142 l 179 197 l 192 142 l 201 142 l 214 197 l 213 142 l 226 142 l 226 210 l 207 210 l 196 161 l 188 210 l 167 210 z m 243 142 l 282 142 l 281 153 l 256 153 l 256 172 l 279 172 l 281 183 l 257 183 l 256 199 l 279 199 l 281 210 l 243 210 z m 360 0 l 439 0 l 506 86 l 425 86 z m 294 142 l 333 142 l 333 153 l 308 153 l 308 210 l 296 210 z m 342 142 l 354 142 l 358 157 l 376 157 l 379 142 l 393 142 l 376 210 l 358 210 z m 361 168 l 365 199 l 368 199 l 374 168 z m 199 335 l 199 269 b 211 272 199 269 208 269 b 215 281 215 275 215 281 l 215 335 b 222 343 217 339 219 342 b 235 347 226 344 231 347 b 249 340 242 347 244 344 b 253 322 251 336 253 331 l 253 281 b 254 272 253 281 254 275 b 269 269 258 268 269 269 l 268 325 b 240 360 268 349 258 360 b 215 347 229 360 219 356 b 201 340 211 343 208 344 b 199 335 199 339 199 335 z m 500 0 l 581 0 l 646 86 l 565 86 z m 411 142 l 425 142 l 424 199 l 439 199 l 440 210 l 397 210 l 396 199 l 411 199 z m 308 281 b 292 294 299 281 292 285 b 300 308 292 300 294 306 b 321 315 306 314 313 315 b 331 314 322 315 325 315 l 329 292 b 308 281 322 285 317 281 z m 301 268 b 329 278 314 268 322 272 b 338 283 332 281 335 281 b 344 292 342 285 346 289 l 344 324 b 336 351 346 335 342 344 b 314 360 331 357 324 358 b 286 342 308 360 292 347 b 288 339 283 336 288 339 b 310 344 293 343 300 344 b 329 325 324 344 329 339 b 318 326 325 325 322 326 b 288 317 307 326 296 324 b 276 294 279 311 276 303 b 285 275 276 286 281 281 b 301 268 290 269 296 268 z m 465 142 l 478 142 l 478 168 l 497 210 l 482 210 l 472 183 l 464 210 l 449 210 l 465 168 z m 279 356 b 292 378 281 356 293 376 b 279 393 285 381 279 386 b 276 393 278 394 276 393 b 274 386 275 392 274 390 l 267 374 b 279 356 265 365 274 358 z m 508 142 l 521 142 l 522 169 l 531 169 b 551 190 542 169 551 176 b 532 210 551 200 547 210 l 508 210 z m 51 540 l 58 540 l 58 560 l 74 560 l 72 565 l 58 565 l 58 576 l 75 576 l 74 583 l 51 583 z m 528 181 l 521 181 l 521 200 l 528 200 b 538 190 535 200 538 197 b 528 181 538 183 533 181 z m 640 0 l 719 0 l 786 86 l 707 86 z m 93 540 b 107 561 103 540 107 547 b 93 583 107 576 103 583 b 78 561 82 583 79 576 b 93 540 78 547 83 540 z m 93 544 b 86 561 88 544 86 547 b 93 578 88 576 88 578 b 100 561 96 578 100 576 b 93 544 100 547 96 544 z m 356 269 b 367 272 356 269 364 269 b 369 281 371 275 369 281 l 371 335 b 378 343 371 339 374 340 b 389 347 382 344 385 347 b 400 343 393 347 396 344 b 404 332 403 340 404 336 l 406 269 b 417 272 406 269 414 269 b 422 281 421 276 422 281 l 422 335 b 428 343 421 339 425 340 b 439 347 432 344 435 347 b 457 325 450 347 457 340 l 457 281 b 458 274 457 281 457 275 b 472 269 463 269 472 269 l 472 328 b 465 351 471 339 471 347 b 443 360 460 357 451 360 b 428 357 439 360 433 358 b 418 349 424 353 419 351 b 392 360 413 356 406 360 b 369 349 383 360 374 356 b 357 339 367 343 360 342 l 356 333 z m 565 142 l 603 142 l 603 153 l 578 153 l 578 172 l 599 172 l 600 183 l 579 183 l 578 199 l 601 199 l 601 210 l 565 210 z m 617 142 l 629 142 l 631 157 l 617 157 z m 113 540 l 121 540 l 121 558 l 126 558 b 132 551 131 558 133 557 b 133 543 133 549 133 547 l 133 540 l 142 540 b 140 543 142 542 140 542 l 140 553 b 133 561 139 558 136 561 b 139 572 139 561 140 567 b 128 583 140 581 135 583 l 113 583 z m 125 564 l 121 564 l 121 578 l 126 578 b 133 572 131 578 133 575 b 125 564 133 567 129 564 z m 175 540 b 189 556 185 540 188 547 l 182 556 b 174 544 181 551 179 544 b 168 561 169 544 168 549 b 175 578 168 575 169 578 b 182 569 179 578 182 575 l 189 569 b 174 583 189 575 186 583 b 160 561 163 583 161 576 b 175 540 160 547 163 540 z m 42 625 l 54 625 l 60 649 l 67 649 b 89 667 76 649 86 653 b 76 683 89 675 88 683 l 54 683 z m 782 0 l 850 0 l 850 86 l 847 86 z m 67 657 l 61 657 l 64 675 l 69 675 b 76 667 76 675 78 672 b 67 657 75 660 71 657 z m 668 142 b 690 168 685 142 689 153 l 675 168 b 667 151 675 153 672 151 b 658 175 663 151 658 156 b 667 201 658 194 660 201 b 675 186 674 201 675 197 l 688 186 b 668 211 689 197 686 211 b 644 176 646 211 646 197 b 668 142 644 156 646 142 z m 206 540 b 222 561 217 540 221 547 b 206 583 222 576 215 583 b 193 561 196 583 194 576 b 206 540 193 547 196 540 z m 206 544 b 200 561 203 544 200 547 b 206 578 200 576 203 578 b 214 561 210 578 214 576 b 206 544 213 547 210 544 z m 513 269 b 542 282 518 268 532 276 b 542 285 544 283 547 289 b 524 282 535 283 531 282 b 506 289 517 282 510 283 b 496 311 499 293 497 301 l 560 311 b 561 322 560 315 561 318 b 549 349 561 333 557 342 b 522 360 543 357 533 360 b 493 349 510 360 501 356 b 481 314 485 339 481 326 b 493 281 479 299 483 289 b 513 269 499 275 504 269 z m 90 625 l 124 625 l 126 635 l 104 635 l 106 650 l 126 650 l 131 660 l 110 660 l 113 674 l 133 674 l 135 683 l 101 683 z m 544 324 l 496 324 b 506 340 496 331 500 335 b 522 347 508 344 515 347 b 540 340 531 347 535 343 b 544 324 544 335 544 331 z m 228 540 l 233 540 l 233 576 l 243 540 l 247 540 l 257 576 l 256 540 l 263 540 l 263 583 l 253 583 l 246 551 l 244 551 l 238 583 l 228 583 z m 725 142 b 749 176 746 142 749 156 b 724 211 749 197 746 211 b 701 176 704 211 701 197 b 725 142 701 156 704 142 z m 725 151 b 717 176 717 151 717 158 b 725 201 717 194 717 201 b 735 176 733 201 735 194 b 725 151 735 158 733 151 z m 133 625 l 146 625 l 151 650 l 158 650 b 164 642 163 650 164 647 l 161 631 b 161 625 160 628 160 626 l 175 625 b 174 635 172 626 172 631 b 168 653 176 649 176 653 b 182 668 174 656 181 660 b 168 683 183 678 178 683 l 146 683 z m 158 658 l 153 658 l 156 675 l 161 675 b 168 667 168 675 169 672 b 158 658 168 660 163 658 z m 271 540 l 278 540 l 279 576 l 286 540 l 292 540 l 303 576 l 301 540 l 308 540 l 307 583 l 296 583 l 289 551 l 281 583 l 271 583 z m 626 281 b 610 294 615 281 610 285 b 618 308 610 300 613 306 b 638 315 624 314 629 315 b 647 314 639 315 643 315 l 646 292 b 626 281 642 285 635 281 z m 201 624 b 225 642 213 624 224 628 b 217 657 226 649 225 653 l 208 661 b 204 669 204 664 203 665 b 213 676 206 674 206 676 b 218 667 217 676 218 674 l 228 667 l 231 668 b 215 685 232 681 225 685 b 192 668 203 685 196 681 b 203 650 190 658 193 653 b 211 640 211 647 213 644 b 203 632 213 635 207 632 b 199 642 196 632 197 635 l 197 643 l 186 643 l 185 640 b 201 624 182 631 186 624 z m 763 142 l 776 142 l 776 197 l 788 142 l 799 142 l 813 197 l 811 142 l 824 142 l 824 210 l 804 210 l 793 161 l 783 210 l 764 210 z m 14 747 l 15 747 l 83 833 l 14 833 z m 314 540 l 338 540 l 338 547 l 321 547 l 321 560 l 338 560 l 338 565 l 321 565 l 322 576 l 339 576 l 338 583 l 314 583 z m 621 268 b 646 278 632 268 642 272 b 656 283 650 281 653 281 b 663 292 660 285 664 289 l 663 324 b 654 351 664 335 660 344 b 632 360 650 357 642 358 b 604 342 626 360 608 347 b 604 339 601 336 604 339 b 628 344 611 343 618 344 b 646 325 642 344 646 339 b 636 326 643 325 640 326 b 606 317 624 326 613 324 b 596 294 599 311 594 303 b 601 275 594 286 597 281 b 621 268 607 269 614 268 z m 600 268 b 597 272 600 268 603 272 b 585 297 590 274 585 285 l 585 482 b 572 478 585 482 575 481 b 569 468 569 475 569 468 l 571 294 b 600 268 569 276 581 268 z m 344 540 l 351 540 l 351 558 l 356 558 b 363 551 361 558 364 557 b 364 543 364 549 363 547 b 364 540 364 542 365 542 l 372 540 b 371 543 372 542 369 542 b 369 553 369 547 371 550 b 364 561 369 558 368 561 b 369 572 368 561 369 567 b 360 583 369 581 365 583 l 344 583 z m 356 564 l 350 564 l 351 578 l 356 578 b 363 572 361 578 364 575 b 356 564 363 567 361 564 z m 249 624 b 278 656 268 624 272 636 b 263 685 282 672 282 685 b 236 656 246 685 242 672 b 249 624 232 636 232 624 z m 253 632 b 247 656 244 632 244 639 b 261 676 251 669 254 676 b 264 656 268 676 268 669 b 253 632 261 639 260 632 z m 389 540 b 403 556 401 540 403 547 l 397 556 b 389 544 396 551 396 544 b 383 561 385 544 383 549 b 389 578 383 575 385 578 b 397 569 394 578 397 575 l 404 569 b 390 583 403 575 403 583 b 376 561 379 583 378 576 b 389 540 376 547 379 540 z m 408 540 l 417 540 l 415 583 l 407 583 z m 282 625 l 293 625 l 301 667 l 308 625 l 321 625 l 335 683 l 322 683 l 314 643 l 308 683 l 294 683 z m 78 747 l 157 747 l 222 833 l 143 833 z m 419 540 l 426 540 l 429 550 l 442 550 l 444 540 l 451 540 l 439 583 l 431 583 z m 431 557 l 436 576 l 440 557 z m 597 406 l 594 403 b 649 425 615 411 628 415 b 657 433 651 425 654 431 b 664 439 660 433 665 439 l 611 418 b 601 410 608 417 604 414 b 597 406 600 410 594 406 z m 483 535 l 482 532 b 489 540 488 532 490 535 l 490 549 l 483 549 l 483 540 l 485 540 b 483 535 485 536 485 535 z m 454 540 l 478 540 l 478 547 l 461 547 l 461 583 l 454 583 z m 329 625 l 343 625 l 347 636 l 363 636 l 363 625 l 376 625 l 372 683 l 358 683 z m 351 647 l 364 674 l 364 647 z m 385 625 l 418 625 l 421 635 l 399 635 l 410 683 l 397 683 z m 510 540 l 517 540 l 517 558 l 522 558 b 535 569 531 558 533 564 b 522 583 535 578 531 583 l 510 583 z m 521 564 l 515 564 l 517 578 l 521 578 b 529 569 526 578 528 575 b 521 564 528 565 524 564 z m 539 540 l 563 540 l 563 547 l 546 547 l 546 583 l 539 583 z m 218 747 l 297 747 l 363 833 l 285 833 z m 568 540 l 592 540 l 592 547 l 575 547 l 575 560 l 590 560 l 589 565 l 575 565 l 575 576 l 592 576 l 590 583 l 568 583 z m 469 624 b 493 642 479 624 490 626 l 501 683 l 489 683 l 482 642 b 471 632 479 636 476 632 b 467 642 467 632 464 636 l 475 683 l 463 683 l 456 642 b 469 624 451 626 460 624 z m 593 540 l 600 540 l 604 550 l 615 550 l 618 540 l 625 540 l 614 583 l 604 583 z m 606 557 l 611 576 l 615 557 z m 515 624 b 542 642 529 624 539 628 b 533 657 543 649 542 653 l 525 661 b 521 669 519 664 519 665 b 529 676 522 674 522 676 b 533 667 533 676 535 674 l 544 667 l 546 668 b 529 685 549 681 542 685 b 508 668 519 685 513 681 b 519 650 507 658 510 653 b 528 640 528 647 529 644 b 519 632 529 635 524 632 b 514 642 513 632 514 635 l 514 643 l 501 643 l 501 640 b 515 624 499 631 503 624 z m 639 540 b 654 551 650 540 656 543 b 646 564 654 558 651 561 l 642 565 b 635 574 636 567 635 568 b 639 578 636 576 638 578 b 646 574 644 578 647 576 l 646 572 l 653 572 l 653 574 b 640 583 654 576 651 583 b 628 572 632 583 628 581 b 636 560 628 565 632 561 l 642 558 b 649 550 646 557 649 556 b 640 544 649 549 644 544 b 635 551 636 544 635 547 l 635 553 l 628 553 b 639 540 628 547 629 540 z m 661 540 l 685 540 l 685 547 l 668 547 l 668 560 l 683 560 l 683 565 l 668 565 l 669 576 l 683 576 l 682 583 l 661 583 z m 549 625 l 582 625 l 585 635 l 563 635 l 564 650 l 585 650 l 589 660 l 568 660 l 572 674 l 592 674 l 594 683 l 561 683 z m 360 747 l 438 747 l 504 833 l 425 833 z m 710 540 l 718 540 l 728 583 l 721 583 l 714 549 l 706 583 l 699 583 z m 731 540 l 738 540 l 738 583 l 731 583 z m 635 624 b 661 656 653 624 657 636 b 649 685 667 672 667 685 b 621 656 629 685 625 672 b 635 624 618 636 615 624 z m 636 632 b 632 656 629 632 629 639 b 646 676 636 669 639 676 b 649 656 653 676 653 669 b 636 632 646 639 644 632 z m 758 540 b 771 551 767 540 772 543 b 763 564 771 558 769 561 l 758 565 b 751 574 754 567 751 568 b 758 578 753 576 754 578 b 763 574 761 578 764 576 l 763 572 l 771 572 l 771 574 b 757 583 772 576 769 583 b 744 572 749 583 744 581 b 754 560 744 565 749 561 l 758 558 b 765 550 764 557 765 556 b 757 544 765 549 763 544 b 751 551 753 544 751 547 l 751 553 l 744 553 b 758 540 744 547 746 540 z m 778 540 l 785 540 l 785 583 l 778 583 z m 797 540 l 806 540 l 807 576 l 817 576 l 815 583 l 788 583 l 789 576 l 799 576 z m 667 625 l 678 625 l 686 667 l 693 625 l 707 625 l 719 683 l 708 683 l 700 643 l 693 683 l 679 683 z m 719 625 l 751 625 l 756 635 l 733 635 l 743 683 l 731 683 z m 499 747 l 579 747 l 644 833 l 564 833 z m 804 625 l 815 625 l 818 635 l 807 635 z m 765 625 l 778 625 l 783 649 l 806 683 l 793 683 l 781 661 l 776 683 l 763 683 l 771 649 z m 810 642 l 818 642 l 825 665 l 828 683 l 817 683 l 813 665 z m 639 747 l 719 747 l 785 833 l 706 833 z m 781 747 l 849 747 l 850 833 l 846 833 z "},"9":{"ha":864,"x_min":0,"x_max":0,"o":"m 210 367 b 224 375 214 368 222 372 b 226 385 226 378 226 382 b 221 390 225 386 221 389 l 222 392 l 224 392 b 483 456 256 400 442 435 b 496 461 489 457 493 460 l 501 467 b 499 467 503 468 501 468 b 233 403 451 447 265 414 b 224 397 228 401 226 399 l 215 390 b 217 381 213 386 213 383 b 215 372 219 376 218 374 b 210 368 214 372 211 369 b 210 367 210 368 208 367 z m 15 0 l 17 0 l 83 86 l 15 86 z m 78 0 l 158 0 l 224 86 l 144 86 z m 44 142 l 58 142 l 58 190 l 75 142 l 90 142 l 90 210 l 79 210 l 78 164 l 63 210 l 46 210 z m 101 142 l 117 142 l 118 157 l 136 157 l 140 142 l 154 142 l 138 210 l 121 210 z m 218 0 l 299 0 l 364 86 l 286 86 z m 121 168 l 128 199 l 135 168 z m 167 142 l 178 142 l 179 197 l 192 142 l 201 142 l 214 197 l 213 142 l 226 142 l 226 210 l 207 210 l 196 161 l 188 210 l 167 210 z m 243 142 l 282 142 l 281 153 l 256 153 l 256 172 l 279 172 l 281 183 l 257 183 l 256 199 l 279 199 l 281 210 l 243 210 z m 360 0 l 439 0 l 506 86 l 425 86 z m 294 142 l 333 142 l 333 153 l 308 153 l 308 210 l 296 210 z m 342 142 l 354 142 l 358 157 l 376 157 l 379 142 l 393 142 l 376 210 l 358 210 z m 361 168 l 365 199 l 368 199 l 374 168 z m 199 335 l 199 269 b 211 272 199 269 208 269 b 215 281 215 275 215 281 l 215 335 b 222 343 217 339 219 342 b 235 347 226 344 231 347 b 249 340 242 347 244 344 b 253 322 251 336 253 331 l 253 281 b 254 272 253 281 254 275 b 269 269 258 268 269 269 l 268 325 b 240 360 268 349 258 360 b 215 347 229 360 219 356 b 201 340 211 343 208 344 b 199 335 199 339 199 335 z m 500 0 l 581 0 l 646 86 l 565 86 z m 411 142 l 425 142 l 424 199 l 439 199 l 440 210 l 397 210 l 396 199 l 411 199 z m 308 281 b 292 294 299 281 292 285 b 300 308 292 300 294 306 b 321 315 306 314 313 315 b 331 314 322 315 325 315 l 329 292 b 308 281 322 285 317 281 z m 301 268 b 329 278 314 268 322 272 b 338 283 332 281 335 281 b 344 292 342 285 346 289 l 344 324 b 336 351 346 335 342 344 b 314 360 331 357 324 358 b 286 342 308 360 292 347 b 288 339 283 336 288 339 b 310 344 293 343 300 344 b 329 325 324 344 329 339 b 318 326 325 325 322 326 b 288 317 307 326 296 324 b 276 294 279 311 276 303 b 285 275 276 286 281 281 b 301 268 290 269 296 268 z m 465 142 l 478 142 l 478 168 l 497 210 l 482 210 l 472 183 l 464 210 l 449 210 l 465 168 z m 279 356 b 292 378 281 356 293 376 b 279 393 285 381 279 386 b 276 393 278 394 276 393 b 274 386 275 392 274 390 l 267 374 b 279 356 265 365 274 358 z m 508 142 l 521 142 l 522 169 l 531 169 b 551 190 542 169 551 176 b 532 210 551 200 547 210 l 508 210 z m 51 540 l 58 540 l 58 560 l 74 560 l 72 565 l 58 565 l 58 576 l 75 576 l 74 583 l 51 583 z m 528 181 l 521 181 l 521 200 l 528 200 b 538 190 535 200 538 197 b 528 181 538 183 533 181 z m 640 0 l 719 0 l 786 86 l 707 86 z m 93 540 b 107 561 103 540 107 547 b 93 583 107 576 103 583 b 78 561 82 583 79 576 b 93 540 78 547 83 540 z m 93 544 b 86 561 88 544 86 547 b 93 578 88 576 88 578 b 100 561 96 578 100 576 b 93 544 100 547 96 544 z m 356 269 b 367 272 356 269 364 269 b 369 281 371 275 369 281 l 371 335 b 378 343 371 339 374 340 b 389 347 382 344 385 347 b 400 343 393 347 396 344 b 404 332 403 340 404 336 l 406 269 b 417 272 406 269 414 269 b 422 281 421 276 422 281 l 422 335 b 428 343 421 339 425 340 b 439 347 432 344 435 347 b 457 325 450 347 457 340 l 457 281 b 458 274 457 281 457 275 b 472 269 463 269 472 269 l 472 328 b 465 351 471 339 471 347 b 443 360 460 357 451 360 b 428 357 439 360 433 358 b 418 349 424 353 419 351 b 392 360 413 356 406 360 b 369 349 383 360 374 356 b 357 339 367 343 360 342 l 356 333 z m 565 142 l 603 142 l 603 153 l 578 153 l 578 172 l 599 172 l 600 183 l 579 183 l 578 199 l 601 199 l 601 210 l 565 210 z m 617 142 l 629 142 l 631 157 l 617 157 z m 113 540 l 121 540 l 121 558 l 126 558 b 132 551 131 558 133 557 b 133 543 133 549 133 547 l 133 540 l 142 540 b 140 543 142 542 140 542 l 140 553 b 133 561 139 558 136 561 b 139 572 139 561 140 567 b 128 583 140 581 135 583 l 113 583 z m 125 564 l 121 564 l 121 578 l 126 578 b 133 572 131 578 133 575 b 125 564 133 567 129 564 z m 175 540 b 189 556 185 540 188 547 l 182 556 b 174 544 181 551 179 544 b 168 561 169 544 168 549 b 175 578 168 575 169 578 b 182 569 179 578 182 575 l 189 569 b 174 583 189 575 186 583 b 160 561 163 583 161 576 b 175 540 160 547 163 540 z m 42 625 l 54 625 l 60 649 l 67 649 b 89 667 76 649 86 653 b 76 683 89 675 88 683 l 54 683 z m 782 0 l 850 0 l 850 86 l 847 86 z m 67 657 l 61 657 l 64 675 l 69 675 b 76 667 76 675 78 672 b 67 657 75 660 71 657 z m 668 142 b 690 168 685 142 689 153 l 675 168 b 667 151 675 153 672 151 b 658 175 663 151 658 156 b 667 201 658 194 660 201 b 675 186 674 201 675 197 l 688 186 b 668 211 689 197 686 211 b 644 176 646 211 646 197 b 668 142 644 156 646 142 z m 206 540 b 222 561 217 540 221 547 b 206 583 222 576 215 583 b 193 561 196 583 194 576 b 206 540 193 547 196 540 z m 206 544 b 200 561 203 544 200 547 b 206 578 200 576 203 578 b 214 561 210 578 214 576 b 206 544 213 547 210 544 z m 513 269 b 542 282 518 268 532 276 b 542 285 544 283 547 289 b 524 282 535 283 531 282 b 506 289 517 282 510 283 b 496 311 499 293 497 301 l 560 311 b 561 322 560 315 561 318 b 549 349 561 333 557 342 b 522 360 543 357 533 360 b 493 349 510 360 501 356 b 481 314 485 339 481 326 b 493 281 479 299 483 289 b 513 269 499 275 504 269 z m 90 625 l 124 625 l 126 635 l 104 635 l 106 650 l 126 650 l 131 660 l 110 660 l 113 674 l 133 674 l 135 683 l 101 683 z m 544 324 l 496 324 b 506 340 496 331 500 335 b 522 347 508 344 515 347 b 540 340 531 347 535 343 b 544 324 544 335 544 331 z m 228 540 l 233 540 l 233 576 l 243 540 l 247 540 l 257 576 l 256 540 l 263 540 l 263 583 l 253 583 l 246 551 l 244 551 l 238 583 l 228 583 z m 725 142 b 749 176 746 142 749 156 b 724 211 749 197 746 211 b 701 176 704 211 701 197 b 725 142 701 156 704 142 z m 725 151 b 717 176 717 151 717 158 b 725 201 717 194 717 201 b 735 176 733 201 735 194 b 725 151 735 158 733 151 z m 133 625 l 146 625 l 151 650 l 158 650 b 164 642 163 650 164 647 l 161 631 b 161 625 160 628 160 626 l 175 625 b 174 635 172 626 172 631 b 168 653 176 649 176 653 b 182 668 174 656 181 660 b 168 683 183 678 178 683 l 146 683 z m 158 658 l 153 658 l 156 675 l 161 675 b 168 667 168 675 169 672 b 158 658 168 660 163 658 z m 271 540 l 278 540 l 279 576 l 286 540 l 292 540 l 303 576 l 301 540 l 308 540 l 307 583 l 296 583 l 289 551 l 281 583 l 271 583 z m 626 281 b 610 294 615 281 610 285 b 618 308 610 300 613 306 b 638 315 624 314 629 315 b 647 314 639 315 643 315 l 646 292 b 626 281 642 285 635 281 z m 201 624 b 225 642 213 624 224 628 b 217 657 226 649 225 653 l 208 661 b 204 669 204 664 203 665 b 213 676 206 674 206 676 b 218 667 217 676 218 674 l 228 667 l 231 668 b 215 685 232 681 225 685 b 192 668 203 685 196 681 b 203 650 190 658 193 653 b 211 640 211 647 213 644 b 203 632 213 635 207 632 b 199 642 196 632 197 635 l 197 643 l 186 643 l 185 640 b 201 624 182 631 186 624 z m 763 142 l 776 142 l 776 197 l 788 142 l 799 142 l 813 197 l 811 142 l 824 142 l 824 210 l 804 210 l 793 161 l 783 210 l 764 210 z m 14 747 l 15 747 l 83 833 l 14 833 z m 314 540 l 338 540 l 338 547 l 321 547 l 321 560 l 338 560 l 338 565 l 321 565 l 322 576 l 339 576 l 338 583 l 314 583 z m 621 268 b 646 278 632 268 642 272 b 656 283 650 281 653 281 b 663 292 660 285 664 289 l 663 324 b 654 351 664 335 660 344 b 632 360 650 357 642 358 b 604 342 626 360 608 347 b 604 339 601 336 604 339 b 628 344 611 343 618 344 b 646 325 642 344 646 339 b 636 326 643 325 640 326 b 606 317 624 326 613 324 b 596 294 599 311 594 303 b 601 275 594 286 597 281 b 621 268 607 269 614 268 z m 600 268 b 597 272 600 268 603 272 b 585 297 590 274 585 285 l 585 482 b 572 478 585 482 575 481 b 569 468 569 475 569 468 l 571 294 b 600 268 569 276 581 268 z m 344 540 l 351 540 l 351 558 l 356 558 b 363 551 361 558 364 557 b 364 543 364 549 363 547 b 364 540 364 542 365 542 l 372 540 b 371 543 372 542 369 542 b 369 553 369 547 371 550 b 364 561 369 558 368 561 b 369 572 368 561 369 567 b 360 583 369 581 365 583 l 344 583 z m 356 564 l 350 564 l 351 578 l 356 578 b 363 572 361 578 364 575 b 356 564 363 567 361 564 z m 249 624 b 278 656 268 624 272 636 b 263 685 282 672 282 685 b 236 656 246 685 242 672 b 249 624 232 636 232 624 z m 253 632 b 247 656 244 632 244 639 b 261 676 251 669 254 676 b 264 656 268 676 268 669 b 253 632 261 639 260 632 z m 389 540 b 403 556 401 540 403 547 l 397 556 b 389 544 396 551 396 544 b 383 561 385 544 383 549 b 389 578 383 575 385 578 b 397 569 394 578 397 575 l 404 569 b 390 583 403 575 403 583 b 376 561 379 583 378 576 b 389 540 376 547 379 540 z m 408 540 l 417 540 l 415 583 l 407 583 z m 282 625 l 293 625 l 301 667 l 308 625 l 321 625 l 335 683 l 322 683 l 314 643 l 308 683 l 294 683 z m 78 747 l 157 747 l 222 833 l 143 833 z m 419 540 l 426 540 l 429 550 l 442 550 l 444 540 l 451 540 l 439 583 l 431 583 z m 431 557 l 436 576 l 440 557 z m 597 406 l 594 403 b 649 425 615 411 628 415 b 657 433 651 425 654 431 b 664 439 660 433 665 439 l 611 418 b 601 410 608 417 604 414 b 597 406 600 410 594 406 z m 483 535 l 482 532 b 489 540 488 532 490 535 l 490 549 l 483 549 l 483 540 l 485 540 b 483 535 485 536 485 535 z m 454 540 l 478 540 l 478 547 l 461 547 l 461 583 l 454 583 z m 329 625 l 343 625 l 347 636 l 363 636 l 363 625 l 376 625 l 372 683 l 358 683 z m 351 647 l 364 674 l 364 647 z m 385 625 l 418 625 l 421 635 l 399 635 l 410 683 l 397 683 z m 510 540 l 517 540 l 517 558 l 522 558 b 535 569 531 558 533 564 b 522 583 535 578 531 583 l 510 583 z m 521 564 l 515 564 l 517 578 l 521 578 b 529 569 526 578 528 575 b 521 564 528 565 524 564 z m 539 540 l 563 540 l 563 547 l 546 547 l 546 583 l 539 583 z m 218 747 l 297 747 l 363 833 l 285 833 z m 568 540 l 592 540 l 592 547 l 575 547 l 575 560 l 590 560 l 589 565 l 575 565 l 575 576 l 592 576 l 590 583 l 568 583 z m 469 624 b 493 642 479 624 490 626 l 501 683 l 489 683 l 482 642 b 471 632 479 636 476 632 b 467 642 467 632 464 636 l 475 683 l 463 683 l 456 642 b 469 624 451 626 460 624 z m 593 540 l 600 540 l 604 550 l 615 550 l 618 540 l 625 540 l 614 583 l 604 583 z m 606 557 l 611 576 l 615 557 z m 515 624 b 542 642 529 624 539 628 b 533 657 543 649 542 653 l 525 661 b 521 669 519 664 519 665 b 529 676 522 674 522 676 b 533 667 533 676 535 674 l 544 667 l 546 668 b 529 685 549 681 542 685 b 508 668 519 685 513 681 b 519 650 507 658 510 653 b 528 640 528 647 529 644 b 519 632 529 635 524 632 b 514 642 513 632 514 635 l 514 643 l 501 643 l 501 640 b 515 624 499 631 503 624 z m 639 540 b 654 551 650 540 656 543 b 646 564 654 558 651 561 l 642 565 b 635 574 636 567 635 568 b 639 578 636 576 638 578 b 646 574 644 578 647 576 l 646 572 l 653 572 l 653 574 b 640 583 654 576 651 583 b 628 572 632 583 628 581 b 636 560 628 565 632 561 l 642 558 b 649 550 646 557 649 556 b 640 544 649 549 644 544 b 635 551 636 544 635 547 l 635 553 l 628 553 b 639 540 628 547 629 540 z m 661 540 l 685 540 l 685 547 l 668 547 l 668 560 l 683 560 l 683 565 l 668 565 l 669 576 l 683 576 l 682 583 l 661 583 z m 549 625 l 582 625 l 585 635 l 563 635 l 564 650 l 585 650 l 589 660 l 568 660 l 572 674 l 592 674 l 594 683 l 561 683 z m 360 747 l 438 747 l 504 833 l 425 833 z m 710 540 l 718 540 l 728 583 l 721 583 l 714 549 l 706 583 l 699 583 z m 731 540 l 738 540 l 738 583 l 731 583 z m 635 624 b 661 656 653 624 657 636 b 649 685 667 672 667 685 b 621 656 629 685 625 672 b 635 624 618 636 615 624 z m 636 632 b 632 656 629 632 629 639 b 646 676 636 669 639 676 b 649 656 653 676 653 669 b 636 632 646 639 644 632 z m 758 540 b 771 551 767 540 772 543 b 763 564 771 558 769 561 l 758 565 b 751 574 754 567 751 568 b 758 578 753 576 754 578 b 763 574 761 578 764 576 l 763 572 l 771 572 l 771 574 b 757 583 772 576 769 583 b 744 572 749 583 744 581 b 754 560 744 565 749 561 l 758 558 b 765 550 764 557 765 556 b 757 544 765 549 763 544 b 751 551 753 544 751 547 l 751 553 l 744 553 b 758 540 744 547 746 540 z m 778 540 l 785 540 l 785 583 l 778 583 z m 797 540 l 806 540 l 807 576 l 817 576 l 815 583 l 788 583 l 789 576 l 799 576 z m 667 625 l 678 625 l 686 667 l 693 625 l 707 625 l 719 683 l 708 683 l 700 643 l 693 683 l 679 683 z m 719 625 l 751 625 l 756 635 l 733 635 l 743 683 l 731 683 z m 499 747 l 579 747 l 644 833 l 564 833 z m 804 625 l 815 625 l 818 635 l 807 635 z m 765 625 l 778 625 l 783 649 l 806 683 l 793 683 l 781 661 l 776 683 l 763 683 l 771 649 z m 810 642 l 818 642 l 825 665 l 828 683 l 817 683 l 813 665 z m 639 747 l 719 747 l 785 833 l 706 833 z m 781 747 l 849 747 l 850 833 l 846 833 z "}," ":{"ha":278,"x_min":0,"x_max":0,"o":""},"A":{"ha":975,"x_min":0,"x_max":0,"o":"m 92 -15 b 178 31 135 -31 169 -4 b 249 318 199 114 219 213 b 660 296 369 311 582 296 b 781 65 699 214 740 135 b 894 -6 799 35 835 -33 b 917 93 926 8 935 56 b 606 686 860 214 693 447 b 567 871 586 738 569 781 b 647 986 611 899 644 947 b 582 1079 651 1047 624 1079 b 490 960 538 1079 504 1029 b 51 100 324 794 85 276 b 92 -15 44 50 47 1 z m 268 386 b 483 839 314 536 378 694 b 608 411 493 717 543 563 b 268 386 496 407 386 383 z "},"Á":{"ha":975,"x_min":0,"x_max":0,"o":"m 92 -15 b 178 31 135 -31 169 -4 b 249 318 199 114 219 213 b 660 296 369 311 582 296 b 781 65 699 214 740 135 b 894 -6 799 35 835 -33 b 917 93 926 8 935 56 b 606 686 860 214 693 447 b 567 871 586 738 569 781 b 647 986 611 899 644 947 b 582 1079 651 1047 624 1079 b 490 960 538 1079 504 1029 b 51 100 324 794 85 276 b 92 -15 44 50 47 1 z m 578 1164 b 803 1432 671 1185 801 1368 b 772 1471 804 1454 789 1471 b 724 1433 754 1472 739 1463 b 550 1249 694 1376 628 1292 b 521 1186 518 1231 514 1204 b 578 1164 529 1168 549 1157 z m 268 386 b 483 839 314 536 378 694 b 608 411 493 717 543 563 b 268 386 496 407 386 383 z "},"Ă":{"ha":975,"x_min":0,"x_max":0,"o":"m 92 -15 b 178 31 135 -31 169 -4 b 249 318 199 114 219 213 b 660 296 369 311 582 296 b 781 65 699 214 740 135 b 894 -6 799 35 835 -33 b 917 93 926 8 935 56 b 606 686 860 214 693 447 b 567 871 586 738 569 781 b 647 986 611 899 644 947 b 582 1079 651 1047 624 1079 b 490 960 538 1079 504 1029 b 51 100 324 794 85 276 b 92 -15 44 50 47 1 z m 568 1139 b 731 1372 742 1139 763 1324 b 671 1393 714 1400 689 1401 b 654 1326 653 1385 646 1365 b 568 1192 671 1251 654 1192 b 482 1321 482 1192 468 1258 b 465 1386 490 1358 483 1378 b 406 1367 447 1394 422 1393 b 568 1139 374 1318 394 1139 z m 268 386 b 483 839 314 536 378 694 b 608 411 493 717 543 563 b 268 386 496 407 386 383 z "},"Ǎ":{"ha":975,"x_min":0,"x_max":0,"o":"m 92 -15 b 178 31 135 -31 169 -4 b 249 318 199 114 219 213 b 660 296 369 311 582 296 b 781 65 699 214 740 135 b 894 -6 799 35 835 -33 b 917 93 926 8 935 56 b 606 686 860 214 693 447 b 567 871 586 738 569 781 b 647 986 611 899 644 947 b 582 1079 651 1047 624 1079 b 490 960 538 1079 504 1029 b 51 100 324 794 85 276 b 92 -15 44 50 47 1 z m 736 1414 b 564 1249 679 1401 606 1318 b 393 1414 524 1318 450 1401 b 342 1394 367 1421 349 1411 b 367 1338 335 1378 339 1354 b 524 1168 438 1297 493 1219 b 565 1138 535 1149 550 1138 b 606 1168 579 1138 594 1147 b 763 1338 633 1219 692 1297 b 788 1394 790 1354 794 1378 b 736 1414 781 1411 763 1421 z m 268 386 b 483 839 314 536 378 694 b 608 411 493 717 543 563 b 268 386 496 407 386 383 z "},"Â":{"ha":975,"x_min":0,"x_max":0,"o":"m 92 -15 b 178 31 135 -31 169 -4 b 249 318 199 114 219 213 b 660 296 369 311 582 296 b 781 65 699 214 740 135 b 894 -6 799 35 835 -33 b 917 93 926 8 935 56 b 606 686 860 214 693 447 b 567 871 586 738 569 781 b 647 986 611 899 644 947 b 582 1079 651 1047 624 1079 b 490 960 538 1079 504 1029 b 51 100 324 794 85 276 b 92 -15 44 50 47 1 z m 401 1164 b 574 1329 458 1176 532 1260 b 744 1164 614 1260 688 1176 b 796 1183 771 1157 789 1167 b 771 1240 803 1200 799 1224 b 614 1410 700 1281 644 1358 b 572 1440 603 1429 588 1440 b 532 1410 558 1440 543 1431 b 375 1240 504 1358 446 1281 b 350 1183 347 1224 343 1200 b 401 1164 357 1167 375 1157 z m 268 386 b 483 839 314 536 378 694 b 608 411 493 717 543 563 b 268 386 496 407 386 383 z "},"Ä":{"ha":975,"x_min":0,"x_max":0,"o":"m 92 -15 b 178 31 135 -31 169 -4 b 249 318 199 114 219 213 b 660 296 369 311 582 296 b 781 65 699 214 740 135 b 894 -6 799 35 835 -33 b 917 93 926 8 935 56 b 606 686 860 214 693 447 b 567 871 586 738 569 781 b 647 986 611 899 644 947 b 582 1079 651 1047 624 1079 b 490 960 538 1079 504 1029 b 51 100 324 794 85 276 b 92 -15 44 50 47 1 z m 697 1171 b 756 1235 733 1171 756 1196 b 675 1308 756 1283 713 1308 b 617 1253 638 1308 617 1290 b 697 1171 617 1201 656 1171 z m 461 1171 b 519 1235 497 1171 519 1196 b 439 1308 519 1283 476 1308 b 381 1253 401 1308 381 1290 b 461 1171 381 1201 419 1171 z m 268 386 b 483 839 314 536 378 694 b 608 411 493 717 543 563 b 268 386 496 407 386 383 z "},"À":{"ha":975,"x_min":0,"x_max":0,"o":"m 92 -15 b 178 31 135 -31 169 -4 b 249 318 199 114 219 213 b 660 296 369 311 582 296 b 781 65 699 214 740 135 b 894 -6 799 35 835 -33 b 917 93 926 8 935 56 b 606 686 860 214 693 447 b 567 871 586 738 569 781 b 647 986 611 899 644 947 b 582 1079 651 1047 624 1079 b 490 960 538 1079 504 1029 b 51 100 324 794 85 276 b 92 -15 44 50 47 1 z m 563 1164 b 619 1186 592 1157 611 1168 b 590 1249 626 1204 622 1231 b 417 1433 513 1292 446 1376 b 368 1471 401 1463 386 1472 b 338 1432 351 1471 336 1454 b 563 1164 339 1368 469 1185 z m 268 386 b 483 839 314 536 378 694 b 608 411 493 717 543 563 b 268 386 496 407 386 383 z "},"Ā":{"ha":975,"x_min":0,"x_max":0,"o":"m 92 -15 b 178 31 135 -31 169 -4 b 249 318 199 114 219 213 b 660 296 369 311 582 296 b 781 65 699 214 740 135 b 894 -6 799 35 835 -33 b 917 93 926 8 935 56 b 606 686 860 214 693 447 b 567 871 586 738 569 781 b 647 986 611 899 644 947 b 582 1079 651 1047 624 1079 b 490 960 538 1079 504 1029 b 51 100 324 794 85 276 b 92 -15 44 50 47 1 z m 399 1167 b 747 1197 479 1117 703 1153 b 754 1247 764 1213 767 1235 b 693 1254 742 1260 725 1264 b 439 1247 632 1235 526 1222 b 375 1224 404 1257 382 1240 b 399 1167 368 1204 375 1183 z m 268 386 b 483 839 314 536 378 694 b 608 411 493 717 543 563 b 268 386 496 407 386 383 z "},"Ą":{"ha":975,"x_min":0,"x_max":0,"o":"m 92 -15 b 178 31 135 -31 169 -4 b 249 318 199 114 219 213 b 660 296 369 311 582 296 b 781 65 699 214 740 135 b 817 13 789 51 801 29 b 724 -144 757 -32 724 -89 b 861 -269 724 -206 769 -269 b 969 -237 908 -269 953 -254 b 972 -176 985 -219 986 -194 b 907 -178 956 -156 931 -165 b 844 -196 886 -190 864 -197 b 793 -137 815 -194 793 -176 b 883 -11 793 -97 829 -37 l 890 -7 l 894 -6 b 917 93 926 8 935 56 b 606 686 860 214 693 447 b 567 871 586 738 569 781 b 647 986 611 899 644 947 b 582 1079 651 1047 624 1079 b 490 960 538 1079 504 1029 b 51 100 324 794 85 276 b 92 -15 44 50 47 1 z m 268 386 b 483 839 314 536 378 694 b 608 411 493 717 543 563 b 268 386 496 407 386 383 z "},"Å":{"ha":975,"x_min":0,"x_max":0,"o":"m 92 -15 b 178 31 135 -31 169 -4 b 249 318 199 114 219 213 b 660 296 369 311 582 296 b 781 65 699 214 740 135 b 894 -6 799 35 835 -33 b 917 93 926 8 935 56 b 606 686 860 214 693 447 b 567 871 586 738 569 781 b 647 986 611 899 644 947 b 646 1021 649 999 647 1010 b 713 1139 692 1046 713 1092 b 564 1292 713 1215 660 1292 b 424 1151 468 1292 424 1222 b 507 1014 424 1096 453 1038 b 490 960 500 997 494 979 b 51 100 324 794 85 276 b 92 -15 44 50 47 1 z m 268 386 b 483 839 314 536 378 694 b 608 411 493 717 543 563 b 268 386 496 407 386 383 z m 472 1149 b 567 1219 472 1183 501 1219 b 664 1143 629 1219 664 1182 b 597 1078 664 1114 643 1086 b 582 1079 593 1079 588 1079 b 561 1075 575 1079 568 1078 b 472 1149 503 1078 472 1115 z "},"Ã":{"ha":975,"x_min":0,"x_max":0,"o":"m 92 -15 b 178 31 135 -31 169 -4 b 249 318 199 114 219 213 b 660 296 369 311 582 296 b 781 65 699 214 740 135 b 894 -6 799 35 835 -33 b 917 93 926 8 935 56 b 606 686 860 214 693 447 b 567 871 586 738 569 781 b 647 986 611 899 644 947 b 582 1079 651 1047 624 1079 b 490 960 538 1079 504 1029 b 51 100 324 794 85 276 b 92 -15 44 50 47 1 z m 671 1142 b 799 1279 756 1142 806 1233 b 753 1321 794 1310 774 1321 b 713 1269 735 1321 722 1307 b 656 1206 701 1225 679 1206 b 479 1297 606 1203 572 1297 b 338 1154 381 1297 332 1200 b 383 1113 343 1124 363 1113 b 424 1164 401 1113 414 1128 b 494 1235 435 1208 457 1235 b 671 1142 554 1235 582 1142 z m 268 386 b 483 839 314 536 378 694 b 608 411 493 717 543 563 b 268 386 496 407 386 383 z "},"Æ":{"ha":1349,"x_min":0,"x_max":0,"o":"m 92 -15 b 178 31 135 -31 169 -4 b 246 318 197 111 218 210 b 647 296 360 313 560 297 b 642 60 640 218 635 142 b 708 -10 644 22 664 -12 b 781 79 754 -8 772 32 b 1144 -15 903 31 1044 -15 b 1293 61 1215 -15 1293 -1 b 1196 107 1296 99 1264 125 b 788 151 1104 82 918 117 b 760 513 790 247 781 376 b 1128 489 881 507 1093 486 b 1213 556 1201 496 1214 525 b 1126 607 1210 596 1175 607 b 747 582 990 607 886 572 b 654 944 725 710 693 838 b 1213 967 858 921 1128 939 b 1278 1049 1263 983 1288 1007 b 1175 1094 1268 1090 1235 1124 b 467 1088 1019 1018 626 993 b 415 1079 442 1103 422 1093 b 447 1004 407 1061 411 1029 b 479 986 457 997 467 992 b 51 100 314 799 85 272 b 92 -15 44 50 47 1 z m 264 388 b 550 964 318 581 400 792 l 560 961 b 650 672 594 878 639 751 b 657 413 664 576 663 492 l 647 413 b 264 388 519 413 397 382 z "},"B":{"ha":1063,"x_min":0,"x_max":0,"o":"m 185 -28 b 272 96 221 -28 250 19 l 286 154 l 290 150 b 656 -15 403 33 535 -15 b 986 258 856 -15 986 118 b 738 538 986 365 913 476 b 879 821 828 618 879 725 b 642 1069 879 979 768 1069 b 313 797 518 1071 381 986 b 297 921 308 842 304 883 b 215 1065 279 1026 254 1065 b 142 963 157 1065 142 1013 b 246 481 142 850 228 633 b 111 94 169 379 114 199 b 185 -28 108 24 131 -28 z m 371 403 b 674 489 489 403 592 436 b 913 256 846 436 913 342 b 706 76 913 160 826 76 b 357 243 606 76 481 128 b 303 249 340 258 321 258 b 318 422 310 303 315 361 b 371 403 331 408 349 403 z m 322 503 l 322 540 l 322 551 b 625 996 353 874 490 996 b 800 815 714 996 800 947 b 354 517 800 674 638 535 b 322 503 340 517 329 511 z "},"C":{"ha":938,"x_min":0,"x_max":0,"o":"m 511 -24 b 861 171 640 -24 775 39 b 861 258 883 204 894 235 b 783 226 832 279 799 258 b 526 50 722 110 618 50 b 176 444 356 50 176 172 b 754 883 176 743 450 946 b 819 928 786 878 810 900 b 667 1033 851 1010 757 1032 b 83 449 332 1036 83 757 b 511 -24 83 149 282 -24 z "},"Ć":{"ha":938,"x_min":0,"x_max":0,"o":"m 511 -24 b 861 171 640 -24 775 39 b 861 258 883 204 894 235 b 783 226 832 279 799 258 b 526 50 722 110 618 50 b 176 444 356 50 176 172 b 754 883 176 743 450 946 b 819 928 786 878 810 900 b 667 1033 851 1010 757 1032 b 83 449 332 1036 83 757 b 511 -24 83 149 282 -24 z m 651 1164 b 876 1432 744 1185 875 1368 b 846 1471 878 1454 863 1471 b 797 1433 828 1472 813 1463 b 624 1249 768 1376 701 1292 b 594 1186 592 1231 588 1204 b 651 1164 603 1168 622 1157 z "},"Č":{"ha":938,"x_min":0,"x_max":0,"o":"m 511 -24 b 861 171 640 -24 775 39 b 861 258 883 204 894 235 b 783 226 832 279 799 258 b 526 50 722 110 618 50 b 176 444 356 50 176 172 b 754 883 176 743 450 946 b 819 928 786 878 810 900 b 667 1033 851 1010 757 1032 b 83 449 332 1036 83 757 b 511 -24 83 149 282 -24 z m 810 1414 b 638 1249 753 1401 679 1318 b 467 1414 597 1318 524 1401 b 415 1394 440 1421 422 1411 b 440 1338 408 1378 413 1354 b 597 1168 511 1297 567 1219 b 639 1138 608 1149 624 1138 b 679 1168 653 1138 668 1147 b 836 1338 707 1219 765 1297 b 861 1394 864 1354 868 1378 b 810 1414 854 1411 836 1421 z "},"Ç":{"ha":938,"x_min":0,"x_max":0,"o":"m 494 -340 b 632 -211 586 -340 632 -275 b 508 -99 632 -156 593 -100 b 531 -24 521 -74 529 -46 b 861 171 654 -17 779 46 b 861 258 883 204 894 235 b 783 226 832 279 799 258 b 526 50 722 110 618 50 b 176 444 356 50 176 172 b 754 883 176 743 450 946 b 819 928 786 878 810 900 b 667 1033 851 1010 757 1032 b 83 449 332 1036 83 757 b 471 -22 83 167 260 -3 b 417 -122 464 -53 447 -93 b 417 -158 401 -137 408 -151 b 458 -156 428 -164 443 -164 b 471 -147 463 -153 467 -150 b 503 -144 483 -144 493 -144 b 579 -208 556 -144 579 -176 b 522 -267 579 -239 558 -267 b 449 -249 499 -267 471 -261 b 383 -247 425 -236 400 -226 b 386 -308 369 -265 371 -290 b 494 -340 403 -325 447 -340 z "},"Ċ":{"ha":938,"x_min":0,"x_max":0,"o":"m 511 -24 b 861 171 640 -24 775 39 b 861 258 883 204 894 235 b 783 226 832 279 799 258 b 526 50 722 110 618 50 b 176 444 356 50 176 172 b 754 883 176 743 450 946 b 819 928 786 878 810 900 b 667 1033 851 1010 757 1032 b 83 449 332 1036 83 757 b 511 -24 83 149 282 -24 z m 654 1171 b 722 1246 696 1171 722 1200 b 629 1331 722 1301 674 1331 b 561 1265 586 1331 561 1310 b 654 1171 561 1207 607 1171 z "},"D":{"ha":1078,"x_min":0,"x_max":0,"o":"m 326 6 b 994 597 717 -31 994 254 b 660 1061 994 903 832 1061 b 315 765 526 1061 386 964 b 297 921 311 822 306 875 b 215 1065 279 1026 254 1065 b 142 963 157 1065 142 1013 b 246 482 142 851 228 635 b 111 94 168 371 114 200 b 185 -28 108 24 131 -28 b 257 50 213 -28 238 1 b 326 6 265 25 292 8 z m 282 135 b 322 540 308 243 321 392 l 322 544 b 650 985 369 858 517 985 b 901 644 782 985 901 856 b 317 144 901 372 636 125 b 282 135 303 146 292 142 z "},"Ď":{"ha":1078,"x_min":0,"x_max":0,"o":"m 326 6 b 994 597 717 -31 994 254 b 660 1061 994 903 832 1061 b 315 765 526 1061 386 964 b 297 921 311 822 306 875 b 215 1065 279 1026 254 1065 b 142 963 157 1065 142 1013 b 246 482 142 851 228 635 b 111 94 168 371 114 200 b 185 -28 108 24 131 -28 b 257 50 213 -28 238 1 b 326 6 265 25 292 8 z m 717 1414 b 544 1249 660 1401 586 1318 b 374 1414 504 1318 431 1401 b 322 1394 347 1421 329 1411 b 347 1338 315 1378 319 1354 b 504 1168 418 1297 474 1219 b 546 1138 515 1149 531 1138 b 586 1168 560 1138 575 1147 b 743 1338 614 1219 672 1297 b 768 1394 771 1354 775 1378 b 717 1414 761 1411 743 1421 z m 282 135 b 322 540 308 243 321 392 l 322 544 b 650 985 369 858 517 985 b 901 644 782 985 901 856 b 317 144 901 372 636 125 b 282 135 303 146 292 142 z "},"Đ":{"ha":1078,"x_min":0,"x_max":0,"o":"m 326 6 b 994 597 717 -31 994 254 b 660 1061 994 903 832 1061 b 315 765 526 1061 386 964 b 297 921 311 822 306 875 b 215 1065 279 1026 254 1065 b 142 963 157 1065 142 1013 b 242 514 142 858 217 663 b 168 525 217 515 192 519 b 93 501 128 535 101 518 b 121 444 85 482 93 461 b 208 422 143 433 174 426 b 111 94 151 315 114 183 b 185 -28 108 24 131 -28 b 257 50 213 -28 238 1 b 326 6 265 25 292 8 z m 282 135 b 318 422 301 214 313 315 b 531 475 411 429 501 451 b 538 525 550 490 553 513 b 467 532 524 538 504 542 b 322 511 429 522 378 514 l 322 540 l 322 544 b 650 985 369 858 517 985 b 901 644 782 985 901 856 b 317 144 901 372 636 125 b 282 135 303 146 292 142 z "},"Ð":{"ha":1078,"x_min":0,"x_max":0,"o":"m 326 6 b 994 597 717 -31 994 254 b 660 1061 994 903 832 1061 b 315 765 526 1061 386 964 b 297 921 311 822 306 875 b 215 1065 279 1026 254 1065 b 142 963 157 1065 142 1013 b 242 514 142 858 217 663 b 168 525 217 515 192 519 b 93 501 128 535 101 518 b 121 444 85 482 93 461 b 208 422 143 433 174 426 b 111 94 151 315 114 183 b 185 -28 108 24 131 -28 b 257 50 213 -28 238 1 b 326 6 265 25 292 8 z m 282 135 b 318 422 301 214 313 315 b 531 475 411 429 501 451 b 538 525 550 490 553 513 b 467 532 524 538 504 542 b 322 511 429 522 378 514 l 322 540 l 322 544 b 650 985 369 858 517 985 b 901 644 782 985 901 856 b 317 144 901 372 636 125 b 282 135 303 146 292 142 z "},"E":{"ha":951,"x_min":0,"x_max":0,"o":"m 229 -15 b 328 101 272 -15 304 29 b 747 -15 461 46 632 -15 b 896 61 818 -15 896 -1 b 799 107 899 99 867 125 b 344 164 696 78 474 126 b 378 514 365 261 376 386 b 731 489 488 510 693 486 b 815 556 804 496 817 525 b 729 607 813 596 778 607 b 378 583 589 607 519 571 b 351 932 375 701 365 818 b 815 967 524 915 733 940 b 881 1049 865 983 890 1007 b 778 1094 871 1090 838 1124 b 167 1074 622 1018 326 979 b 115 1065 142 1089 122 1079 b 147 990 107 1047 111 1015 b 194 967 161 981 176 974 b 294 347 206 843 294 585 b 276 183 294 294 289 238 b 213 196 253 192 232 196 b 126 106 153 196 126 153 b 229 -15 126 49 165 -15 z "},"É":{"ha":951,"x_min":0,"x_max":0,"o":"m 229 -15 b 328 101 272 -15 304 29 b 747 -15 461 46 632 -15 b 896 61 818 -15 896 -1 b 799 107 899 99 867 125 b 344 164 696 78 474 126 b 378 514 365 261 376 386 b 731 489 488 510 693 486 b 815 556 804 496 817 525 b 729 607 813 596 778 607 b 378 583 589 607 519 571 b 351 932 375 701 365 818 b 815 967 524 915 733 940 b 881 1049 865 983 890 1007 b 778 1094 871 1090 838 1124 b 167 1074 622 1018 326 979 b 115 1065 142 1089 122 1079 b 147 990 107 1047 111 1015 b 194 967 161 981 176 974 b 294 347 206 843 294 585 b 276 183 294 294 289 238 b 213 196 253 192 232 196 b 126 106 153 196 126 153 b 229 -15 126 49 165 -15 z m 508 1164 b 733 1432 601 1185 732 1368 b 703 1471 735 1454 719 1471 b 654 1433 685 1472 669 1463 b 481 1249 625 1376 558 1292 b 451 1186 449 1231 444 1204 b 508 1164 460 1168 479 1157 z "},"Ě":{"ha":951,"x_min":0,"x_max":0,"o":"m 229 -15 b 328 101 272 -15 304 29 b 747 -15 461 46 632 -15 b 896 61 818 -15 896 -1 b 799 107 899 99 867 125 b 344 164 696 78 474 126 b 378 514 365 261 376 386 b 731 489 488 510 693 486 b 815 556 804 496 817 525 b 729 607 813 596 778 607 b 378 583 589 607 519 571 b 351 932 375 701 365 818 b 815 967 524 915 733 940 b 881 1049 865 983 890 1007 b 778 1094 871 1090 838 1124 b 167 1074 622 1018 326 979 b 115 1065 142 1089 122 1079 b 147 990 107 1047 111 1015 b 194 967 161 981 176 974 b 294 347 206 843 294 585 b 276 183 294 294 289 238 b 213 196 253 192 232 196 b 126 106 153 196 126 153 b 229 -15 126 49 165 -15 z m 667 1414 b 494 1249 610 1401 536 1318 b 324 1414 454 1318 381 1401 b 272 1394 297 1421 279 1411 b 297 1338 265 1378 269 1354 b 454 1168 368 1297 424 1219 b 496 1138 465 1149 481 1138 b 536 1168 510 1138 525 1147 b 693 1338 564 1219 622 1297 b 718 1394 721 1354 725 1378 b 667 1414 711 1411 693 1421 z "},"Ê":{"ha":951,"x_min":0,"x_max":0,"o":"m 229 -15 b 328 101 272 -15 304 29 b 747 -15 461 46 632 -15 b 896 61 818 -15 896 -1 b 799 107 899 99 867 125 b 344 164 696 78 474 126 b 378 514 365 261 376 386 b 731 489 488 510 693 486 b 815 556 804 496 817 525 b 729 607 813 596 778 607 b 378 583 589 607 519 571 b 351 932 375 701 365 818 b 815 967 524 915 733 940 b 881 1049 865 983 890 1007 b 778 1094 871 1090 838 1124 b 167 1074 622 1018 326 979 b 115 1065 142 1089 122 1079 b 147 990 107 1047 111 1015 b 194 967 161 981 176 974 b 294 347 206 843 294 585 b 276 183 294 294 289 238 b 213 196 253 192 232 196 b 126 106 153 196 126 153 b 229 -15 126 49 165 -15 z m 332 1164 b 504 1329 389 1176 463 1260 b 675 1164 544 1260 618 1176 b 726 1183 701 1157 719 1167 b 701 1240 733 1200 729 1224 b 544 1410 631 1281 575 1358 b 503 1440 533 1429 518 1440 b 463 1410 489 1440 474 1431 b 306 1240 435 1358 376 1281 b 281 1183 278 1224 274 1200 b 332 1164 288 1167 306 1157 z "},"Ë":{"ha":951,"x_min":0,"x_max":0,"o":"m 229 -15 b 328 101 272 -15 304 29 b 747 -15 461 46 632 -15 b 896 61 818 -15 896 -1 b 799 107 899 99 867 125 b 344 164 696 78 474 126 b 378 514 365 261 376 386 b 731 489 488 510 693 486 b 815 556 804 496 817 525 b 729 607 813 596 778 607 b 378 583 589 607 519 571 b 351 932 375 701 365 818 b 815 967 524 915 733 940 b 881 1049 865 983 890 1007 b 778 1094 871 1090 838 1124 b 167 1074 622 1018 326 979 b 115 1065 142 1089 122 1079 b 147 990 107 1047 111 1015 b 194 967 161 981 176 974 b 294 347 206 843 294 585 b 276 183 294 294 289 238 b 213 196 253 192 232 196 b 126 106 153 196 126 153 b 229 -15 126 49 165 -15 z m 628 1171 b 686 1235 664 1171 686 1196 b 606 1308 686 1283 643 1308 b 547 1253 568 1308 547 1290 b 628 1171 547 1201 586 1171 z m 392 1171 b 450 1235 428 1171 450 1196 b 369 1308 450 1283 407 1308 b 311 1253 332 1308 311 1290 b 392 1171 311 1201 350 1171 z "},"Ė":{"ha":951,"x_min":0,"x_max":0,"o":"m 229 -15 b 328 101 272 -15 304 29 b 747 -15 461 46 632 -15 b 896 61 818 -15 896 -1 b 799 107 899 99 867 125 b 344 164 696 78 474 126 b 378 514 365 261 376 386 b 731 489 488 510 693 486 b 815 556 804 496 817 525 b 729 607 813 596 778 607 b 378 583 589 607 519 571 b 351 932 375 701 365 818 b 815 967 524 915 733 940 b 881 1049 865 983 890 1007 b 778 1094 871 1090 838 1124 b 167 1074 622 1018 326 979 b 115 1065 142 1089 122 1079 b 147 990 107 1047 111 1015 b 194 967 161 981 176 974 b 294 347 206 843 294 585 b 276 183 294 294 289 238 b 213 196 253 192 232 196 b 126 106 153 196 126 153 b 229 -15 126 49 165 -15 z m 511 1171 b 579 1246 553 1171 579 1200 b 486 1331 579 1301 531 1331 b 418 1265 443 1331 418 1310 b 511 1171 418 1207 464 1171 z "},"È":{"ha":951,"x_min":0,"x_max":0,"o":"m 229 -15 b 328 101 272 -15 304 29 b 747 -15 461 46 632 -15 b 896 61 818 -15 896 -1 b 799 107 899 99 867 125 b 344 164 696 78 474 126 b 378 514 365 261 376 386 b 731 489 488 510 693 486 b 815 556 804 496 817 525 b 729 607 813 596 778 607 b 378 583 589 607 519 571 b 351 932 375 701 365 818 b 815 967 524 915 733 940 b 881 1049 865 983 890 1007 b 778 1094 871 1090 838 1124 b 167 1074 622 1018 326 979 b 115 1065 142 1089 122 1079 b 147 990 107 1047 111 1015 b 194 967 161 981 176 974 b 294 347 206 843 294 585 b 276 183 294 294 289 238 b 213 196 253 192 232 196 b 126 106 153 196 126 153 b 229 -15 126 49 165 -15 z m 493 1164 b 550 1186 522 1157 542 1168 b 521 1249 557 1204 553 1231 b 347 1433 443 1292 376 1376 b 299 1471 332 1463 317 1472 b 268 1432 282 1471 267 1454 b 493 1164 269 1368 400 1185 z "},"Ē":{"ha":951,"x_min":0,"x_max":0,"o":"m 229 -15 b 328 101 272 -15 304 29 b 747 -15 461 46 632 -15 b 896 61 818 -15 896 -1 b 799 107 899 99 867 125 b 344 164 696 78 474 126 b 378 514 365 261 376 386 b 731 489 488 510 693 486 b 815 556 804 496 817 525 b 729 607 813 596 778 607 b 378 583 589 607 519 571 b 351 932 375 701 365 818 b 815 967 524 915 733 940 b 881 1049 865 983 890 1007 b 778 1094 871 1090 838 1124 b 167 1074 622 1018 326 979 b 115 1065 142 1089 122 1079 b 147 990 107 1047 111 1015 b 194 967 161 981 176 974 b 294 347 206 843 294 585 b 276 183 294 294 289 238 b 213 196 253 192 232 196 b 126 106 153 196 126 153 b 229 -15 126 49 165 -15 z m 329 1167 b 678 1197 410 1117 633 1153 b 685 1247 694 1213 697 1235 b 624 1254 672 1260 656 1264 b 369 1247 563 1235 457 1222 b 306 1224 335 1257 313 1240 b 329 1167 299 1204 306 1183 z "},"Ę":{"ha":951,"x_min":0,"x_max":0,"o":"m 229 -15 b 328 101 272 -15 304 29 b 738 -15 457 47 622 -12 b 682 -139 701 -53 682 -97 b 819 -264 682 -200 728 -264 b 928 -232 867 -264 911 -249 b 931 -171 943 -214 944 -189 b 865 -172 914 -150 889 -160 b 803 -190 844 -185 822 -192 b 751 -132 774 -189 751 -171 b 842 -6 751 -92 788 -32 l 858 4 b 896 61 881 15 896 33 b 799 107 899 99 867 125 b 344 164 696 78 474 126 b 378 514 365 261 376 386 b 731 489 488 510 693 486 b 815 556 804 496 817 525 b 729 607 813 596 778 607 b 378 583 589 607 519 571 b 351 932 375 701 365 818 b 815 967 524 915 733 940 b 881 1049 865 983 890 1007 b 778 1094 871 1090 838 1124 b 167 1074 622 1018 326 979 b 115 1065 142 1089 122 1079 b 147 990 107 1047 111 1015 b 194 967 161 981 176 974 b 294 347 206 843 294 585 b 276 183 294 294 289 238 b 213 196 253 192 232 196 b 126 106 153 196 126 153 b 229 -15 126 49 165 -15 z "},"Ẽ":{"ha":951,"x_min":0,"x_max":0,"o":"m 229 -15 b 328 101 272 -15 304 29 b 747 -15 461 46 632 -15 b 896 61 818 -15 896 -1 b 799 107 899 99 867 125 b 344 164 696 78 474 126 b 378 514 365 261 376 386 b 731 489 488 510 693 486 b 815 556 804 496 817 525 b 729 607 813 596 778 607 b 378 583 589 607 519 571 b 351 932 375 701 365 818 b 815 967 524 915 733 940 b 881 1049 865 983 890 1007 b 778 1094 871 1090 838 1124 b 167 1074 622 1018 326 979 b 115 1065 142 1089 122 1079 b 147 990 107 1047 111 1015 b 194 967 161 981 176 974 b 294 347 206 843 294 585 b 276 183 294 294 289 238 b 213 196 253 192 232 196 b 126 106 153 196 126 153 b 229 -15 126 49 165 -15 z m 601 1142 b 729 1279 686 1142 736 1233 b 683 1321 725 1310 704 1321 b 643 1269 665 1321 653 1307 b 586 1206 632 1225 610 1206 b 410 1297 536 1203 503 1297 b 268 1154 311 1297 263 1200 b 314 1113 274 1124 293 1113 b 354 1164 332 1113 344 1128 b 425 1235 365 1208 388 1235 b 601 1142 485 1235 513 1142 z "},"F":{"ha":931,"x_min":0,"x_max":0,"o":"m 258 -3 b 339 89 307 -4 328 40 b 344 513 358 186 360 344 b 731 489 461 508 693 486 b 815 556 804 496 817 525 b 729 607 813 596 778 607 b 336 583 589 607 482 571 b 267 946 322 710 299 838 b 485 926 332 932 408 926 b 815 967 621 928 754 947 b 881 1049 865 983 890 1007 b 778 1094 871 1090 838 1124 b 167 1074 622 1018 326 979 b 115 1065 142 1089 122 1079 b 147 990 107 1047 111 1015 l 171 976 b 247 668 201 890 242 753 b 197 71 265 425 193 275 b 258 -3 197 33 214 -3 z "},"G":{"ha":1028,"x_min":0,"x_max":0,"o":"m 585 -14 b 965 271 804 -14 965 117 b 671 547 965 449 826 547 b 375 417 568 547 458 506 b 374 308 349 389 338 339 b 475 322 400 285 444 286 b 692 442 547 406 625 442 b 872 258 797 442 872 351 b 568 60 872 160 788 60 b 176 454 356 60 176 182 b 750 907 176 742 449 956 b 815 951 782 901 806 924 b 753 1046 832 994 811 1036 b 83 458 382 1106 83 789 b 585 -14 83 156 285 -14 z "},"Ğ":{"ha":1028,"x_min":0,"x_max":0,"o":"m 585 -14 b 965 271 804 -14 965 117 b 671 547 965 449 826 547 b 375 417 568 547 458 506 b 374 308 349 389 338 339 b 475 322 400 285 444 286 b 692 442 547 406 625 442 b 872 258 797 442 872 351 b 568 60 872 160 788 60 b 176 454 356 60 176 182 b 750 907 176 742 449 956 b 815 951 782 901 806 924 b 753 1046 832 994 811 1036 b 83 458 382 1106 83 789 b 585 -14 83 156 285 -14 z m 642 1139 b 804 1372 815 1139 836 1324 b 744 1393 788 1400 763 1401 b 728 1326 726 1385 719 1365 b 642 1192 744 1251 728 1192 b 556 1321 556 1192 542 1258 b 539 1386 564 1358 557 1378 b 479 1367 521 1394 496 1393 b 642 1139 447 1318 468 1139 z "},"Ģ":{"ha":1028,"x_min":0,"x_max":0,"o":"m 585 -14 b 965 271 804 -14 965 117 b 671 547 965 449 826 547 b 375 417 568 547 458 506 b 374 308 349 389 338 339 b 475 322 400 285 444 286 b 692 442 547 406 625 442 b 872 258 797 442 872 351 b 568 60 872 160 788 60 b 176 454 356 60 176 182 b 750 907 176 742 449 956 b 815 951 782 901 806 924 b 753 1046 832 994 811 1036 b 83 458 382 1106 83 789 b 585 -14 83 156 285 -14 z m 526 -94 b 438 -175 483 -94 438 -122 b 517 -237 438 -215 469 -254 b 475 -331 510 -272 496 -304 b 479 -385 460 -354 464 -376 b 519 -378 489 -390 504 -390 b 597 -179 556 -350 597 -254 b 526 -94 597 -128 567 -94 z "},"Ġ":{"ha":1028,"x_min":0,"x_max":0,"o":"m 585 -14 b 965 271 804 -14 965 117 b 671 547 965 449 826 547 b 375 417 568 547 458 506 b 374 308 349 389 338 339 b 475 322 400 285 444 286 b 692 442 547 406 625 442 b 872 258 797 442 872 351 b 568 60 872 160 788 60 b 176 454 356 60 176 182 b 750 907 176 742 449 956 b 815 951 782 901 806 924 b 753 1046 832 994 811 1036 b 83 458 382 1106 83 789 b 585 -14 83 156 285 -14 z m 654 1171 b 722 1246 696 1171 722 1200 b 629 1331 722 1301 674 1331 b 561 1265 586 1331 561 1310 b 654 1171 561 1207 607 1171 z "},"H":{"ha":1146,"x_min":0,"x_max":0,"o":"m 185 -28 b 317 400 258 -28 303 169 b 840 525 463 492 671 515 b 892 72 842 342 861 171 b 982 -11 907 25 933 -18 b 1035 69 1026 -6 1038 32 b 921 671 1017 272 928 428 b 967 997 917 760 943 910 b 929 1061 979 1047 950 1061 b 882 1006 904 1061 890 1042 b 840 596 856 889 843 742 b 321 486 674 588 475 563 b 297 921 326 642 318 803 b 215 1065 279 1026 254 1065 b 142 963 157 1065 142 1013 b 236 433 142 878 217 651 b 113 115 171 343 118 215 b 185 -28 107 32 126 -28 z "},"Ħ":{"ha":1146,"x_min":0,"x_max":0,"o":"m 185 -28 b 317 400 258 -28 303 169 b 840 525 463 492 671 515 b 892 72 842 342 861 171 b 982 -11 907 25 933 -18 b 1035 69 1026 -6 1038 32 b 921 671 1017 272 928 428 b 933 835 918 715 925 775 b 1008 858 969 843 996 851 b 1033 897 1026 869 1035 885 b 967 924 1029 918 1003 933 l 949 919 l 967 997 b 929 1061 979 1047 950 1061 b 882 1006 904 1061 890 1042 b 864 904 875 974 868 940 b 307 857 722 883 497 861 l 297 921 b 215 1065 279 1026 254 1065 b 142 963 157 1065 142 1013 b 157 857 142 938 147 901 l 140 858 b 65 835 99 860 74 851 b 93 778 57 815 63 785 b 176 768 115 774 143 771 b 236 433 199 669 225 550 b 113 115 171 343 118 215 b 185 -28 107 32 126 -28 z m 315 768 b 853 819 488 774 706 794 b 840 596 846 747 842 672 b 321 486 674 588 475 563 b 315 768 324 582 322 679 z "},"I":{"ha":403,"x_min":0,"x_max":0,"o":"m 256 -11 b 286 56 275 -10 304 7 b 213 376 256 140 217 288 b 274 986 199 619 274 782 b 214 1061 274 1024 258 1060 b 132 971 165 1064 143 1019 b 203 40 89 778 115 315 b 256 -11 214 4 231 -14 z "},"Ĳ":{"ha":1097,"x_min":0,"x_max":0,"o":"m 256 -11 b 286 56 275 -10 304 7 b 213 376 256 140 217 288 b 274 986 199 619 274 782 b 214 1061 274 1024 258 1060 b 132 971 165 1064 143 1019 b 203 40 89 778 115 315 b 256 -11 214 4 231 -14 z m 654 -4 b 963 279 794 -4 921 69 b 949 956 1010 517 974 800 b 872 1054 936 1029 907 1054 b 797 954 819 1054 797 1007 b 893 288 797 813 933 610 b 690 97 878 165 793 97 b 454 190 565 97 513 190 b 396 126 418 190 396 161 b 654 -4 396 43 550 -4 z "},"Í":{"ha":403,"x_min":0,"x_max":0,"o":"m 256 -11 b 286 56 275 -10 304 7 b 213 376 256 140 217 288 b 274 986 199 619 274 782 b 214 1061 274 1024 258 1060 b 132 971 165 1064 143 1019 b 203 40 89 778 115 315 b 256 -11 214 4 231 -14 z m 224 1164 b 449 1432 317 1185 447 1368 b 418 1471 450 1454 435 1471 b 369 1433 400 1472 385 1463 b 196 1249 340 1376 274 1292 b 167 1186 164 1231 160 1204 b 224 1164 175 1168 194 1157 z "},"Î":{"ha":403,"x_min":0,"x_max":0,"o":"m 256 -11 b 286 56 275 -10 304 7 b 213 376 256 140 217 288 b 274 986 199 619 274 782 b 214 1061 274 1024 258 1060 b 132 971 165 1064 143 1019 b 203 40 89 778 115 315 b 256 -11 214 4 231 -14 z m 47 1164 b 219 1329 104 1176 178 1260 b 390 1164 260 1260 333 1176 b 442 1183 417 1157 435 1167 b 417 1240 449 1200 444 1224 b 260 1410 346 1281 290 1358 b 218 1440 249 1429 233 1440 b 178 1410 204 1440 189 1431 b 21 1240 150 1358 92 1281 b -4 1183 -7 1224 -11 1200 b 47 1164 3 1167 21 1157 z "},"Ï":{"ha":403,"x_min":0,"x_max":0,"o":"m 256 -11 b 286 56 275 -10 304 7 b 213 376 256 140 217 288 b 274 986 199 619 274 782 b 214 1061 274 1024 258 1060 b 132 971 165 1064 143 1019 b 203 40 89 778 115 315 b 256 -11 214 4 231 -14 z m 343 1171 b 401 1235 379 1171 401 1196 b 321 1308 401 1283 358 1308 b 263 1253 283 1308 263 1290 b 343 1171 263 1201 301 1171 z m 107 1171 b 165 1235 143 1171 165 1196 b 85 1308 165 1283 122 1308 b 26 1253 47 1308 26 1290 b 107 1171 26 1201 65 1171 z "},"İ":{"ha":403,"x_min":0,"x_max":0,"o":"m 256 -11 b 286 56 275 -10 304 7 b 213 376 256 140 217 288 b 274 986 199 619 274 782 b 214 1061 274 1024 258 1060 b 132 971 165 1064 143 1019 b 203 40 89 778 115 315 b 256 -11 214 4 231 -14 z m 226 1171 b 294 1246 268 1171 294 1200 b 201 1331 294 1301 246 1331 b 133 1265 158 1331 133 1310 b 226 1171 133 1207 179 1171 z "},"Ì":{"ha":403,"x_min":0,"x_max":0,"o":"m 256 -11 b 286 56 275 -10 304 7 b 213 376 256 140 217 288 b 274 986 199 619 274 782 b 214 1061 274 1024 258 1060 b 132 971 165 1064 143 1019 b 203 40 89 778 115 315 b 256 -11 214 4 231 -14 z m 208 1164 b 265 1186 238 1157 257 1168 b 236 1249 272 1204 268 1231 b 63 1433 158 1292 92 1376 b 14 1471 47 1463 32 1472 b -17 1432 -3 1471 -18 1454 b 208 1164 -15 1368 115 1185 z "},"Ī":{"ha":403,"x_min":0,"x_max":0,"o":"m 256 -11 b 286 56 275 -10 304 7 b 213 376 256 140 217 288 b 274 986 199 619 274 782 b 214 1061 274 1024 258 1060 b 132 971 165 1064 143 1019 b 203 40 89 778 115 315 b 256 -11 214 4 231 -14 z m 44 1167 b 393 1197 125 1117 349 1153 b 400 1247 410 1213 413 1235 b 339 1254 388 1260 371 1264 b 85 1247 278 1235 172 1222 b 21 1224 50 1257 28 1240 b 44 1167 14 1204 21 1183 z "},"Į":{"ha":403,"x_min":0,"x_max":0,"o":"m 242 -289 b 350 -257 289 -289 333 -274 b 353 -196 365 -239 367 -214 b 288 -197 336 -175 311 -185 b 225 -215 267 -210 244 -217 b 174 -157 196 -214 174 -196 b 264 -31 174 -117 210 -57 b 293 21 308 -8 301 11 l 292 24 b 286 56 293 32 290 43 b 213 376 256 140 217 288 b 274 986 199 619 274 782 b 214 1061 274 1024 258 1060 b 132 971 165 1064 143 1019 b 203 40 89 778 115 315 b 218 7 207 26 213 15 b 104 -164 146 -39 104 -103 b 242 -289 104 -225 150 -289 z "},"Ĩ":{"ha":403,"x_min":0,"x_max":0,"o":"m 256 -11 b 286 56 275 -10 304 7 b 213 376 256 140 217 288 b 274 986 199 619 274 782 b 214 1061 274 1024 258 1060 b 132 971 165 1064 143 1019 b 203 40 89 778 115 315 b 256 -11 214 4 231 -14 z m 317 1142 b 444 1279 401 1142 451 1233 b 399 1321 440 1310 419 1321 b 358 1269 381 1321 368 1307 b 301 1206 347 1225 325 1206 b 125 1297 251 1203 218 1297 b -17 1154 26 1297 -22 1200 b 29 1113 -11 1124 8 1113 b 69 1164 47 1113 60 1128 b 140 1235 81 1208 103 1235 b 317 1142 200 1235 228 1142 z "},"J":{"ha":750,"x_min":0,"x_max":0,"o":"m 307 -4 b 615 279 447 -4 574 69 b 601 956 663 517 626 800 b 525 1054 589 1029 560 1054 b 450 954 472 1054 450 1007 b 546 288 450 813 586 610 b 343 97 531 165 446 97 b 107 190 218 97 165 190 b 49 126 71 190 49 161 b 307 -4 49 43 203 -4 z "},"K":{"ha":997,"x_min":0,"x_max":0,"o":"m 185 -28 b 272 96 221 -28 250 19 b 321 482 300 193 317 335 b 361 556 329 504 342 529 b 771 50 781 467 739 169 b 863 -6 785 1 821 -17 b 899 110 910 7 913 60 b 404 608 861 263 747 551 l 443 651 b 922 935 578 793 819 853 b 936 1024 951 961 956 996 b 817 1039 910 1063 865 1060 b 322 613 694 986 436 765 b 297 921 321 725 313 835 b 215 1065 279 1026 254 1065 b 142 963 157 1065 142 1013 b 246 481 142 850 228 633 b 111 94 169 379 114 199 b 185 -28 108 24 131 -28 z "},"Ķ":{"ha":997,"x_min":0,"x_max":0,"o":"m 185 -28 b 272 96 221 -28 250 19 b 321 482 300 193 317 335 b 361 556 329 504 342 529 b 771 50 781 467 739 169 b 863 -6 785 1 821 -17 b 899 110 910 7 913 60 b 404 608 861 263 747 551 l 443 651 b 922 935 578 793 819 853 b 936 1024 951 961 956 996 b 817 1039 910 1063 865 1060 b 322 613 694 986 436 765 b 297 921 321 725 313 835 b 215 1065 279 1026 254 1065 b 142 963 157 1065 142 1013 b 246 481 142 850 228 633 b 111 94 169 379 114 199 b 185 -28 108 24 131 -28 z m 518 -39 b 429 -119 475 -39 429 -67 b 508 -182 429 -160 461 -199 b 467 -275 501 -217 488 -249 b 471 -329 451 -299 456 -321 b 511 -322 481 -335 496 -335 b 589 -124 547 -294 589 -199 b 518 -39 589 -72 558 -39 z "},"L":{"ha":915,"x_min":0,"x_max":0,"o":"m 214 -15 b 313 101 257 -15 289 29 b 718 -15 444 46 603 -15 b 867 61 789 -15 867 -1 b 769 107 869 99 838 125 b 329 164 667 78 457 126 b 363 540 353 267 363 404 b 333 954 363 678 358 822 b 231 1044 315 1046 268 1053 b 185 926 182 1032 178 988 b 263 183 201 800 340 485 b 197 196 238 192 217 196 b 111 106 138 196 111 153 b 214 -15 111 49 150 -15 z "},"Ĺ":{"ha":915,"x_min":0,"x_max":0,"o":"m 214 -15 b 313 101 257 -15 289 29 b 718 -15 444 46 603 -15 b 867 61 789 -15 867 -1 b 769 107 869 99 838 125 b 329 164 667 78 457 126 b 363 540 353 267 363 404 b 333 954 363 678 358 822 b 231 1044 315 1046 268 1053 b 185 926 182 1032 178 988 b 263 183 201 800 340 485 b 197 196 238 192 217 196 b 111 106 138 196 111 153 b 214 -15 111 49 150 -15 z m 240 1164 b 465 1432 333 1185 464 1368 b 435 1471 467 1454 451 1471 b 386 1433 417 1472 401 1463 b 213 1249 357 1376 290 1292 b 183 1186 181 1231 176 1204 b 240 1164 192 1168 211 1157 z "},"Ľ":{"ha":915,"x_min":0,"x_max":0,"o":"m 214 -15 b 313 101 257 -15 289 29 b 718 -15 444 46 603 -15 b 867 61 789 -15 867 -1 b 769 107 869 99 838 125 b 329 164 667 78 457 126 b 363 540 353 267 363 404 b 333 954 363 678 358 822 b 231 1044 315 1046 268 1053 b 185 926 182 1032 178 988 b 263 183 201 800 340 485 b 197 196 238 192 217 196 b 111 106 138 196 111 153 b 214 -15 111 49 150 -15 z m 564 797 b 613 806 576 786 600 789 b 610 1132 653 850 669 1060 b 553 1150 592 1154 571 1158 b 535 1088 536 1143 522 1121 b 550 853 567 1010 564 911 b 564 797 544 822 549 806 z "},"Ļ":{"ha":915,"x_min":0,"x_max":0,"o":"m 214 -15 b 313 101 257 -15 289 29 b 718 -15 444 46 603 -15 b 867 61 789 -15 867 -1 b 769 107 869 99 838 125 b 329 164 667 78 457 126 b 363 540 353 267 363 404 b 333 954 363 678 358 822 b 231 1044 315 1046 268 1053 b 185 926 182 1032 178 988 b 263 183 201 800 340 485 b 197 196 238 192 217 196 b 111 106 138 196 111 153 b 214 -15 111 49 150 -15 z m 482 -81 b 393 -161 439 -81 393 -108 b 472 -224 393 -201 425 -240 b 431 -317 465 -258 451 -290 b 435 -371 415 -340 419 -362 b 475 -364 444 -376 460 -376 b 553 -165 511 -336 553 -240 b 482 -81 553 -114 522 -81 z "},"Ł":{"ha":915,"x_min":0,"x_max":0,"o":"m 214 -15 b 313 101 257 -15 289 29 b 718 -15 444 46 603 -15 b 867 61 789 -15 867 -1 b 769 107 869 99 838 125 b 329 164 667 78 457 126 b 360 431 346 239 356 332 b 532 590 443 486 519 554 b 513 636 542 613 533 633 b 449 607 494 640 476 635 b 363 538 429 588 399 563 l 363 540 b 333 954 363 678 358 822 b 231 1044 315 1046 268 1053 b 185 926 182 1032 178 988 b 281 486 196 843 261 676 b 169 438 243 465 204 449 b 117 381 129 426 115 399 b 168 344 118 360 136 346 b 286 385 199 346 242 361 b 263 183 286 318 279 250 b 197 196 238 192 217 196 b 111 106 138 196 111 153 b 214 -15 111 49 150 -15 z "},"M":{"ha":1375,"x_min":0,"x_max":0,"o":"m 706 40 b 790 189 771 40 790 122 b 722 517 790 274 779 388 b 1101 933 799 679 974 861 b 1121 72 1049 651 1064 250 b 1211 -11 1136 25 1163 -18 b 1264 69 1256 -6 1267 32 b 1150 647 1246 272 1157 404 b 1196 974 1146 736 1172 886 b 1158 1038 1208 1024 1179 1038 b 1149 1036 1154 1038 1151 1038 b 1110 1024 1138 1035 1125 1031 b 689 583 969 954 763 767 b 265 999 614 717 485 861 b 192 1035 235 1018 211 1031 b 164 1036 183 1036 175 1038 b 111 956 119 1031 108 993 b 225 378 129 753 218 621 b 179 51 229 289 203 139 b 217 -12 167 1 196 -12 b 264 43 242 -12 256 7 b 279 846 318 281 317 629 b 649 506 408 751 575 635 b 614 156 608 419 581 269 b 706 40 632 88 661 40 z "},"N":{"ha":1146,"x_min":0,"x_max":0,"o":"m 961 -28 b 1033 115 1019 -28 1039 32 b 910 433 1028 215 975 343 b 1004 963 929 651 1004 878 b 931 1065 1004 1013 989 1065 b 849 921 892 1065 867 1026 b 824 519 829 811 821 664 b 247 972 676 614 346 815 b 164 1036 231 1011 206 1042 b 111 956 119 1031 108 993 b 225 378 129 753 218 621 b 179 51 229 289 203 139 b 217 -12 167 1 196 -12 b 264 43 242 -12 256 7 b 282 824 315 272 317 606 b 826 433 440 675 699 514 b 961 -28 839 189 883 -28 z "},"Ń":{"ha":1146,"x_min":0,"x_max":0,"o":"m 961 -28 b 1033 115 1019 -28 1039 32 b 910 433 1028 215 975 343 b 1004 963 929 651 1004 878 b 931 1065 1004 1013 989 1065 b 849 921 892 1065 867 1026 b 824 519 829 811 821 664 b 247 972 676 614 346 815 b 164 1036 231 1011 206 1042 b 111 956 119 1031 108 993 b 225 378 129 753 218 621 b 179 51 229 289 203 139 b 217 -12 167 1 196 -12 b 264 43 242 -12 256 7 b 282 824 315 272 317 606 b 826 433 440 675 699 514 b 961 -28 839 189 883 -28 z m 564 1164 b 789 1432 657 1185 788 1368 b 758 1471 790 1454 775 1471 b 710 1433 740 1472 725 1463 b 536 1249 681 1376 614 1292 b 507 1186 504 1231 500 1204 b 564 1164 515 1168 535 1157 z "},"Ň":{"ha":1146,"x_min":0,"x_max":0,"o":"m 961 -28 b 1033 115 1019 -28 1039 32 b 910 433 1028 215 975 343 b 1004 963 929 651 1004 878 b 931 1065 1004 1013 989 1065 b 849 921 892 1065 867 1026 b 824 519 829 811 821 664 b 247 972 676 614 346 815 b 164 1036 231 1011 206 1042 b 111 956 119 1031 108 993 b 225 378 129 753 218 621 b 179 51 229 289 203 139 b 217 -12 167 1 196 -12 b 264 43 242 -12 256 7 b 282 824 315 272 317 606 b 826 433 440 675 699 514 b 961 -28 839 189 883 -28 z m 722 1414 b 550 1249 665 1401 592 1318 b 379 1414 510 1318 436 1401 b 328 1394 353 1421 335 1411 b 353 1338 321 1378 325 1354 b 510 1168 424 1297 479 1219 b 551 1138 521 1149 536 1138 b 592 1168 565 1138 581 1147 b 749 1338 619 1219 678 1297 b 774 1394 776 1354 781 1378 b 722 1414 767 1411 749 1421 z "},"Ņ":{"ha":1146,"x_min":0,"x_max":0,"o":"m 961 -28 b 1033 115 1019 -28 1039 32 b 910 433 1028 215 975 343 b 1004 963 929 651 1004 878 b 931 1065 1004 1013 989 1065 b 849 921 892 1065 867 1026 b 824 519 829 811 821 664 b 247 972 676 614 346 815 b 164 1036 231 1011 206 1042 b 111 956 119 1031 108 993 b 225 378 129 753 218 621 b 179 51 229 289 203 139 b 217 -12 167 1 196 -12 b 264 43 242 -12 256 7 b 282 824 315 272 317 606 b 826 433 440 675 699 514 b 961 -28 839 189 883 -28 z m 572 -81 b 483 -161 529 -81 483 -108 b 563 -224 483 -201 515 -240 b 521 -317 556 -258 542 -290 b 525 -371 506 -340 510 -362 b 565 -364 535 -376 550 -376 b 643 -165 601 -336 643 -240 b 572 -81 643 -114 613 -81 z "},"Ñ":{"ha":1146,"x_min":0,"x_max":0,"o":"m 961 -28 b 1033 115 1019 -28 1039 32 b 910 433 1028 215 975 343 b 1004 963 929 651 1004 878 b 931 1065 1004 1013 989 1065 b 849 921 892 1065 867 1026 b 824 519 829 811 821 664 b 247 972 676 614 346 815 b 164 1036 231 1011 206 1042 b 111 956 119 1031 108 993 b 225 378 129 753 218 621 b 179 51 229 289 203 139 b 217 -12 167 1 196 -12 b 264 43 242 -12 256 7 b 282 824 315 272 317 606 b 826 433 440 675 699 514 b 961 -28 839 189 883 -28 z m 657 1142 b 785 1279 742 1142 792 1233 b 739 1321 781 1310 760 1321 b 699 1269 721 1321 708 1307 b 642 1206 688 1225 665 1206 b 465 1297 592 1203 558 1297 b 324 1154 367 1297 318 1200 b 369 1113 329 1124 349 1113 b 410 1164 388 1113 400 1128 b 481 1235 421 1208 443 1235 b 657 1142 540 1235 568 1142 z "},"Ŋ":{"ha":1115,"x_min":0,"x_max":0,"o":"m 574 -465 b 832 -346 636 -519 774 -424 b 892 440 999 -125 882 108 b 1004 963 897 628 986 760 b 951 1043 1007 1000 996 1042 b 804 624 821 1046 810 738 l 801 533 b 247 972 646 633 340 822 b 164 1036 231 1011 206 1042 b 111 956 119 1031 108 993 b 225 378 129 753 218 621 b 179 51 229 289 203 139 b 217 -12 167 1 196 -12 b 264 43 242 -12 256 7 b 282 824 315 272 317 606 b 801 449 431 683 668 533 b 804 -228 807 142 851 -143 b 561 -381 746 -332 617 -314 b 574 -465 539 -407 546 -443 z "},"O":{"ha":1090,"x_min":0,"x_max":0,"o":"m 536 -1 b 1007 517 860 -1 1007 261 b 665 981 1007 738 879 954 b 640 975 657 982 649 979 l 642 988 b 550 1056 642 1039 601 1063 b 83 500 244 1013 86 751 b 536 -1 81 244 228 -1 z m 179 472 b 596 924 181 669 307 876 l 607 926 l 606 917 b 701 847 606 865 653 864 b 908 515 858 794 908 650 b 546 71 908 303 789 71 b 179 472 314 71 179 267 z "},"Ó":{"ha":1090,"x_min":0,"x_max":0,"o":"m 536 -1 b 1007 517 860 -1 1007 261 b 665 981 1007 738 879 954 b 640 975 657 982 649 979 l 642 988 b 550 1056 642 1039 601 1063 b 83 500 244 1013 86 751 b 536 -1 81 244 228 -1 z m 543 1164 b 768 1432 636 1185 767 1368 b 738 1471 769 1454 754 1471 b 689 1433 719 1472 704 1463 b 515 1249 660 1376 593 1292 b 486 1186 483 1231 479 1204 b 543 1164 494 1168 514 1157 z m 179 472 b 596 924 181 669 307 876 l 607 926 l 606 917 b 701 847 606 865 653 864 b 908 515 858 794 908 650 b 546 71 908 303 789 71 b 179 472 314 71 179 267 z "},"Ô":{"ha":1090,"x_min":0,"x_max":0,"o":"m 536 -1 b 1007 517 860 -1 1007 261 b 665 981 1007 738 879 954 b 640 975 657 982 649 979 l 642 988 b 550 1056 642 1039 601 1063 b 83 500 244 1013 86 751 b 536 -1 81 244 228 -1 z m 367 1164 b 539 1329 424 1176 497 1260 b 710 1164 579 1260 653 1176 b 761 1183 736 1157 754 1167 b 736 1240 768 1200 764 1224 b 579 1410 665 1281 610 1358 b 538 1440 568 1429 553 1440 b 497 1410 524 1440 508 1431 b 340 1240 469 1358 411 1281 b 315 1183 313 1224 308 1200 b 367 1164 322 1167 340 1157 z m 179 472 b 596 924 181 669 307 876 l 607 926 l 606 917 b 701 847 606 865 653 864 b 908 515 858 794 908 650 b 546 71 908 303 789 71 b 179 472 314 71 179 267 z "},"Ö":{"ha":1090,"x_min":0,"x_max":0,"o":"m 536 -1 b 1007 517 860 -1 1007 261 b 665 981 1007 738 879 954 b 640 975 657 982 649 979 l 642 988 b 550 1056 642 1039 601 1063 b 83 500 244 1013 86 751 b 536 -1 81 244 228 -1 z m 663 1171 b 721 1235 699 1171 721 1196 b 640 1308 721 1283 678 1308 b 582 1253 603 1308 582 1290 b 663 1171 582 1201 621 1171 z m 426 1171 b 485 1235 463 1171 485 1196 b 404 1308 485 1283 442 1308 b 346 1253 367 1308 346 1290 b 426 1171 346 1201 385 1171 z m 179 472 b 596 924 181 669 307 876 l 607 926 l 606 917 b 701 847 606 865 653 864 b 908 515 858 794 908 650 b 546 71 908 303 789 71 b 179 472 314 71 179 267 z "},"Ò":{"ha":1090,"x_min":0,"x_max":0,"o":"m 536 -1 b 1007 517 860 -1 1007 261 b 665 981 1007 738 879 954 b 640 975 657 982 649 979 l 642 988 b 550 1056 642 1039 601 1063 b 83 500 244 1013 86 751 b 536 -1 81 244 228 -1 z m 528 1164 b 585 1186 557 1157 576 1168 b 556 1249 592 1204 588 1231 b 382 1433 478 1292 411 1376 b 333 1471 367 1463 351 1472 b 303 1432 317 1471 301 1454 b 528 1164 304 1368 435 1185 z m 179 472 b 596 924 181 669 307 876 l 607 926 l 606 917 b 701 847 606 865 653 864 b 908 515 858 794 908 650 b 546 71 908 303 789 71 b 179 472 314 71 179 267 z "},"Ő":{"ha":1090,"x_min":0,"x_max":0,"o":"m 536 -1 b 1007 517 860 -1 1007 261 b 665 981 1007 738 879 954 b 640 975 657 982 649 979 l 642 988 b 550 1056 642 1039 601 1063 b 83 500 244 1013 86 751 b 536 -1 81 244 228 -1 z m 414 1151 b 589 1454 501 1188 599 1392 b 551 1488 586 1476 568 1490 b 510 1442 533 1485 521 1474 b 371 1229 492 1381 440 1286 b 354 1163 343 1207 343 1179 b 414 1151 365 1147 386 1139 z m 665 1150 b 840 1453 753 1186 850 1390 b 803 1486 838 1475 819 1489 b 761 1440 785 1483 772 1472 b 622 1228 743 1379 692 1285 b 606 1161 594 1206 594 1178 b 665 1150 617 1146 638 1138 z m 179 472 b 596 924 181 669 307 876 l 607 926 l 606 917 b 701 847 606 865 653 864 b 908 515 858 794 908 650 b 546 71 908 303 789 71 b 179 472 314 71 179 267 z "},"Ō":{"ha":1090,"x_min":0,"x_max":0,"o":"m 536 -1 b 1007 517 860 -1 1007 261 b 665 981 1007 738 879 954 b 640 975 657 982 649 979 l 642 988 b 550 1056 642 1039 601 1063 b 83 500 244 1013 86 751 b 536 -1 81 244 228 -1 z m 364 1167 b 713 1197 444 1117 668 1153 b 719 1247 729 1213 732 1235 b 658 1254 707 1260 690 1264 b 404 1247 597 1235 492 1222 b 340 1224 369 1257 347 1240 b 364 1167 333 1204 340 1183 z m 179 472 b 596 924 181 669 307 876 l 607 926 l 606 917 b 701 847 606 865 653 864 b 908 515 858 794 908 650 b 546 71 908 303 789 71 b 179 472 314 71 179 267 z "},"Ø":{"ha":1111,"x_min":0,"x_max":0,"o":"m 536 -1 b 1007 517 860 -1 1007 261 b 833 911 1007 671 944 824 b 872 1042 854 967 868 1013 b 851 1083 875 1064 863 1078 b 794 1039 831 1090 806 1074 b 764 953 788 1015 776 986 b 665 981 733 967 700 976 b 640 975 657 982 649 979 l 642 988 b 550 1056 642 1039 601 1063 b 83 500 244 1013 86 751 b 310 54 82 318 156 140 l 294 29 b 278 -47 274 -6 268 -32 b 342 -51 290 -64 319 -75 b 393 19 356 -36 374 -12 b 536 -1 436 6 483 -1 z m 179 472 b 596 924 181 669 307 876 l 607 926 l 606 917 b 701 847 606 865 653 864 l 718 842 b 353 125 621 621 464 315 b 179 472 242 199 179 333 z m 435 88 b 789 801 543 271 696 578 b 908 515 878 732 908 621 b 546 71 908 303 789 71 b 435 88 506 71 469 76 z "},"Õ":{"ha":1090,"x_min":0,"x_max":0,"o":"m 536 -1 b 1007 517 860 -1 1007 261 b 665 981 1007 738 879 954 b 640 975 657 982 649 979 l 642 988 b 550 1056 642 1039 601 1063 b 83 500 244 1013 86 751 b 536 -1 81 244 228 -1 z m 636 1142 b 764 1279 721 1142 771 1233 b 718 1321 760 1310 739 1321 b 678 1269 700 1321 688 1307 b 621 1206 667 1225 644 1206 b 444 1297 571 1203 538 1297 b 303 1154 346 1297 297 1200 b 349 1113 308 1124 328 1113 b 389 1164 367 1113 379 1128 b 460 1235 400 1208 422 1235 b 636 1142 519 1235 547 1142 z m 179 472 b 596 924 181 669 307 876 l 607 926 l 606 917 b 701 847 606 865 653 864 b 908 515 858 794 908 650 b 546 71 908 303 789 71 b 179 472 314 71 179 267 z "},"Œ":{"ha":1554,"x_min":0,"x_max":0,"o":"m 581 71 b 179 472 314 71 179 267 b 610 925 181 669 307 876 b 656 981 639 931 653 954 b 801 940 692 963 742 949 b 899 347 821 808 899 569 b 581 71 899 279 849 71 z m 1365 14 b 1497 115 1435 24 1508 54 b 1394 144 1494 153 1460 169 b 901 131 1276 99 1058 83 b 982 514 965 231 981 371 b 1335 489 1092 510 1297 486 b 1419 556 1408 496 1421 525 b 1333 607 1417 596 1382 607 b 982 583 1193 607 1124 571 b 956 928 979 700 969 815 b 1419 967 1143 922 1349 944 b 1485 1049 1469 983 1494 1007 b 1382 1094 1475 1090 1442 1124 b 660 1074 1226 1018 819 979 b 608 1065 635 1089 615 1079 b 606 1054 607 1063 606 1058 b 564 1056 593 1057 579 1057 b 83 500 244 1013 86 751 b 592 -15 81 244 228 -15 b 861 79 717 -15 803 21 b 1365 14 1031 1 1219 -7 z "},"P":{"ha":972,"x_min":0,"x_max":0,"o":"m 371 422 b 896 807 701 357 896 593 b 651 1068 896 964 782 1071 b 314 789 528 1065 389 988 b 297 921 310 838 304 882 b 215 1065 279 1026 254 1065 b 142 963 157 1065 142 1013 b 246 481 142 850 228 633 b 111 94 169 379 114 199 b 185 -28 108 24 131 -28 b 272 96 221 -28 250 19 b 319 443 297 185 314 310 b 371 422 331 431 350 426 z m 322 525 l 322 540 l 322 604 b 619 993 382 888 510 993 b 822 793 728 993 822 904 b 354 536 822 557 547 504 b 322 525 340 539 329 533 z "},"Þ":{"ha":931,"x_min":0,"x_max":0,"o":"m 371 283 b 896 668 701 218 896 454 b 651 929 896 825 782 932 b 319 692 536 928 401 860 b 297 921 317 776 308 856 b 215 1065 279 1026 254 1065 b 142 963 157 1065 142 1013 b 246 481 142 850 228 633 b 111 94 169 379 114 199 b 185 -28 108 24 131 -28 b 272 96 221 -28 250 19 b 311 317 290 156 303 232 b 371 283 319 294 343 289 z m 315 378 b 322 522 319 425 321 474 b 619 854 388 763 517 854 b 822 654 728 854 822 765 b 354 397 822 418 547 365 b 315 378 336 400 324 392 z "},"Q":{"ha":1079,"x_min":0,"x_max":0,"o":"m 524 -15 b 628 -6 561 -15 596 -12 b 761 -190 664 -74 708 -136 b 843 -215 792 -221 826 -231 b 829 -147 858 -200 853 -169 b 708 17 781 -101 740 -46 b 996 499 913 94 996 301 b 758 915 996 714 910 915 b 510 478 611 915 510 719 b 596 61 510 344 536 197 b 533 57 575 58 556 57 b 179 476 303 57 179 254 b 569 960 179 688 304 869 b 643 1044 639 983 651 1017 b 564 1083 633 1075 600 1086 b 83 492 376 1064 83 861 b 524 -15 83 224 232 -15 z m 608 453 b 763 813 608 651 679 813 b 911 510 863 813 911 671 b 678 85 911 342 843 154 b 608 453 631 201 608 333 z "},"R":{"ha":954,"x_min":0,"x_max":0,"o":"m 185 -28 b 272 96 221 -28 250 19 b 318 422 297 179 313 297 b 371 403 331 408 349 403 b 535 426 429 403 485 411 b 771 50 753 333 746 140 b 863 -6 785 1 821 -17 b 899 110 910 7 913 60 b 625 461 874 213 803 375 b 879 821 785 540 879 690 b 642 1069 879 979 768 1069 b 313 797 518 1071 381 986 b 297 921 308 842 304 883 b 215 1065 279 1026 254 1065 b 142 963 157 1065 142 1013 b 246 481 142 850 228 633 b 111 94 169 379 114 199 b 185 -28 108 24 131 -28 z m 322 503 l 322 540 l 322 551 b 625 996 353 874 490 996 b 800 815 714 996 800 947 b 354 517 800 674 638 535 b 322 503 340 517 329 511 z "},"Ŕ":{"ha":954,"x_min":0,"x_max":0,"o":"m 185 -28 b 272 96 221 -28 250 19 b 318 422 297 179 313 297 b 371 403 331 408 349 403 b 535 426 429 403 485 411 b 771 50 753 333 746 140 b 863 -6 785 1 821 -17 b 899 110 910 7 913 60 b 625 461 874 213 803 375 b 879 821 785 540 879 690 b 642 1069 879 979 768 1069 b 313 797 518 1071 381 986 b 297 921 308 842 304 883 b 215 1065 279 1026 254 1065 b 142 963 157 1065 142 1013 b 246 481 142 850 228 633 b 111 94 169 379 114 199 b 185 -28 108 24 131 -28 z m 493 1164 b 718 1432 586 1185 717 1368 b 688 1471 719 1454 704 1471 b 639 1433 669 1472 654 1463 b 465 1249 610 1376 543 1292 b 436 1186 433 1231 429 1204 b 493 1164 444 1168 464 1157 z m 322 503 l 322 540 l 322 551 b 625 996 353 874 490 996 b 800 815 714 996 800 947 b 354 517 800 674 638 535 b 322 503 340 517 329 511 z "},"Ř":{"ha":954,"x_min":0,"x_max":0,"o":"m 185 -28 b 272 96 221 -28 250 19 b 318 422 297 179 313 297 b 371 403 331 408 349 403 b 535 426 429 403 485 411 b 771 50 753 333 746 140 b 863 -6 785 1 821 -17 b 899 110 910 7 913 60 b 625 461 874 213 803 375 b 879 821 785 540 879 690 b 642 1069 879 979 768 1069 b 313 797 518 1071 381 986 b 297 921 308 842 304 883 b 215 1065 279 1026 254 1065 b 142 963 157 1065 142 1013 b 246 481 142 850 228 633 b 111 94 169 379 114 199 b 185 -28 108 24 131 -28 z m 651 1414 b 479 1249 594 1401 521 1318 b 308 1414 439 1318 365 1401 b 257 1394 282 1421 264 1411 b 282 1338 250 1378 254 1354 b 439 1168 353 1297 408 1219 b 481 1138 450 1149 465 1138 b 521 1168 494 1138 510 1147 b 678 1338 549 1219 607 1297 b 703 1394 706 1354 710 1378 b 651 1414 696 1411 678 1421 z m 322 503 l 322 540 l 322 551 b 625 996 353 874 490 996 b 800 815 714 996 800 947 b 354 517 800 674 638 535 b 322 503 340 517 329 511 z "},"Ŗ":{"ha":954,"x_min":0,"x_max":0,"o":"m 185 -28 b 272 96 221 -28 250 19 b 318 422 297 179 313 297 b 371 403 331 408 349 403 b 535 426 429 403 485 411 b 771 50 753 333 746 140 b 863 -6 785 1 821 -17 b 899 110 910 7 913 60 b 625 461 874 213 803 375 b 879 821 785 540 879 690 b 642 1069 879 979 768 1069 b 313 797 518 1071 381 986 b 297 921 308 842 304 883 b 215 1065 279 1026 254 1065 b 142 963 157 1065 142 1013 b 246 481 142 850 228 633 b 111 94 169 379 114 199 b 185 -28 108 24 131 -28 z m 499 -39 b 410 -119 456 -39 410 -67 b 489 -182 410 -160 442 -199 b 447 -275 482 -217 468 -249 b 451 -329 432 -299 436 -321 b 492 -322 461 -335 476 -335 b 569 -124 528 -294 569 -199 b 499 -39 569 -72 539 -39 z m 322 503 l 322 540 l 322 551 b 625 996 353 874 490 996 b 800 815 714 996 800 947 b 354 517 800 674 638 535 b 322 503 340 517 329 511 z "},"S":{"ha":919,"x_min":0,"x_max":0,"o":"m 499 -12 b 836 238 685 -12 836 96 b 246 828 836 568 246 540 b 426 975 246 926 319 975 b 679 876 500 975 592 947 b 796 889 719 846 774 846 b 743 990 817 929 790 964 b 461 1067 646 1043 554 1067 b 144 832 275 1067 146 972 b 703 247 142 501 703 531 b 533 118 703 188 651 118 b 232 239 408 118 301 178 b 100 240 189 276 125 274 b 129 113 71 200 82 157 b 499 -12 196 49 331 -12 z "},"Ś":{"ha":919,"x_min":0,"x_max":0,"o":"m 499 -12 b 836 238 685 -12 836 96 b 246 828 836 568 246 540 b 426 975 246 926 319 975 b 679 876 500 975 592 947 b 796 889 719 846 774 846 b 743 990 817 929 790 964 b 461 1067 646 1043 554 1067 b 144 832 275 1067 146 972 b 703 247 142 501 703 531 b 533 118 703 188 651 118 b 232 239 408 118 301 178 b 100 240 189 276 125 274 b 129 113 71 200 82 157 b 499 -12 196 49 331 -12 z m 471 1164 b 696 1432 564 1185 694 1368 b 665 1471 697 1454 682 1471 b 617 1433 647 1472 632 1463 b 443 1249 588 1376 521 1292 b 414 1186 411 1231 407 1204 b 471 1164 422 1168 442 1157 z "},"Š":{"ha":919,"x_min":0,"x_max":0,"o":"m 499 -12 b 836 238 685 -12 836 96 b 246 828 836 568 246 540 b 426 975 246 926 319 975 b 679 876 500 975 592 947 b 796 889 719 846 774 846 b 743 990 817 929 790 964 b 461 1067 646 1043 554 1067 b 144 832 275 1067 146 972 b 703 247 142 501 703 531 b 533 118 703 188 651 118 b 232 239 408 118 301 178 b 100 240 189 276 125 274 b 129 113 71 200 82 157 b 499 -12 196 49 331 -12 z m 629 1414 b 457 1249 572 1401 499 1318 b 286 1414 417 1318 343 1401 b 235 1394 260 1421 242 1411 b 260 1338 228 1378 232 1354 b 417 1168 331 1297 386 1219 b 458 1138 428 1149 443 1138 b 499 1168 472 1138 488 1147 b 656 1338 526 1219 585 1297 b 681 1394 683 1354 688 1378 b 629 1414 674 1411 656 1421 z "},"Ş":{"ha":919,"x_min":0,"x_max":0,"o":"m 485 -328 b 622 -199 576 -328 622 -262 b 499 -86 622 -143 583 -87 b 521 -12 511 -62 518 -35 b 836 238 697 -4 836 101 b 246 828 836 568 246 540 b 426 975 246 926 319 975 b 679 876 500 975 592 947 b 796 889 719 846 774 846 b 743 990 817 929 790 964 b 461 1067 646 1043 554 1067 b 144 832 275 1067 146 972 b 703 247 142 501 703 531 b 533 118 703 188 651 118 b 232 239 408 118 301 178 b 100 240 189 276 125 274 b 129 113 71 200 82 157 b 461 -11 190 54 310 -3 b 407 -110 454 -43 438 -81 b 407 -146 392 -125 399 -139 b 449 -143 418 -151 433 -151 b 461 -135 453 -140 457 -137 b 493 -132 474 -132 483 -132 b 569 -196 546 -132 569 -164 b 513 -254 569 -226 549 -254 b 439 -236 489 -254 461 -249 b 374 -235 415 -224 390 -214 b 376 -296 360 -253 361 -278 b 485 -328 393 -312 438 -328 z "},"Ș":{"ha":919,"x_min":0,"x_max":0,"o":"m 499 -12 b 836 238 685 -12 836 96 b 246 828 836 568 246 540 b 426 975 246 926 319 975 b 679 876 500 975 592 947 b 796 889 719 846 774 846 b 743 990 817 929 790 964 b 461 1067 646 1043 554 1067 b 144 832 275 1067 146 972 b 703 247 142 501 703 531 b 533 118 703 188 651 118 b 232 239 408 118 301 178 b 100 240 189 276 125 274 b 129 113 71 200 82 157 b 499 -12 196 49 331 -12 z m 517 -96 b 428 -176 474 -96 428 -124 b 507 -239 428 -217 460 -256 b 465 -332 500 -274 486 -306 b 469 -386 450 -356 454 -378 b 510 -379 479 -392 494 -392 b 588 -181 546 -351 588 -256 b 517 -96 588 -129 557 -96 z "},"ẞ":{"ha":1146,"x_min":0,"x_max":0,"o":"m 746 -15 b 1069 258 956 -15 1069 118 b 757 578 1069 382 992 532 b 838 969 863 694 892 846 b 894 1049 882 986 904 1010 b 792 1094 885 1090 851 1124 b 167 1074 636 1018 326 979 b 115 1065 142 1089 122 1079 b 147 990 107 1047 111 1015 b 200 964 163 981 181 971 b 272 40 160 750 188 307 b 325 -11 283 4 300 -14 b 356 56 344 -10 374 7 b 282 376 325 140 286 288 b 342 933 269 599 331 753 b 774 953 489 918 668 932 b 519 535 856 786 688 626 b 497 474 496 522 489 497 b 567 446 511 439 538 433 b 696 521 615 467 658 492 b 997 256 931 490 997 356 b 794 76 997 140 913 76 b 453 243 696 76 574 128 b 383 236 431 263 403 257 b 388 150 357 208 361 178 b 746 -15 497 33 626 -15 z "},"T":{"ha":993,"x_min":0,"x_max":0,"o":"m 583 -11 b 635 82 626 -6 639 32 b 522 742 621 247 522 494 b 569 961 524 829 546 894 b 904 1053 710 976 843 1008 b 940 1135 942 1081 950 1110 b 882 1143 933 1150 910 1158 b 647 1043 804 1103 744 1054 b 118 1117 453 1021 249 1115 b 49 1058 78 1117 50 1101 b 131 969 46 1010 81 983 b 460 951 200 949 326 943 b 488 83 414 704 433 251 b 583 -11 506 24 535 -18 z "},"Ť":{"ha":993,"x_min":0,"x_max":0,"o":"m 583 -11 b 635 82 626 -6 639 32 b 522 742 621 247 522 494 b 569 961 524 829 546 894 b 904 1053 710 976 843 1008 b 940 1135 942 1081 950 1110 b 882 1143 933 1150 910 1158 b 647 1043 804 1103 744 1054 b 118 1117 453 1021 249 1115 b 49 1058 78 1117 50 1101 b 131 969 46 1010 81 983 b 460 951 200 949 326 943 b 488 83 414 704 433 251 b 583 -11 506 24 535 -18 z m 696 1414 b 524 1249 639 1401 565 1318 b 353 1414 483 1318 410 1401 b 301 1394 326 1421 308 1411 b 326 1338 294 1378 299 1354 b 483 1168 397 1297 453 1219 b 525 1138 494 1149 510 1138 b 565 1168 539 1138 554 1147 b 722 1338 593 1219 651 1297 b 747 1394 750 1354 754 1378 b 696 1414 740 1411 722 1421 z "},"Ţ":{"ha":993,"x_min":0,"x_max":0,"o":"m 131 969 b 460 951 200 949 326 943 b 488 83 414 704 433 251 b 546 -6 500 40 519 7 b 492 -108 540 -37 524 -78 b 492 -144 476 -124 483 -137 b 533 -142 503 -150 518 -150 b 546 -133 538 -139 542 -136 b 578 -131 558 -131 568 -131 b 654 -194 631 -131 654 -162 b 597 -253 654 -225 633 -253 b 524 -235 574 -253 546 -247 b 458 -233 500 -222 475 -212 b 461 -294 444 -251 446 -276 b 569 -326 478 -311 522 -326 b 707 -197 661 -326 707 -261 b 583 -85 707 -142 668 -86 b 607 -4 597 -58 604 -28 b 635 82 631 11 638 43 b 522 742 621 247 522 494 b 569 961 524 829 546 894 b 904 1053 710 976 843 1008 b 940 1135 942 1081 950 1110 b 882 1143 933 1150 910 1158 b 647 1043 804 1103 744 1054 b 118 1117 453 1021 249 1115 b 49 1058 78 1117 50 1101 b 131 969 46 1010 81 983 z "},"Ț":{"ha":993,"x_min":0,"x_max":0,"o":"m 583 -11 b 635 82 626 -6 639 32 b 522 742 621 247 522 494 b 569 961 524 829 546 894 b 904 1053 710 976 843 1008 b 940 1135 942 1081 950 1110 b 882 1143 933 1150 910 1158 b 647 1043 804 1103 744 1054 b 118 1117 453 1021 249 1115 b 49 1058 78 1117 50 1101 b 131 969 46 1010 81 983 b 460 951 200 949 326 943 b 488 83 414 704 433 251 b 583 -11 506 24 535 -18 z m 601 -67 b 513 -147 558 -67 513 -94 b 592 -210 513 -187 544 -226 b 550 -303 585 -244 571 -276 b 554 -357 535 -326 539 -349 b 594 -350 564 -362 579 -362 b 672 -151 631 -322 672 -226 b 601 -67 672 -100 642 -67 z "},"U":{"ha":1090,"x_min":0,"x_max":0,"o":"m 506 0 b 817 154 625 0 736 60 b 869 40 831 113 849 74 b 965 10 900 -8 943 -11 b 950 115 988 31 983 65 b 874 263 921 160 893 213 b 938 753 904 363 933 560 b 861 1044 942 960 924 1044 b 760 760 797 1044 767 968 b 790 251 753 576 758 399 b 522 72 728 142 635 72 b 221 525 292 72 221 292 b 283 929 221 671 249 822 b 218 1042 301 985 288 1042 b 138 943 176 1042 149 1015 b 506 0 78 567 90 0 z "},"Ú":{"ha":1090,"x_min":0,"x_max":0,"o":"m 506 0 b 817 154 625 0 736 60 b 869 40 831 113 849 74 b 965 10 900 -8 943 -11 b 950 115 988 31 983 65 b 874 263 921 160 893 213 b 938 753 904 363 933 560 b 861 1044 942 960 924 1044 b 760 760 797 1044 767 968 b 790 251 753 576 758 399 b 522 72 728 142 635 72 b 221 525 292 72 221 292 b 283 929 221 671 249 822 b 218 1042 301 985 288 1042 b 138 943 176 1042 149 1015 b 506 0 78 567 90 0 z m 542 1164 b 767 1432 635 1185 765 1368 b 736 1471 768 1454 753 1471 b 688 1433 718 1472 703 1463 b 514 1249 658 1376 592 1292 b 485 1186 482 1231 478 1204 b 542 1164 493 1168 513 1157 z "},"Ŭ":{"ha":1090,"x_min":0,"x_max":0,"o":"m 506 0 b 817 154 625 0 736 60 b 869 40 831 113 849 74 b 965 10 900 -8 943 -11 b 950 115 988 31 983 65 b 874 263 921 160 893 213 b 938 753 904 363 933 560 b 861 1044 942 960 924 1044 b 760 760 797 1044 767 968 b 790 251 753 576 758 399 b 522 72 728 142 635 72 b 221 525 292 72 221 292 b 283 929 221 671 249 822 b 218 1042 301 985 288 1042 b 138 943 176 1042 149 1015 b 506 0 78 567 90 0 z m 532 1139 b 694 1372 706 1139 726 1324 b 635 1393 678 1400 653 1401 b 618 1326 617 1385 610 1365 b 532 1192 635 1251 618 1192 b 446 1321 446 1192 432 1258 b 429 1386 454 1358 447 1378 b 369 1367 411 1394 386 1393 b 532 1139 338 1318 358 1139 z "},"Û":{"ha":1090,"x_min":0,"x_max":0,"o":"m 506 0 b 817 154 625 0 736 60 b 869 40 831 113 849 74 b 965 10 900 -8 943 -11 b 950 115 988 31 983 65 b 874 263 921 160 893 213 b 938 753 904 363 933 560 b 861 1044 942 960 924 1044 b 760 760 797 1044 767 968 b 790 251 753 576 758 399 b 522 72 728 142 635 72 b 221 525 292 72 221 292 b 283 929 221 671 249 822 b 218 1042 301 985 288 1042 b 138 943 176 1042 149 1015 b 506 0 78 567 90 0 z m 365 1164 b 538 1329 422 1176 496 1260 b 708 1164 578 1260 651 1176 b 760 1183 735 1157 753 1167 b 735 1240 767 1200 763 1224 b 578 1410 664 1281 608 1358 b 536 1440 567 1429 551 1440 b 496 1410 522 1440 507 1431 b 339 1240 468 1358 410 1281 b 314 1183 311 1224 307 1200 b 365 1164 321 1167 339 1157 z "},"Ü":{"ha":1090,"x_min":0,"x_max":0,"o":"m 506 0 b 817 154 625 0 736 60 b 869 40 831 113 849 74 b 965 10 900 -8 943 -11 b 950 115 988 31 983 65 b 874 263 921 160 893 213 b 938 753 904 363 933 560 b 861 1044 942 960 924 1044 b 760 760 797 1044 767 968 b 790 251 753 576 758 399 b 522 72 728 142 635 72 b 221 525 292 72 221 292 b 283 929 221 671 249 822 b 218 1042 301 985 288 1042 b 138 943 176 1042 149 1015 b 506 0 78 567 90 0 z m 661 1171 b 719 1235 697 1171 719 1196 b 639 1308 719 1283 676 1308 b 581 1253 601 1308 581 1290 b 661 1171 581 1201 619 1171 z m 425 1171 b 483 1235 461 1171 483 1196 b 403 1308 483 1283 440 1308 b 344 1253 365 1308 344 1290 b 425 1171 344 1201 383 1171 z "},"Ù":{"ha":1090,"x_min":0,"x_max":0,"o":"m 506 0 b 817 154 625 0 736 60 b 869 40 831 113 849 74 b 965 10 900 -8 943 -11 b 950 115 988 31 983 65 b 874 263 921 160 893 213 b 938 753 904 363 933 560 b 861 1044 942 960 924 1044 b 760 760 797 1044 767 968 b 790 251 753 576 758 399 b 522 72 728 142 635 72 b 221 525 292 72 221 292 b 283 929 221 671 249 822 b 218 1042 301 985 288 1042 b 138 943 176 1042 149 1015 b 506 0 78 567 90 0 z m 526 1164 b 583 1186 556 1157 575 1168 b 554 1249 590 1204 586 1231 b 381 1433 476 1292 410 1376 b 332 1471 365 1463 350 1472 b 301 1432 315 1471 300 1454 b 526 1164 303 1368 433 1185 z "},"Ű":{"ha":1090,"x_min":0,"x_max":0,"o":"m 506 0 b 817 154 625 0 736 60 b 869 40 831 113 849 74 b 965 10 900 -8 943 -11 b 950 115 988 31 983 65 b 874 263 921 160 893 213 b 938 753 904 363 933 560 b 861 1044 942 960 924 1044 b 760 760 797 1044 767 968 b 790 251 753 576 758 399 b 522 72 728 142 635 72 b 221 525 292 72 221 292 b 283 929 221 671 249 822 b 218 1042 301 985 288 1042 b 138 943 176 1042 149 1015 b 506 0 78 567 90 0 z m 413 1151 b 588 1454 500 1188 597 1392 b 550 1488 585 1476 567 1490 b 508 1442 532 1485 519 1474 b 369 1229 490 1381 439 1286 b 353 1163 342 1207 342 1179 b 413 1151 364 1147 385 1139 z m 664 1150 b 839 1453 751 1186 849 1390 b 801 1486 836 1475 818 1489 b 760 1440 783 1483 771 1472 b 621 1228 742 1379 690 1285 b 604 1161 593 1206 593 1178 b 664 1150 615 1146 636 1138 z "},"Ū":{"ha":1090,"x_min":0,"x_max":0,"o":"m 506 0 b 817 154 625 0 736 60 b 869 40 831 113 849 74 b 965 10 900 -8 943 -11 b 950 115 988 31 983 65 b 874 263 921 160 893 213 b 938 753 904 363 933 560 b 861 1044 942 960 924 1044 b 760 760 797 1044 767 968 b 790 251 753 576 758 399 b 522 72 728 142 635 72 b 221 525 292 72 221 292 b 283 929 221 671 249 822 b 218 1042 301 985 288 1042 b 138 943 176 1042 149 1015 b 506 0 78 567 90 0 z m 363 1167 b 711 1197 443 1117 667 1153 b 718 1247 728 1213 731 1235 b 657 1254 706 1260 689 1264 b 403 1247 596 1235 490 1222 b 339 1224 368 1257 346 1240 b 363 1167 332 1204 339 1183 z "},"Ų":{"ha":1090,"x_min":0,"x_max":0,"o":"m 506 0 b 817 154 625 0 736 60 b 869 40 831 113 849 74 b 882 22 874 33 878 28 b 776 -143 814 -22 776 -85 b 914 -268 776 -204 822 -268 b 1022 -236 961 -268 1006 -253 b 1025 -175 1038 -218 1039 -193 b 960 -176 1008 -154 983 -164 b 897 -194 939 -189 917 -196 b 846 -136 868 -193 846 -175 b 936 -10 846 -96 882 -36 b 958 4 946 -4 953 0 l 965 10 b 950 115 988 31 983 65 b 874 263 921 160 893 213 b 938 753 904 363 933 560 b 861 1044 942 960 924 1044 b 760 760 797 1044 767 968 b 790 251 753 576 758 399 b 522 72 728 142 635 72 b 221 525 292 72 221 292 b 283 929 221 671 249 822 b 218 1042 301 985 288 1042 b 138 943 176 1042 149 1015 b 506 0 78 567 90 0 z "},"Ů":{"ha":1090,"x_min":0,"x_max":0,"o":"m 506 0 b 817 154 625 0 736 60 b 869 40 831 113 849 74 b 965 10 900 -8 943 -11 b 950 115 988 31 983 65 b 874 263 921 160 893 213 b 938 753 904 363 933 560 b 861 1044 942 960 924 1044 b 760 760 797 1044 767 968 b 790 251 753 576 758 399 b 522 72 728 142 635 72 b 221 525 292 72 221 292 b 283 929 221 671 249 822 b 218 1042 301 985 288 1042 b 138 943 176 1042 149 1015 b 506 0 78 567 90 0 z m 528 1001 b 676 1139 631 1001 676 1069 b 528 1292 676 1215 624 1292 b 388 1151 432 1292 388 1222 b 528 1001 388 1078 439 1001 z m 531 1075 b 436 1149 469 1075 436 1114 b 531 1219 436 1183 465 1219 b 628 1143 593 1219 628 1182 b 531 1075 628 1108 599 1075 z "},"Ũ":{"ha":1090,"x_min":0,"x_max":0,"o":"m 506 0 b 817 154 625 0 736 60 b 869 40 831 113 849 74 b 965 10 900 -8 943 -11 b 950 115 988 31 983 65 b 874 263 921 160 893 213 b 938 753 904 363 933 560 b 861 1044 942 960 924 1044 b 760 760 797 1044 767 968 b 790 251 753 576 758 399 b 522 72 728 142 635 72 b 221 525 292 72 221 292 b 283 929 221 671 249 822 b 218 1042 301 985 288 1042 b 138 943 176 1042 149 1015 b 506 0 78 567 90 0 z m 635 1142 b 763 1279 719 1142 769 1233 b 717 1321 758 1310 738 1321 b 676 1269 699 1321 686 1307 b 619 1206 665 1225 643 1206 b 443 1297 569 1203 536 1297 b 301 1154 344 1297 296 1200 b 347 1113 307 1124 326 1113 b 388 1164 365 1113 378 1128 b 458 1235 399 1208 421 1235 b 635 1142 518 1235 546 1142 z "},"V":{"ha":969,"x_min":0,"x_max":0,"o":"m 489 -11 b 513 -6 497 -11 506 -10 b 921 943 663 61 900 738 b 871 1054 924 993 917 1042 b 789 1000 826 1065 794 1036 b 572 174 754 781 740 460 b 194 971 553 397 350 746 b 75 1032 174 1000 132 1064 b 61 932 44 1015 40 967 b 433 353 129 817 325 583 b 488 172 456 304 476 263 b 417 50 446 142 417 90 b 489 -11 417 17 438 -11 z "},"W":{"ha":1500,"x_min":0,"x_max":0,"o":"m 1042 -8 b 1365 943 1403 -8 1421 590 b 1285 1042 1354 1015 1326 1042 b 1219 929 1215 1042 1201 983 b 1282 525 1254 822 1282 671 b 1035 69 1282 207 1164 69 b 800 268 946 69 865 149 b 863 753 831 369 860 564 b 786 1044 867 960 849 1044 b 685 760 722 1044 692 968 b 726 274 681 615 682 428 b 465 69 660 142 560 69 b 218 525 336 69 218 207 b 281 929 218 671 246 822 b 215 1042 299 983 285 1042 b 135 943 174 1042 146 1015 b 458 -8 79 590 97 -8 b 761 179 563 -8 672 56 b 1042 -8 814 68 901 -8 z "},"Ẃ":{"ha":1500,"x_min":0,"x_max":0,"o":"m 1042 -8 b 1365 943 1403 -8 1421 590 b 1285 1042 1354 1015 1326 1042 b 1219 929 1215 1042 1201 983 b 1282 525 1254 822 1282 671 b 1035 69 1282 207 1164 69 b 800 268 946 69 865 149 b 863 753 831 369 860 564 b 786 1044 867 960 849 1044 b 685 760 722 1044 692 968 b 726 274 681 615 682 428 b 465 69 660 142 560 69 b 218 525 336 69 218 207 b 281 929 218 671 246 822 b 215 1042 299 983 285 1042 b 135 943 174 1042 146 1015 b 458 -8 79 590 97 -8 b 761 179 563 -8 672 56 b 1042 -8 814 68 901 -8 z m 796 1164 b 1021 1432 889 1185 1019 1368 b 990 1471 1022 1454 1007 1471 b 942 1433 972 1472 957 1463 b 768 1249 913 1376 846 1292 b 739 1186 736 1231 732 1204 b 796 1164 747 1168 767 1157 z "},"Ŵ":{"ha":1500,"x_min":0,"x_max":0,"o":"m 1042 -8 b 1365 943 1403 -8 1421 590 b 1285 1042 1354 1015 1326 1042 b 1219 929 1215 1042 1201 983 b 1282 525 1254 822 1282 671 b 1035 69 1282 207 1164 69 b 800 268 946 69 865 149 b 863 753 831 369 860 564 b 786 1044 867 960 849 1044 b 685 760 722 1044 692 968 b 726 274 681 615 682 428 b 465 69 660 142 560 69 b 218 525 336 69 218 207 b 281 929 218 671 246 822 b 215 1042 299 983 285 1042 b 135 943 174 1042 146 1015 b 458 -8 79 590 97 -8 b 761 179 563 -8 672 56 b 1042 -8 814 68 901 -8 z m 619 1164 b 792 1329 676 1176 750 1260 b 963 1164 832 1260 906 1176 b 1014 1183 989 1157 1007 1167 b 989 1240 1021 1200 1017 1224 b 832 1410 918 1281 863 1358 b 790 1440 821 1429 806 1440 b 750 1410 776 1440 761 1431 b 593 1240 722 1358 664 1281 b 568 1183 565 1224 561 1200 b 619 1164 575 1167 593 1157 z "},"Ẅ":{"ha":1500,"x_min":0,"x_max":0,"o":"m 1042 -8 b 1365 943 1403 -8 1421 590 b 1285 1042 1354 1015 1326 1042 b 1219 929 1215 1042 1201 983 b 1282 525 1254 822 1282 671 b 1035 69 1282 207 1164 69 b 800 268 946 69 865 149 b 863 753 831 369 860 564 b 786 1044 867 960 849 1044 b 685 760 722 1044 692 968 b 726 274 681 615 682 428 b 465 69 660 142 560 69 b 218 525 336 69 218 207 b 281 929 218 671 246 822 b 215 1042 299 983 285 1042 b 135 943 174 1042 146 1015 b 458 -8 79 590 97 -8 b 761 179 563 -8 672 56 b 1042 -8 814 68 901 -8 z m 915 1171 b 974 1235 951 1171 974 1196 b 893 1308 974 1283 931 1308 b 835 1253 856 1308 835 1290 b 915 1171 835 1201 874 1171 z m 679 1171 b 738 1235 715 1171 738 1196 b 657 1308 738 1283 694 1308 b 599 1253 619 1308 599 1290 b 679 1171 599 1201 638 1171 z "},"Ẁ":{"ha":1500,"x_min":0,"x_max":0,"o":"m 1042 -8 b 1365 943 1403 -8 1421 590 b 1285 1042 1354 1015 1326 1042 b 1219 929 1215 1042 1201 983 b 1282 525 1254 822 1282 671 b 1035 69 1282 207 1164 69 b 800 268 946 69 865 149 b 863 753 831 369 860 564 b 786 1044 867 960 849 1044 b 685 760 722 1044 692 968 b 726 274 681 615 682 428 b 465 69 660 142 560 69 b 218 525 336 69 218 207 b 281 929 218 671 246 822 b 215 1042 299 983 285 1042 b 135 943 174 1042 146 1015 b 458 -8 79 590 97 -8 b 761 179 563 -8 672 56 b 1042 -8 814 68 901 -8 z m 781 1164 b 838 1186 810 1157 829 1168 b 808 1249 844 1204 840 1231 b 635 1433 731 1292 664 1376 b 586 1471 619 1463 604 1472 b 556 1432 569 1471 554 1454 b 781 1164 557 1368 688 1185 z "},"X":{"ha":1072,"x_min":0,"x_max":0,"o":"m 972 19 b 960 93 986 32 1006 63 b 568 454 801 199 633 371 l 549 481 b 1001 925 703 711 908 808 b 1004 1021 1025 954 1036 992 b 883 1006 968 1056 924 1035 b 510 535 811 950 636 719 b 228 1024 378 724 331 876 b 136 1051 206 1054 172 1075 b 119 931 93 1025 101 976 b 463 456 158 836 300 642 b 71 103 314 244 161 215 b 68 7 47 74 36 36 b 189 22 104 -28 149 -7 b 506 407 260 76 383 231 b 899 32 644 249 793 103 b 972 19 929 11 953 3 z "},"Y":{"ha":994,"x_min":0,"x_max":0,"o":"m 258 -233 b 421 -140 297 -233 349 -214 b 936 935 576 17 858 644 b 903 1050 949 981 958 1031 b 818 996 869 1064 826 1029 b 569 276 772 825 686 533 b 196 986 488 540 293 868 b 82 1029 163 1022 124 1053 b 61 933 43 1006 40 963 b 514 163 190 754 425 490 b 349 -89 463 65 408 -22 b 174 -162 267 -57 174 -93 b 258 -233 174 -189 200 -233 z "},"Ý":{"ha":994,"x_min":0,"x_max":0,"o":"m 258 -233 b 421 -140 297 -233 349 -214 b 936 935 576 17 858 644 b 903 1050 949 981 958 1031 b 818 996 869 1064 826 1029 b 569 276 772 825 686 533 b 196 986 488 540 293 868 b 82 1029 163 1022 124 1053 b 61 933 43 1006 40 963 b 514 163 190 754 425 490 b 349 -89 463 65 408 -22 b 174 -162 267 -57 174 -93 b 258 -233 174 -189 200 -233 z m 519 1164 b 744 1432 613 1185 743 1368 b 714 1471 746 1454 731 1471 b 665 1433 696 1472 681 1463 b 492 1249 636 1376 569 1292 b 463 1186 460 1231 456 1204 b 519 1164 471 1168 490 1157 z "},"Ŷ":{"ha":994,"x_min":0,"x_max":0,"o":"m 258 -233 b 421 -140 297 -233 349 -214 b 936 935 576 17 858 644 b 903 1050 949 981 958 1031 b 818 996 869 1064 826 1029 b 569 276 772 825 686 533 b 196 986 488 540 293 868 b 82 1029 163 1022 124 1053 b 61 933 43 1006 40 963 b 514 163 190 754 425 490 b 349 -89 463 65 408 -22 b 174 -162 267 -57 174 -93 b 258 -233 174 -189 200 -233 z m 343 1164 b 515 1329 400 1176 474 1260 b 686 1164 556 1260 629 1176 b 738 1183 713 1157 731 1167 b 713 1240 744 1200 740 1224 b 556 1410 642 1281 586 1358 b 514 1440 544 1429 529 1440 b 474 1410 500 1440 485 1431 b 317 1240 446 1358 388 1281 b 292 1183 289 1224 285 1200 b 343 1164 299 1167 317 1157 z "},"Ÿ":{"ha":994,"x_min":0,"x_max":0,"o":"m 258 -233 b 421 -140 297 -233 349 -214 b 936 935 576 17 858 644 b 903 1050 949 981 958 1031 b 818 996 869 1064 826 1029 b 569 276 772 825 686 533 b 196 986 488 540 293 868 b 82 1029 163 1022 124 1053 b 61 933 43 1006 40 963 b 514 163 190 754 425 490 b 349 -89 463 65 408 -22 b 174 -162 267 -57 174 -93 b 258 -233 174 -189 200 -233 z m 639 1171 b 697 1235 675 1171 697 1196 b 617 1308 697 1283 654 1308 b 558 1253 579 1308 558 1290 b 639 1171 558 1201 597 1171 z m 403 1171 b 461 1235 439 1171 461 1196 b 381 1308 461 1283 418 1308 b 322 1253 343 1308 322 1290 b 403 1171 322 1201 361 1171 z "},"Ỳ":{"ha":994,"x_min":0,"x_max":0,"o":"m 258 -233 b 421 -140 297 -233 349 -214 b 936 935 576 17 858 644 b 903 1050 949 981 958 1031 b 818 996 869 1064 826 1029 b 569 276 772 825 686 533 b 196 986 488 540 293 868 b 82 1029 163 1022 124 1053 b 61 933 43 1006 40 963 b 514 163 190 754 425 490 b 349 -89 463 65 408 -22 b 174 -162 267 -57 174 -93 b 258 -233 174 -189 200 -233 z m 504 1164 b 561 1186 533 1157 553 1168 b 532 1249 568 1204 564 1231 b 358 1433 454 1292 388 1376 b 310 1471 343 1463 328 1472 b 279 1432 293 1471 278 1454 b 504 1164 281 1368 411 1185 z "},"Ỹ":{"ha":994,"x_min":0,"x_max":0,"o":"m 258 -233 b 421 -140 297 -233 349 -214 b 936 935 576 17 858 644 b 903 1050 949 981 958 1031 b 818 996 869 1064 826 1029 b 569 276 772 825 686 533 b 196 986 488 540 293 868 b 82 1029 163 1022 124 1053 b 61 933 43 1006 40 963 b 514 163 190 754 425 490 b 349 -89 463 65 408 -22 b 174 -162 267 -57 174 -93 b 258 -233 174 -189 200 -233 z m 613 1142 b 740 1279 697 1142 747 1233 b 694 1321 736 1310 715 1321 b 654 1269 676 1321 664 1307 b 597 1206 643 1225 621 1206 b 421 1297 547 1203 514 1297 b 279 1154 322 1297 274 1200 b 325 1113 285 1124 304 1113 b 365 1164 343 1113 356 1128 b 436 1235 376 1208 399 1235 b 613 1142 496 1235 524 1142 z "},"Z":{"ha":989,"x_min":0,"x_max":0,"o":"m 839 -8 b 940 60 882 -10 936 1 b 821 149 942 99 910 125 b 428 192 711 176 564 192 b 882 903 576 463 719 743 b 929 950 915 903 929 925 b 876 988 929 971 918 1000 b 608 942 806 964 682 938 b 160 1056 408 949 326 1038 b 93 1003 129 1058 99 1047 b 161 913 88 954 122 928 b 478 861 236 883 351 865 b 767 878 574 858 674 864 b 340 189 619 697 474 429 b 49 76 181 179 53 143 b 149 -1 47 18 88 -3 b 372 110 221 1 308 49 b 839 -8 574 82 760 -3 z "}}}
